<mxfile host="65bd71144e" pages="5">
    <diagram id="zu34nl77yZbIlVnagamw" name="types of inheritance">
        <mxGraphModel dx="1373" dy="798" grid="1" gridSize="10" guides="1" tooltips="1" connect="1" arrows="1" fold="1" page="1" pageScale="1" pageWidth="850" pageHeight="1100" math="0" shadow="0">
            <root>
                <mxCell id="0"/>
                <mxCell id="1" parent="0"/>
                <mxCell id="uf1zywIin3J2WrBomRnB-1" value="Telephone" style="rounded=1;whiteSpace=wrap;html=1;fillColor=#d0cee2;strokeColor=#56517e;verticalAlign=bottom;" parent="1" vertex="1">
                    <mxGeometry x="360" y="220" width="190" height="60" as="geometry"/>
                </mxCell>
                <mxCell id="uf1zywIin3J2WrBomRnB-2" style="edgeStyle=orthogonalEdgeStyle;rounded=0;orthogonalLoop=1;jettySize=auto;html=1;entryX=0.5;entryY=1;entryDx=0;entryDy=0;" parent="1" source="uf1zywIin3J2WrBomRnB-3" target="uf1zywIin3J2WrBomRnB-1" edge="1">
                    <mxGeometry relative="1" as="geometry"/>
                </mxCell>
                <mxCell id="uf1zywIin3J2WrBomRnB-3" value="FeaturePhone" style="rounded=1;whiteSpace=wrap;html=1;fillColor=#d0cee2;strokeColor=#56517e;verticalAlign=bottom;" parent="1" vertex="1">
                    <mxGeometry x="360" y="330" width="190" height="60" as="geometry"/>
                </mxCell>
                <mxCell id="uf1zywIin3J2WrBomRnB-4" value="SINGLE INHERITANCE" style="rounded=1;whiteSpace=wrap;html=1;fillColor=#b0e3e6;strokeColor=#0e8088;fontStyle=1;verticalAlign=middle;" parent="1" vertex="1">
                    <mxGeometry x="360" y="430" width="180" height="70" as="geometry"/>
                </mxCell>
                <mxCell id="uf1zywIin3J2WrBomRnB-5" value="Telephone" style="rounded=1;whiteSpace=wrap;html=1;fillColor=#d0cee2;strokeColor=#56517e;verticalAlign=bottom;" parent="1" vertex="1">
                    <mxGeometry x="610" y="220" width="190" height="60" as="geometry"/>
                </mxCell>
                <mxCell id="uf1zywIin3J2WrBomRnB-6" style="edgeStyle=orthogonalEdgeStyle;rounded=0;orthogonalLoop=1;jettySize=auto;html=1;entryX=0.5;entryY=1;entryDx=0;entryDy=0;" parent="1" source="uf1zywIin3J2WrBomRnB-7" target="uf1zywIin3J2WrBomRnB-5" edge="1">
                    <mxGeometry relative="1" as="geometry"/>
                </mxCell>
                <mxCell id="uf1zywIin3J2WrBomRnB-7" value="FeaturePhone" style="rounded=1;whiteSpace=wrap;html=1;fillColor=#d0cee2;strokeColor=#56517e;verticalAlign=bottom;" parent="1" vertex="1">
                    <mxGeometry x="610" y="320" width="190" height="60" as="geometry"/>
                </mxCell>
                <mxCell id="uf1zywIin3J2WrBomRnB-8" value="MULTILEVEL INHERITANCE" style="rounded=1;whiteSpace=wrap;html=1;fillColor=#b0e3e6;strokeColor=#0e8088;fontStyle=1;verticalAlign=middle;" parent="1" vertex="1">
                    <mxGeometry x="610" y="560" width="180" height="70" as="geometry"/>
                </mxCell>
                <mxCell id="uf1zywIin3J2WrBomRnB-9" value="" style="edgeStyle=orthogonalEdgeStyle;rounded=0;orthogonalLoop=1;jettySize=auto;html=1;" parent="1" source="uf1zywIin3J2WrBomRnB-10" target="uf1zywIin3J2WrBomRnB-7" edge="1">
                    <mxGeometry relative="1" as="geometry"/>
                </mxCell>
                <mxCell id="uf1zywIin3J2WrBomRnB-10" value="SmartPhone" style="rounded=1;whiteSpace=wrap;html=1;fillColor=#d0cee2;strokeColor=#56517e;verticalAlign=bottom;" parent="1" vertex="1">
                    <mxGeometry x="610" y="430" width="190" height="60" as="geometry"/>
                </mxCell>
                <mxCell id="uf1zywIin3J2WrBomRnB-11" value="MULTIPLE INHERITANCE" style="rounded=1;whiteSpace=wrap;html=1;fillColor=#f8cecc;strokeColor=#b85450;fontStyle=1;verticalAlign=middle;" parent="1" vertex="1">
                    <mxGeometry x="970" y="510" width="180" height="70" as="geometry"/>
                </mxCell>
                <mxCell id="uf1zywIin3J2WrBomRnB-12" style="edgeStyle=orthogonalEdgeStyle;rounded=0;orthogonalLoop=1;jettySize=auto;html=1;" parent="1" source="uf1zywIin3J2WrBomRnB-14" edge="1">
                    <mxGeometry relative="1" as="geometry">
                        <mxPoint x="930" y="299.9999999999999" as="targetPoint"/>
                        <Array as="points">
                            <mxPoint x="1065" y="340"/>
                            <mxPoint x="930" y="340"/>
                        </Array>
                    </mxGeometry>
                </mxCell>
                <mxCell id="uf1zywIin3J2WrBomRnB-13" style="edgeStyle=orthogonalEdgeStyle;rounded=0;orthogonalLoop=1;jettySize=auto;html=1;" parent="1" source="uf1zywIin3J2WrBomRnB-14" target="uf1zywIin3J2WrBomRnB-16" edge="1">
                    <mxGeometry relative="1" as="geometry"/>
                </mxCell>
                <mxCell id="uf1zywIin3J2WrBomRnB-14" value="SmartPhone" style="rounded=1;whiteSpace=wrap;html=1;fillColor=#f8cecc;strokeColor=#b85450;verticalAlign=bottom;" parent="1" vertex="1">
                    <mxGeometry x="970" y="380" width="190" height="60" as="geometry"/>
                </mxCell>
                <mxCell id="uf1zywIin3J2WrBomRnB-15" value="Telephone" style="rounded=1;whiteSpace=wrap;html=1;fillColor=#f8cecc;strokeColor=#b85450;verticalAlign=bottom;" parent="1" vertex="1">
                    <mxGeometry x="830" y="230" width="190" height="60" as="geometry"/>
                </mxCell>
                <mxCell id="uf1zywIin3J2WrBomRnB-16" value="MUSIC PLYER" style="rounded=1;whiteSpace=wrap;html=1;fillColor=#f8cecc;strokeColor=#b85450;verticalAlign=bottom;" parent="1" vertex="1">
                    <mxGeometry x="1070" y="230" width="190" height="60" as="geometry"/>
                </mxCell>
                <mxCell id="uf1zywIin3J2WrBomRnB-17" value="HIERARCHIAL INHERITANCE" style="rounded=1;whiteSpace=wrap;html=1;fillColor=#b0e3e6;strokeColor=#0e8088;fontStyle=1;verticalAlign=middle;" parent="1" vertex="1">
                    <mxGeometry x="1320" y="450" width="180" height="70" as="geometry"/>
                </mxCell>
                <mxCell id="uf1zywIin3J2WrBomRnB-18" value="TELEPHONE" style="rounded=1;whiteSpace=wrap;html=1;fillColor=#d0cee2;strokeColor=#56517e;verticalAlign=middle;align=center;fontStyle=1" parent="1" vertex="1">
                    <mxGeometry x="1370" y="250" width="100" height="50" as="geometry"/>
                </mxCell>
                <mxCell id="uf1zywIin3J2WrBomRnB-19" style="edgeStyle=orthogonalEdgeStyle;rounded=0;orthogonalLoop=1;jettySize=auto;html=1;entryX=0.5;entryY=1;entryDx=0;entryDy=0;" parent="1" source="uf1zywIin3J2WrBomRnB-20" target="uf1zywIin3J2WrBomRnB-18" edge="1">
                    <mxGeometry relative="1" as="geometry"/>
                </mxCell>
                <mxCell id="uf1zywIin3J2WrBomRnB-20" value="Phone3G" style="rounded=1;whiteSpace=wrap;html=1;fillColor=#d0cee2;strokeColor=#56517e;verticalAlign=middle;align=center;fontStyle=1" parent="1" vertex="1">
                    <mxGeometry x="1250" y="360" width="100" height="50" as="geometry"/>
                </mxCell>
                <mxCell id="uf1zywIin3J2WrBomRnB-21" style="edgeStyle=orthogonalEdgeStyle;rounded=0;orthogonalLoop=1;jettySize=auto;html=1;entryX=0.5;entryY=1;entryDx=0;entryDy=0;" parent="1" source="uf1zywIin3J2WrBomRnB-22" target="uf1zywIin3J2WrBomRnB-18" edge="1">
                    <mxGeometry relative="1" as="geometry"/>
                </mxCell>
                <mxCell id="uf1zywIin3J2WrBomRnB-22" value="Phone4G" style="rounded=1;whiteSpace=wrap;html=1;fillColor=#d0cee2;strokeColor=#56517e;verticalAlign=middle;align=center;fontStyle=1" parent="1" vertex="1">
                    <mxGeometry x="1490" y="360" width="100" height="50" as="geometry"/>
                </mxCell>
                <mxCell id="uf1zywIin3J2WrBomRnB-23" value="HYBRID INHERITANCE" style="rounded=1;whiteSpace=wrap;html=1;fillColor=#b0e3e6;strokeColor=#0e8088;fontStyle=1;verticalAlign=middle;" parent="1" vertex="1">
                    <mxGeometry x="1690" y="550" width="180" height="70" as="geometry"/>
                </mxCell>
                <mxCell id="uf1zywIin3J2WrBomRnB-24" value="TELEPHONE" style="rounded=1;whiteSpace=wrap;html=1;fillColor=#d0cee2;strokeColor=#56517e;verticalAlign=middle;align=center;fontStyle=1" parent="1" vertex="1">
                    <mxGeometry x="1720" y="230" width="100" height="50" as="geometry"/>
                </mxCell>
                <mxCell id="uf1zywIin3J2WrBomRnB-25" style="edgeStyle=orthogonalEdgeStyle;rounded=0;orthogonalLoop=1;jettySize=auto;html=1;entryX=0.5;entryY=1;entryDx=0;entryDy=0;" parent="1" source="uf1zywIin3J2WrBomRnB-26" target="uf1zywIin3J2WrBomRnB-24" edge="1">
                    <mxGeometry relative="1" as="geometry"/>
                </mxCell>
                <mxCell id="uf1zywIin3J2WrBomRnB-26" value="FEATUREPHONE" style="rounded=1;whiteSpace=wrap;html=1;fillColor=#d0cee2;strokeColor=#56517e;verticalAlign=middle;align=center;fontStyle=1" parent="1" vertex="1">
                    <mxGeometry x="1720" y="340" width="100" height="50" as="geometry"/>
                </mxCell>
                <mxCell id="uf1zywIin3J2WrBomRnB-27" style="edgeStyle=orthogonalEdgeStyle;rounded=0;orthogonalLoop=1;jettySize=auto;html=1;entryX=0.5;entryY=1;entryDx=0;entryDy=0;" parent="1" source="uf1zywIin3J2WrBomRnB-28" target="uf1zywIin3J2WrBomRnB-26" edge="1">
                    <mxGeometry relative="1" as="geometry"/>
                </mxCell>
                <mxCell id="uf1zywIin3J2WrBomRnB-28" value="Phone3G" style="rounded=1;whiteSpace=wrap;html=1;fillColor=#d0cee2;strokeColor=#56517e;verticalAlign=middle;align=center;fontStyle=1" parent="1" vertex="1">
                    <mxGeometry x="1610" y="450" width="100" height="50" as="geometry"/>
                </mxCell>
                <mxCell id="uf1zywIin3J2WrBomRnB-29" style="edgeStyle=orthogonalEdgeStyle;rounded=0;orthogonalLoop=1;jettySize=auto;html=1;" parent="1" source="uf1zywIin3J2WrBomRnB-30" edge="1">
                    <mxGeometry relative="1" as="geometry">
                        <mxPoint x="1770" y="390" as="targetPoint"/>
                    </mxGeometry>
                </mxCell>
                <mxCell id="uf1zywIin3J2WrBomRnB-30" value="Phone4G" style="rounded=1;whiteSpace=wrap;html=1;fillColor=#d0cee2;strokeColor=#56517e;verticalAlign=middle;align=center;fontStyle=1" parent="1" vertex="1">
                    <mxGeometry x="1830" y="450" width="100" height="50" as="geometry"/>
                </mxCell>
                <mxCell id="uf1zywIin3J2WrBomRnB-31" value="Classes, Abstract classes &amp;amp; Interfaces" style="rounded=1;whiteSpace=wrap;html=1;fillColor=#b0e3e6;strokeColor=#0e8088;fontStyle=1;verticalAlign=middle;" parent="1" vertex="1">
                    <mxGeometry x="840" y="1120" width="180" height="70" as="geometry"/>
                </mxCell>
                <mxCell id="uf1zywIin3J2WrBomRnB-32" value="NetBanking&lt;br&gt;transferAmount()" style="rounded=1;whiteSpace=wrap;html=1;fillColor=#d5e8d4;strokeColor=#82b366;fontStyle=1;" parent="1" vertex="1">
                    <mxGeometry x="340" y="830" width="230" height="40" as="geometry"/>
                </mxCell>
                <mxCell id="uf1zywIin3J2WrBomRnB-33" value="DebitCard&lt;br&gt;witdrawAmount()" style="rounded=1;whiteSpace=wrap;html=1;fillColor=#d5e8d4;strokeColor=#82b366;fontStyle=1;" parent="1" vertex="1">
                    <mxGeometry x="640" y="830" width="230" height="40" as="geometry"/>
                </mxCell>
                <mxCell id="uf1zywIin3J2WrBomRnB-34" value="Account&lt;br&gt;displayAccuontInfo()" style="rounded=1;whiteSpace=wrap;html=1;fillColor=#fff2cc;strokeColor=#d6b656;fontStyle=1;" parent="1" vertex="1">
                    <mxGeometry x="510" y="940" width="230" height="40" as="geometry"/>
                </mxCell>
                <mxCell id="uf1zywIin3J2WrBomRnB-35" style="edgeStyle=orthogonalEdgeStyle;rounded=0;orthogonalLoop=1;jettySize=auto;html=1;" parent="1" source="uf1zywIin3J2WrBomRnB-36" target="uf1zywIin3J2WrBomRnB-34" edge="1">
                    <mxGeometry relative="1" as="geometry"/>
                </mxCell>
                <mxCell id="uf1zywIin3J2WrBomRnB-36" value="SavingsAccount&lt;br&gt;displayAccuontInfo()" style="rounded=1;whiteSpace=wrap;html=1;fillColor=#e1d5e7;strokeColor=#9673a6;fontStyle=1;" parent="1" vertex="1">
                    <mxGeometry x="340" y="1030" width="230" height="40" as="geometry"/>
                </mxCell>
                <mxCell id="uf1zywIin3J2WrBomRnB-37" style="edgeStyle=orthogonalEdgeStyle;rounded=0;orthogonalLoop=1;jettySize=auto;html=1;entryX=0.5;entryY=1;entryDx=0;entryDy=0;" parent="1" source="uf1zywIin3J2WrBomRnB-38" target="uf1zywIin3J2WrBomRnB-34" edge="1">
                    <mxGeometry relative="1" as="geometry"/>
                </mxCell>
                <mxCell id="uf1zywIin3J2WrBomRnB-38" value="CurrentAccount&lt;br&gt;displayAccuontInfo()" style="rounded=1;whiteSpace=wrap;html=1;fillColor=#e1d5e7;strokeColor=#9673a6;fontStyle=1;" parent="1" vertex="1">
                    <mxGeometry x="630" y="1030" width="230" height="40" as="geometry"/>
                </mxCell>
                <mxCell id="uf1zywIin3J2WrBomRnB-39" value="Account account = new SavingsAccount();&#10;&#9;&#9;account.displayAccountInfo();&#10;&#9;&#9;account.displayBankDetails();" style="text;whiteSpace=wrap;html=1;" parent="1" vertex="1">
                    <mxGeometry x="980" y="710" width="250" height="60" as="geometry"/>
                </mxCell>
            </root>
        </mxGraphModel>
    </diagram>
    <diagram id="4KNqrln4P0_OgkNeVLdP" name="packages &amp; access specifiers">
        <mxGraphModel dx="1373" dy="798" grid="1" gridSize="10" guides="1" tooltips="1" connect="1" arrows="1" fold="1" page="1" pageScale="1" pageWidth="850" pageHeight="1100" math="0" shadow="0">
            <root>
                <mxCell id="gKeFRDrYmUeAkFjMkr8--0"/>
                <mxCell id="gKeFRDrYmUeAkFjMkr8--1" parent="gKeFRDrYmUeAkFjMkr8--0"/>
                <mxCell id="gKeFRDrYmUeAkFjMkr8--2" value="packages" style="shape=image;verticalLabelPosition=bottom;labelBackgroundColor=#ffffff;verticalAlign=top;aspect=fixed;imageAspect=0;image=https://media.istockphoto.com/vectors/cardboard-boxes-in-different-colors-vector-id651222590?k=20&amp;m=651222590&amp;s=170667a&amp;w=0&amp;h=miYiEdNAZhtacoIAtt9aAh6XvxxKAe9qBRaipZyY5nI=;" parent="gKeFRDrYmUeAkFjMkr8--1" vertex="1">
                    <mxGeometry x="60" y="30" width="255.24" height="210" as="geometry"/>
                </mxCell>
                <mxCell id="gKeFRDrYmUeAkFjMkr8--5" value="packages inside packages" style="shape=image;verticalLabelPosition=bottom;labelBackgroundColor=#ffffff;verticalAlign=top;aspect=fixed;imageAspect=0;image=data:image/jpeg,/9j/4AAQSkZJRgABAQAAAQABAAD/2wCEAAoHCBYVFRgWFRUYGBgaGBgaGBgZGBoaGhoYGBoaGRoYGBgcIS4lHB4rIRgYJjgmKy8xNTU1GiQ7QDs0Py40NTEBDAwMEA8QHxISHzElJCs0NDQ0NDQ1NDQ0NDQ0NDQ0NDQ0NDY0NDY0NDQ0NDQ0NDQ0NDQ0NDQ0NDQ0NDQ0NDQ0NP/AABEIAOEA4QMBIgACEQEDEQH/xAAbAAABBQEBAAAAAAAAAAAAAAAAAQIDBAYFB//EADwQAAIBAgIGBwUHBAIDAAAAAAABAgMRBCEFEjFRcZEiMkFhgaGxBjNywdETFEJSYpKigrLh8NLxFiNz/8QAGAEBAAMBAAAAAAAAAAAAAAAAAAECAwT/xAAlEQEAAgICAgEEAwEAAAAAAAAAAQIDESExEkEEUWFxkRMigVL/2gAMAwEAAhEDEQA/APZgAAAbF3GykOiA4AAAAAAAAa2A4Blu8cmAoCCgAAAAAAADYu42Uh0dgDgAAAAAAABrYDgGIcmAoAAAMlIc0NjEAjEeAAAAAAACAAgpSxd1nrWW66T/AMlbW8Y2mI3Okldy7Hl3bTm1py2uTS+KyCV+1345+pn9L4+mpuFWi2la04ScWv6f8nFe83njj/XVSmu12rj4QesqnS3p3LeB9pYzvHVbkknfYn62MtLDUJ+7r6j/AC1Vb+ayHYHCzpzcpari11oyjKLz7s+aMovkp03nHjtHPf6a6Wlp3yjG267b/wB8CanppfijKPmvr5HBhG+5eKRIk1tnfuS1vNmlc2X8s5xUaajj6ctklfc3Z8mTykZSNOM3aUlHim78slzNDo+MUujNS7k1ZcEth1Y7zbtzZKRXpcSHABsyAAAAAAADIjxGgGjkgSFAAAAAAAAAAAQAGSqJbWl4kTMR2HlLEOa7ct6XqSSxsV234JjJ41dkZP8Abb1Mr2rMd/ppWsxPSjPWe1vmyPUXbFPxaZK6jb6rS528jn4zS0IZOMr961VzlY4bft1V54LjcTTilGVSVK+xr62fyOTiNDuor06sanfrdJ+vmVtJ4r7dX1UrZbb9+bsjhxTi7ptPesmXrqeVvGYXMXoypDrQklvtdfuWRRnDuOjh9N14ZKd1uklLzefmJidJ66etRp6z/Ek4vi7bTSNo5aLDS6Efhj6BWje2eySeXbbsItGz16cJPLorLhl8i5rvfbgo/QtO1UcIN7Y+N7eQ2NFylaDu+7bzvkMdRObi87b3fd2dm0k+ybV7XMrR4/2leJ3w7+jqdWPWba/VNNrhaPrI6RkKdepDqyku691yeRbp6cnHrJS/i+ezyN6Z661y5rYbb3DSAczCaYpzajnGT7H9UdM3raLRuGMxMTqSgAFkAAAAAAAAAAAAAAAAAgr0tZbbPs3eKOfOm1k1Z+vBnWGTgmrMyyY4tz7aUvNXIcRmr/32lutRce9b/ruIZK23I4bVtWeXTW0WhDKrJJu97K+av57Tkf8AktO7hVptb7JSi/AuYnSFJJrXTbTVo9LO36b2Mhj6d3cmtpntbxhpKf3Or1ZKDfYnqv8Aa8kVsR7Nt5wnGS78vNXTMvYmoYucGnCco278uTyLxEejU/VbxOjKkOtCSW9Zrmsim4HUpe0lddbVku+NnzQzEaZhNdPDwvvTs+aVy0bHS0U//VDh82XXI5ehMRrw1dXV1Xa21Wd2u868MtluS+dy3MwrPCH7NvYn/vePhhp9rtwzJHOX53yj/wAStiZxjbWUpN7L3l2pbHkusilqTbiUxbXSZ1EstbW4dL02E+H0fKpmlFLvkm+Ub+bRVkxupbNZFJitJjcbT/a0cTpoaOi2laVWdvyw6EfK78zoQikklsW9t+b2mWpY6rHZNtbpdL1LlPT0l1op98Xbydzprmp+HPbDf8tAFzm0dM0pbZar3Sy89hfjNNXTTXdmjaLRbqWM1mO4SAAFkAAAAAAAQAIMRrW6L2bVvImdQlOMnUitrS8bHMlKT2t8GyJxOa3yNdQ1rh33K1OtFbKj8byX18yH79v1uKfydiGwxwMLZ7T6bRirC396TXXsu929Sni9FQqZvWu+1Sfle6EcDMY/G1ac24TazzXAReLcStFJrzV0cR7P1E7wmpLc1qvyyb5FDHYKcV0oNd9rrmshaHtXUXXhGXDL/vmdTD+1FKWUlKL4fTJcyYpEdJ8re2UlTGOBuZRw1XpWg3vVk92co+PaUcT7ORlnCbj3NJrus1a3mW67ItEsk4jGjs4rQtWH4dZb4Z+W3yOZOnZ2fiiYmJS6ns3+PjD0Z3IyOH7PZfacY+jOzcttSUjK2Jpa7V5NW3O184tXfGPmTJt7FcfHDSfZbiRM6IQOdmuKJvvEXtS/3gSfcvzckrDZzhDK6T3LOXJZmN92nhpWYiOSOEXsbXFfMinTY+VZ/hg33y6K+vkdPDaKlKMZSnZNJ6sYq+avZyle/JE1w2srbJWvbjxo32uy7ld8svUt4CUIu8JVpS7VCK1XbsklreZ26WiqUfw6z3ybl5PJF2MElZK3A6qYfHmXNfL5cGUJuUU5RcXubTa42yJhAN2IETuNcrj0gFAAABorYja3gQ1qCl3Pu+ZRqU2nZ/7wOohtSmpKzMsmOLR9163mrkuIjRZq0HHvW/6lCtjqcdslfcuk+SOG1JrOpdVbeXSTVMhpON2+L9TuVdOx/BGUv4rx7VyOLXlrXe+7txZWrSIn24k4Zj6KXbv7bNW7bd5NVpjKstbjv3m8Eo5T3dnb23Wzh3FqhpevBWjUdl2PP/JUcRLEomHZpe01VdaMZeTJa3tFCatOk34RfmzgNCWGoRp1tGaQj9o4qGpGdrNO+ayV09m3sO9Ti+7t/Df1dvIyGD95T+OPqbFFoiFbJdeVspW4KPzQRlK6evLL4VfLO9ojUwbJ1X6I5OqwUs53eWUXJ2fe1sfIqxxEFJQTSd2rLLOMYya5SXMm1znUYT+0clBRjr1LvtacaajJJb3F8kNprC+2dLDab1UoyhsSV0+xZbH9TlSkLYpa9qcwnwrfto6Ol6Uvxar3Sy89nmXYVE1dNNdzuY2UBItxd4tp707PyJr8mfcKW+PHqW2GN3MtT0rVj+LWW6Sv57fMv4fT0b9KLXenfy7Dauas/ZjOG0fd3EhSvh8VCa6Mk+7tXFbSwaxO+mUxrsoABIZKCas1dbmV5YRfhbjw2cnkWgImIlMTpz5UJrsjJd3RfJ3TfiiKU0utGUeMXb9yuvM6oGc4olaLzDmLVexp8GmVcRo2nLKUY+GXodDSFCLhJuMW1GTTaWTSbTMRU05Vpv8AMuLvbuvdLkYXxxE6ltS02jcOji/ZtS6tSS7pdJcE1a3mVauiqkVZw1rLbHPy2+RLh/a2LXSg16L+pXb/AGo6WG05Rnsmk91759y63NIy8NdNfO3tla9PN3Vu55MrSgb6cadTJ6ku52bXhtRQxGgacurrQfc7rkyeYTF4ljHAa4GhxHs/OPVcZ/xfJ5eZyq+FnDrwlHisvB9pMSnalKIxxLEoDJRLINwvvKfxx9TXmSw8bVKfxx9TWXLKycmOIriqYCyZG2LdvYOjh5PstxImYgQzkWoV4tJNLYuywiwe98iSNFLYjHJbfTSsaNUYvZdef0Ip0ySpVhHrSSe6+fgtrHUac55wpykvzStCP8s/IitLW6hFrRHcqsqcu7m/oPp4dfilLhGKfKTl8jqUtCzfWnGPdFaz/dK3oW6WhaS62tP45XX7VZeRvTDb3plbNHpx6DoRktVVJzWaWtmnwgaPCV5SV5QcNybV3327PElpUoxVoxUVuSSXkSHTWvi5rW2UAAuqAAAAAACtj/dz+CXozzjHwvmej473c/gl6M87xGZy5+4dXx/bjziR2LNWBHYybn0cTOHVm13XuuTyOjQ0/Wjtaa5PdkuquRyhGWhExEtfh/aem101KL4Zdux3z8bbdhdpaYoTyU1waMFYRxRHjEq+Lc18Dh555Rb7YNR8tnkc3E6ESzhUT3KSfqr35GchUlDqylHhJoe8fVt7yfMeP0k5Xfus41IXV7Ti7pp5X2tLNeJ3nNb0uLS9fExsKk4zU9eWsndtybvxv4Gzw0tZRk9rim/HMtWJLHQjBvrx8Lvz2EydJK/Sl/TN+SQlxSZrv2rs54uC2RnwUJfQSeK3QnLwS5uTQgORH8dU+Uo5Vaj/ACQ5zfyS8xjpX685y7r6q5Rt53G6QrunCU1FyaStFK922l8yPDVpynVUllGaUN9vs4PPxbfiIrEdQcynjBLqxS4I0ehfdLjL1M5c0mh/dLjL+5muPtll6XwADdzgAAAAAAAAAAbGVxspDooCHG+7n8MvRnnk8z0XE9SXwv0Z541kcufuHT8f2oVoFZwOhWgQSgYw6FWSEcSZwHQp7Mrt7F82XglVsKi1UhKL6SWfD1IJwt8gqisJYkaG2AiqbDZ4PqQ+CPojG1dhscJ1IfBH0RaFZWLjiJMeido0USMh6yGNiSFPSjm6cvs0pT6Oqns6yvfwuJhqc4yqOTTU560UuxKMYJPwgn4lmQ1yI2krZpdC+5j4/wBzMrJmq0L7mHB+rNMXbLN06AAMbubuc8Bltw5MBQAAAjbuPaESAEhwABDiOpLg/Q89isj0Ot1ZcH6Hn0Vkc2fuHTg9opRIZQLUkRyiYOhUcRyumpLsy/w/AlcBurYmA6ck0pTS7dWPq2Up3f07FwLEkRuBbasQgaGNFiUSNxCVWusjYYR9CHwR9EZPEromrwvUh8MfREwrKa4sZDJMHK5O0JFIbJjdYRsbCyYxiNjbgJJmu0R7mHwmPbNlor3NP4I+hpi7Z5+oXBkR4jRu5jRyQJCgAAAAAAAAAAMnsfBnn0FkehT2M8/isjnz+nR8f2bJDXElSGSRg6UTRG0WJIZKIEEkMlEmcRjQEElzI5IsOJHKNyYQp4jqs1GGfQh8MfRGaxK6LNJQ6sfhj6FoRKTWBjWxbkqi4lxGxLlUlkNkDEYTEGG10Z7mn/8AOH9qMW2bbR/u4fBH0Rti7ljn6hZAAN3MAAAAAAAAAAAAAGyMDaxv2YFnPm9Oj4/sjYCNi3MHQa0MaHsawI2iNolY1gQyI5IsSIpEipi84veaCk+jH4V6Iz+LXRZ36XVjwXoWhElQoMbclU5sRsLjWyq0QSUhLgxGEhu5ucGuhD4Y+iMJLYb3D9WPBehth9ufP1CUAA3c4AAAAAAAAGtgOAZqjkwAo4rRlOe2Nnvjk/o/EviETET2mJmOmZxXs/JZwkpLc8nz2PyOPXw8oO0ouPFej7TfDZwTVmk1uauuRlbFE9cNa5rR3y89bEua3FaApTzjeD/Ts/a/lY4uM0FWhdxSmv05P9r+VzK2O0Nq5ay5bGEzhq31k012PJrns7eNiCcru5SWkTsMjkh9xGyEqeLXRZ3IbFwXocfEros7EFkuC9C0IkrYjYNipZpLaWR0RsZcfNOO0hlJLNvLbd5ESmDxrLOGwNSp1YSa/NLox4pvrLhc6+G9nFk6k2/0xyXDWeb8LFopaWdsla+2eV21FK7exLNvuSN/TVkl3EWHwcKa6EVHvSzfF7WWDelfFz5L+RQAbKVi7MknzHIjSuSgAAAANHCNAIKkCQoAAAAAAAIMcrj2hEgIa+FhNWnFSXer8txxcV7MQedOTg9z6UfqubNCBWa1nuFq2tXqWDxeh69PbHWX5o9Ly2rkc256cU8Zo2lV68E3v2P9yzMZw/SW1c//AFDznELos6kH0VwR1Mf7KXT+ynbul/yX0H0vZ2btrTjFfpTk+bslyZWMdutNP5a67caTJMNCc3elGU+y6XRyVs5O0fM1GG0FQjZuGu983rfx6q8EdK3YaVxfWWVs/wBIZ3DaCnLOrKMf0x6VlxeSfgzqYXRNKm7qCcvzSzlfub2eFi+kKaRWI6ZWvae5AoAWVAAADZSsNWY6SuKkAJCgAAAAAAAAAAAAAAAAAAAAAAAAAgoAAAAAAAAAIKAAAAAAAAAAAAAAAAAAf//Z;" parent="gKeFRDrYmUeAkFjMkr8--1" vertex="1">
                    <mxGeometry x="370" y="15" width="225" height="225" as="geometry"/>
                </mxCell>
                <mxCell id="gKeFRDrYmUeAkFjMkr8--6" value="system defined packages" style="shape=image;verticalLabelPosition=bottom;labelBackgroundColor=#ffffff;verticalAlign=top;aspect=fixed;imageAspect=0;image=data:image/jpeg,/9j/4AAQSkZJRgABAQAAAQABAAD/2wCEAAkGBxAQEBAQDxASEA8SDw8QEBAQFQ8VDw8PFRUWFxUVFRUYHSggGBolHRUVITEhJSkrLi4uFx8zODMtNygtLisBCgoKDg0OFxAQFysdHR0tLSstLSstLS0tLS0rLS0tLS0tLS0tLS0tLS0tKy0rLS0tLS0tLS0tLS0tLS0tLS0tLf/AABEIANcA6gMBEQACEQEDEQH/xAAbAAEAAQUBAAAAAAAAAAAAAAAAAQIDBQYHBP/EAD8QAAIBAgEHCAULBAMAAAAAAAABAgMRBAUGEiExQVEHMmFxkaGxwRMiQlKBFCMkM2JygpKiwtFDY7LhU4Pw/8QAGgEBAAIDAQAAAAAAAAAAAAAAAAEEAgMFBv/EACwRAQACAgEDAwMDBQEBAAAAAAABAgMRBAUhMRIyQRMiYSNRcTNCUoGRQxT/2gAMAwEAAhEDEQA/AO4gAAAAAAAAAAAAAAAAAAAAAAAAAAAAAAAAAAAAAAAAAAAAAAAAi4C4EOVtpEzEeU6eLE5Yw9Pn1oLovd9iNds1I8y3U42W/issXiM8cNHmqdTqVl3mi3Nxwt06Vnt57LeTs8KdSejUj6KL5sm7q/Tq1EY+ZW06nsyz9KyY6+qO7ZYyurp3T2PcXInbmTGuyolAAAAAAAAAAAAAAAAAARcBcBcBcA5EbTp48TlbD0+fWpp8NJX7NprtmpXzLbTj5b+KyxWJzvw0ebp1H9mNl2uxotzMceJXKdLz28xpi8RntJ/V0Uumbb7kaLc+f7YXMfRv87MXic58XP8AqKC4QS8WV7czJb8LuPpWCvnuxmIxlSf1lSc+tyaNFstp8yt042KnisLNjXtvisASEmmYyLnBVw9o8+nvg933XuLWDk2x9vMOXy+n0y7mO0t8yXlaliI3py174vVKPWjrYs1ckdnnM/HvhnVoe65taC4EgAAAAAAAAAAABFwFwPLico0af1lWEetq5rtkrXzLbTDkv7YmWKxGduFjslKb+zF+LNFuZjj5W6dM5FvjTF4jPd/06PxnLyRXt1D9oXKdFn+6zGYnOvFT2SjBfYivF3NFubknx2XcfScNfPdi8RlCtU59WcuuTt2bDRbPe3mV3HxMVPbWHmNcy3xWI8Qm5G06RcjsnRcGgGgkSQBKNIGxew2JnTkpU5OMlsa1GdLzWdx2asuGuSNWhuuQ8641LQr+pPYp+xLr4M6uDlxbtZ5zl9Mvj3bH3hs8XvLsS5OlRIAAAAAAAAAAEMDTs/s4a2DdBUmoxqek0pWTcdHRtt3ayly8t6RHpdPpvGx5rT9T4apVyxXra51pyT3X9XsWo5NuRe3mXosfBw09tYedM1b2sxSILjbKIiAbNA2aBs0BINoAkCEgLgLkgAuEBIJjekTXbO5DzkqYe0JevS917Y/dfkXMHLtTtbvDlczptcv3V7S3vJ+UKVeOlSkpcV7SfSjrUy1vG4l5vNgvitq8aew2NQAAAAAAAAAAc85V43+S/wDd+wpcuPDq9MnvZoGHrum97hw3x6ujoOVkxfMPR4cvxLMU6ikk07p7GV/lZXLgAASBASJAAAAAASAC4QEgAJRK/g8ZUpSU6cnGS4efFGymSaTuFfPx6ZY9No23jIWdMKtoVrU6mxP2J/wzq4OXW/a3aXm+X02+L7q94bImXXMSgJAAAAAAAYGg8qi9XDPpq+ESnyvEOp0z3S540UHagoVnSd1rg9seHSjRkx77rOLLrtLL0asZJOLunvK60rABIAAkIAAAkSAAAABIggCUaBs0XJiUTWJ8tgyFnNUoWhUvUpbLe1BdD8i/g5k17WcfmdLrk707S3zA46nWip05KSfanwa3HVpkraNxLzmXFbHb02jUvTcza0gAAAABDA0blSXzeG+/U8EVOVH2xLpdNn75c6aKDuQixiKKVSVJtx1xfOj5rpNN6b7wsYssx2ll8PXjNKUXdPuK3jyuefC6SAAAAAkAACABcJLkoLhKLkILkpLgNIjZpS5j1Qn0r2DyvOhLTpzcWtvBrpW82Y+Vak9lfPwqZo1aHSM1st/LaTno6MoT9HLg5WTuvzHd42f61fU8jzuJ/wDNk9O97ZssqQAAAAIYGrZ/5LqV6EZUlpOlJzcVznFqz0eL6CvyKzavZc4WaMd+/wAuVs5k9noIncbQGSmRCVuE5U3pQ+Md0v8AZqvSJb8eWa9vhl8LiY1FePxT2xfBlaY1K3ExK+EhIEAAAAAAABcbEXI2KXNEeqGUQtyxCW8xm7KKStSxXAxm8sop+63KvLqI3KfTC023tY0b/ClImIRMun8mVO2Em/exE32RivI9B06NYv8Abx3Wp3yP9NvOg5AAAAAABgcv5RMk06NWFSmtH0ym5xXN0421rhe5zuVSIncfLtdPzWtE1t8NRKkuqpkBQ0QKFpRalB2lv4SXBmF6bbseSayyuDxiqLhJamnuZVmJrOlys+rvD1BIAAALkCLjaVLkRs1KiVdLeY+pMVlaniluuzGbM4otSryfQRuZZemFtyb2u5GkoJ0bLEoAICBmUIl1bk7hbAwfvVKj/VbyPQ8GNYo/LxXVZ3ybfhs5dc0AAAAAABoPKmtWGfTVXdEpcrxDqdN82hz65Ql2oQyEqSEqWBbkmnpRdpLYyLViYZ0vNZZLA49T1PVNbV5roKlqzVeraLR2e1SI2nQ5EepOluddLeY+tlFZWZYrhrMfWy9C1LES6iNyy9MKHJva7jSUWGgsBNiRFghLAWCEMASgMoRLruY0LYDD9MZPtk2ej4cfo1eH6lO+Tf8Alny0ogAAAAAANE5VF83hn/cmv0lPl+2HT6b75hzls5zuIbAEJQBDAtTjrutTWxkWiJbKXmvhko15NLYtSOdae7p0jcbW5Tb3mLJA0nYToSShAEhJYIAAAlAEDGjaGZRCN6V0KMqjtTjKb4QTb7jZTHa09oaMmelI7y7JmxQlTweGhNOMo0YKUXtUra0z0fHrNcdYl4jl3i+a1o8bZU3K4AAAAAADRuVZfMYd/wB5r9DKfL9rpdN/qT/DmpzneSBberq8AjwruQy8oAomEw9dNequpHOt5l1qe2EsxZABkgEAAAgJsAQR4GZRWZYzaFmWJgt9+iOvwNkY5YTliFt4pvmx+Mn5Iy9FYa/qWnwhRqS1OVr7oq3ftMo9PiGF/V6ZmZd7wFCMKcIxiopQjqSS3HoqViIh4fJaZtO3oNjWqAAAAAAAA0nlVX0Wi+GIXfCZU5ftdHpv9Wf4cwTOY76UBIFtq2zWt6/gnyjwqUk9a2ETGmUTtRMiUw9dLmx6kc+3mXVp7YVEMxkICQANASTEI3ELU68Ftkupa33GUY5lrnJELbxd+bFvr1Iz+nHyw+rvwpc6j3qK6Fr7WT9kfCPvk+S35zcut3H1D6a7GgkY+uWcU0rjEx2y1D0YKGlUpx4zgu1o2Ye94hp5M6xWn8O5wVkl0I9RXw8DPlUSgAAAAAAAA0zlUj9Cg+GIp/4zKvK9rodNn9X/AE5WjlvQKkyBNwkJFipFxelHX70ePSukyjv5YTEx3hOmmk1rRhMabKzEvbSXqx6l4FC3mXVp7YVGLIuI7o3pROrFbWl49hnFJlhN4j5Wni17KcvhZd5l9P8AeWH1f2U+lqPYlHvZlqsMd3lHoJS50m/DsHrj4PRM+V2GGSMZvLOMcQuKmjH1M/SqsY7TpIFJKEoDIZAp6WJoL+9T/wAkzfxo3kj+VPnTrBafw7Uj00PCpJAAAAAAAADUOVBfQOqvSfe15lXl+xe6f/WckTOW9EqTISquEpJNDA81Wi09KPxjufT1k7YxGp29SxSVo629FakinOKfK/XPHaIQ683zYpdetkarDKbWnwj0U5c6T6lqXcJvEeD0WnyrhhUtxjORlGKF2NNIx9TP0wqSI2aVIJEAISkkQEIJAlDN5nw0sbQX279kWWuHH6sOb1S2uNZ19HooeLSSAAAAAAAAGqcpkb5OqdFSi/1orcqPsXODP60OPJnLl6OJVJmLJUmGWkpgSACJgwyvOfRGn4yNGXxCzgiNy9aRVXYhISgISAABAgASklBYCCQCGx5g0742n0RqPut5l/gRvLDj9ZnWB1ZHeh5FJIAAAAAAAAYLPTAVMRgq9KktKo1GUY+84yUrLpdjTmrNqzEN/GvFMsWlwxys2nqabTT1NNbU1uZyLRp6esxMbhUpGMs1cZBnCpMhKUxtCbknwqwnPn92n+4r5vELPHjvL2FZdQACAIAaAaEAAkAiRAQEobdyb074qT92jLvlE6XTY++ZcLrk/p1j8ulnbh5ZJIAAAAAAAAQ0BzflJzRctLG4aN5LXiKcU7zX/JFLet/FayjycG/uh1eBy/TPov4+HM4TOfLuRqV2MjFsVqRCVaYQm5J8LmB58+qn5mjP4hZ4/mXsK0LkqQhAQlASEgAISAAEgEBI3fkyh85XlwhBdrf8HW6bHeZeb67b2w6CjsPOJAAAAAAAAAAKWiByDlFzR+TSeKw8fo85XqQX9Cb3pe4+59ZzuTg9P3Q7nA5nq/Tt5aVGRRdiF1SIZLiYFRJ8L2B51Tqh5mjN7YWMHmXrKy3KEAQEgEAAAAgJACQFh8sXQeTKn6leX2oR7FfzO302Ptl5frk/fWPw3dHUcFIAAAAAAAAABFgLeIoRnGUJxUoSi4yi9alFqzTImN9kxMxO4cQz4zWlk+tpQTlhakn6KWt+jl/xyfg966jlcjBNJ38PRcLlxlrqfdDXoSKcul8L0WGSu5KPhewHOqfg8zTm8Qs8fzL2FZbQECCUoAEAEASgkCNARpJIXMohhMxp0rk2ptYapJrnVnbpSjFHd4FZik7eR6xki+aNfs25HQchIAAAAAAAAAAAhgeTKmTqWJozoVoqdOas13prg09aZjekWjUs8d7UtFq/DhGc2QKuArulUvKDvKjV3VIeUlsaOPmwzjtp6ficqM1d/LwQZXXF6JJ8L+A51T8HgzTm8Qs8fzL1FZbSEFgkQAIQACUgQTrbGbRD3YDJOIr/AFNGc171rQ/M7LvLGPjZL+IUs/UMGL3WbPk7k+qys69WNNb401pS/M9S7y/i6b83lyM/XPjHX/raMnZo4OhZqkqkl7VX138E9S+CL2PiY6eIcjN1DPl821/DNxgkrJJLo2FmI14UpmZ7yqRIkAAAAAAAAAAAAIYGJzkyHSx1CVGqumE1bSp1N0l/7WasmOMldS3YM1sVvVVw3KuS6uDryoV1acdjV9GpDdOL4P8A0cfLjmltS9Tx89ctItC3BmtvX8Btqfg8Gac/iFnj+ZewrLYAuBAQkJQyfTMsZtEMhk/IuJr/AFVCbXvtONP80tTLGPiZL+IUc3UcGL3W7tnydyfVHZ4isoLfGktJ/meruL+Ppv8AnLkZuuz/AOdf+tnydmpg6FnGkpyXt1PXl36l8DoY+Ljp4q5GbnZ8vuszcYpbDfpT3MqiQAAAAAAAAAAAAAAAAAAGv535s08fR0XaNaF3Rq74y3p8Yu2tGnNijJXXytcXk2wX38T5cVxGGqUak6NaLhUg9GUX4p709tzjXrNLal6fHki9YtE9lzJ711OuHgV83iF7j+Zey5WWkAQ3YREyibQyeT8g4rEW9FRk4v25erDtlt+Bax8PLfxChn6lx8XmzZ8ncnsnZ4isl9ikrv8AM/4L+PpkR7pcjP1209scf9bRk7NjB0LOFGMpL26nryvxTez4F/HxsdPFXIzc7Nl91mZSsb4hUmUkgAAAAAAAAAAAAAAAAAAAAABFgNWz3zVjjYadNKOKpp6EtiqR9yXRwe7tK3IwfUjt5XeHy5w21PtlyTC05QlVhOLjOM4xlGWqSklsaOJmpbtGnrePlrr1b7M/k7N3F17ejoTUffqLQh169vwRGPhZL+IYZuqYMX925/DZsncnj1PE1vwUl+6X8F/F02I90uRn67ee2Orasm5t4TD2dOjHS9+XrT7Xs+Bfpx8dPEOTm5mbL7rMrY3RGlUsSFgJAAAAAAAAAAAAAAAAAAAAAAAAAEWA8iyZQ9JKt6Gn6aVr1NGOm7al61rmHorvemf1L61vs9djLTDZYkSAAAAAAAAAAAAAAAAAAAAAAAAAAAAAAAAAAAAAAAAAAAAAAAAAAAAAP//Z;" parent="gKeFRDrYmUeAkFjMkr8--1" vertex="1">
                    <mxGeometry x="30" y="310" width="234" height="215" as="geometry"/>
                </mxCell>
                <mxCell id="gKeFRDrYmUeAkFjMkr8--7" value="user defined packages" style="shape=image;verticalLabelPosition=bottom;labelBackgroundColor=#ffffff;verticalAlign=top;aspect=fixed;imageAspect=0;image=data:image/jpeg,/9j/4AAQSkZJRgABAQAAAQABAAD/2wCEAAkGBxISEhUSEhISFRUQFRUVFRYXFRUVFRYWFhUXFxUVFRUYHSggGBolGxUVITEhJSkrLi4uFx8zODMsNygtLisBCgoKDg0OGhAQGi0lHSUuLS0tLS0tLS0tLS0tLS0tLS0tLS0rLS0tLS0tLS0tLS0tLS0tLS0tLS0tLS0tLS0tLf/AABEIAKgBLAMBIgACEQEDEQH/xAAcAAABBQEBAQAAAAAAAAAAAAADAAIEBQYBBwj/xABGEAACAQIDBAYGCAQEBAcAAAABAgMAEQQSIQUxQWEGEyJRcZEzgaGxweEUFSMyQmJy0QckUpJzgqLwNFOywxY2Q2N0wvH/xAAbAQABBQEBAAAAAAAAAAAAAAADAAECBAUGB//EADoRAAEDAQUFBAgFBAMAAAAAAAEAAhEDBBIhMUEFE1FhcSKB0fAUMlKRobHB4QYjM7LxFSRCcjRigv/aAAwDAQACEQMRAD8A9N21tqWKUomSwAOoJOo8ahDpJP8Ak/tP70PpQP5g/pX3VXKKsNaIGCzalV4eQDqrgdIZ/wAn9p/enjpBN+X+0/vVOooiipXG8EPfVPaKtht6b8v9p/enDbk35fI/vVWBRFFK43gm39T2irMbal/L5fOnDbEvLy+dVyingU9xvBNv6ntFWA2vLy8vnTjtaTl5fOoCis70+xjR4bKuhmbKT+W1z57qHUuMYXEZKTKlVzg0OOK2Y2rJy8vnThtOTl5fOvHNm9JZ4AMr5h/Q3aH7j1VuejvSZMSQhQpJYm29WtvynffjYiq9G10amEQfOv8ACNUZXYJvEhaobSk5eXzrv1lJy8vnUammrlxvBV99U9oqX9ZPy8vnS+spOXl86iU61PcbwUd/V9oqR9ZScvL50jtKTl5fOo4WuMtK4zglv6vtFSPrSTl5fOl9aScvL51DNK1K43glv6ntFTPrSTl5fOl9aScvL51Ey13JT7tvBL0ip7RUr60k5eXzpfWknLy+dRurrmSm3beCW/qe0VK+tJOXl8679ZycvL51EyVQ9Mtv/QYQ4XM7tkS/3RpcluQHCmcGNBJCJRdXrVBTYSScAtT9ZycvL51w7Tk5eXzryjZ38UCNJ4R4rp/pP71r9ldLsJiPuSWP9J0Plv8AXuoTKlF+Su2jZ+0KAlwJHEYrTnaknLy+dMO1ZeXl86jRMrC6sGHeCCPZXSlGuN4LP39UYFxRjteX8vl86Ydszfl8vnQWSgslNdbwT7+p7RUo7bm/L/af3oZ29N+X+0/vUdkoZSmut4Jb+p7RUk9IJ/y/2n964ekU/wCT+0/vUNo6CyUrreCcV6ntFTz0kn/9v+0/vWk2ZO0kSO1rsLm27eaxJStpsT0Efh8TQ6gAGCtWV7nOIJWa6Tf8Qf0r7qrlqx6Tf8Qf0r7qrlFEZ6oVWsfzHdU9aKtMVadJJl1sbd/dSe8MaXOyCg1pcYCKop61FXFDl53rn0s8LVQftayt/wAp6A+CsCx1Tp8Qp4oi1HjufxeVqbIWX8V6A/bVFokNcR3eKINn1DqPj4KetY3+JDXEK95c/wDSPjWgXFPwUG3M1l+lkbyFGy6LmvbUC5H7VVrbXbWpljWHHUlHpWI03Bxd8CshLhStjrY8eF/GrbZU7Ryxuv3ldLediPAgkeutlsmKI4dI3QMGBJBAO8++sbs8XxCKNB1gtx0z6eys9rzvLmoI89yvXcF6q0g79N/qoa4pSbDX2VGsB98cdO61OMakdlT47qsv23XJNwNHvlVhs6lzU9daIFqrRWX7wNvGpseLXdr8au2XbTH9msLp4/bRVq2zyMaePJSgKYwpym9I1tNcCJGSznNjA5oJSnBKfSqd5QhMy061drpNMnhctXCK5Q5cSiAlnVQN5JAApJwJyT7Vgf4w/wDDQ/4v/batb/4gwxJCzIxAJsGG4b9TpXmn8S+kqYmKNERlyyFrkrqMpG5Sbb6DXcN24clpbLpu9LpujCfovPs1Ejcjdwq26I7OGIkcMtwqEgdrViyqv3dePCi7d2MkbN1Ul1SwP3s1+OUlRpfvrLNJxbIXbi2021RTcYJiO/RS+j/SmaF1zO2S4ufxAd9+PfY3vXt0EwdVYEdoA+fzB8q+b0+NeoYraLRx4aFd8UKZjYk33rqGvuPdxo1mrVIIGOWZ+vyWZt+xUS1j8jjl4L0FhTGWso3SWaFYxIoYsMxBV1IUns62IvoT5Vc4bb8DqpZghkFwracbbzzrRY4uEwR55LkKlEsMZ9FOZaGwouYHdTSKkhIDLQWWpDCmFaZOoxWtfsYfYp4H3msqwrV7J9Cnh8TQn5K3ZPXPRZvpIPtz+lfdVcKs+kfpz+lfdVcoozPVCr1v1HdUpHyqzb8oJt4C9UkvSRimaKJXFrkF7EeK5avZEupHeCPMV5WJyF0NmGlVbXUeyLhjyESg1jpvBa7YfSdZGySoIyx7BBup5XPGtTG9/wAN/GvK+sSQWZQrnj+B/wBQ4HmK0uwtuyRWhnzZQNCxzFR3k/jT8w1HHvrmK9PEubhxHh9u4aLXpuwha3qWGpGlSA0fdT8OjMoOYAEaW108a79DI1B3a1mlhGLRI5gI4USeC+qBvbQFj/rv7bVaxTsTawJp8uEZt9tOGtRMHtU5PKMFIDiqHE4a2sRKniurK3O34W5j13qo2Ts1lxUZZSMt2JI4AaHzIrZRgx6FRrR1Icejv8PXwotKuL3awPCDOHz8AkW4JvUo29ifWBQX7H3G9VFOGYalT6vlUxALfdt4igtl2Bhp44ypGAocN3Gr25C1OOEy6hrW76JPhwd1h3//AIKNhMGtjfWiMN51zAnjJTaSoceIa4GmvfU9Qba12XCxgE5d3P8AagRE7lHv+NXrPba1jfdm9On2+oQKtmZXGI70Y1Ex20YofSSRpfdmYC9TMvfvryj+LM381GAd0S+1nrrH17tEVIzjDqs3Z9gFptW4cYzxHL7wtEnTB3lMa/R1VdS2ds2UbyAyi/lVfNt7FSyFY2aMMdLSQ2UDeSSBwF685TEtaxOnLUeXDxWxq3wO3nRCvZIawLZUfsjgGZSQPHuHaql6c88Pj4rqh+G6DG9qeoj4gtJ92C0G08bLIyxqZXC9lewGLnixyPreoe2MUIwIFawU3kbLOuaTcRbUZRoB6zUjZ20IljMgeN5HFlDIVKLvMv2Z52BHPup2zWVby3QiMiwEkkZZzqoGbusSfDnU2WzEBzZ7/AKZ/DrC1z6VQxkOzmeA7TdcPfwVTjperTqs4LyANJ9oNBvWOzpcHUE+ocKgY7ZoEALavNqlupbKg/FowILHTwU1p8BGZ5CZBIyqC8jCVHbKNdzDUk2HrFRcXhfpM1ymrEAXw66LuUXU7gLDwFT9MpkYtMeeJCj/AECrTeblVsgcxHuvaT5KqejsLYWGWUhyZrRoDG4vbVmDK3C/fvqBtGa8R1A1XT7W/edGNja1XWPw2GZgidVlj7CkdclxcksRe1yxY+uibe2QiomGBJyXZ8k6kF2tfRjcZQAPOkbRRLCxsjun5SpDZNsbWp1KgBOecHD/AGDVjsFHmZV73A8zat6+A67FmNQxAIS4jiksqAKSRe9gFqFhdgJh1ikdJs2cSXKdnq7jLqNN4JqfhUHVzSk4eR5CY1zI0bdvWQ3jsL5T3/i81YnMpl0uE4ecYS2xQr2hlO4wkCZjHGY/xvcNFGxr9bMSAEzsFQGOSOy/dQWUncLCj7UxF5MqMCsYCLlmNrKLXGfvN6JsLDsrNKElAhQteGYHtbl7OpOpva/Cg7MhEk6K7nVrv1sKtdR2mudTuBrXBBxGIHnRcs+k5puuEHmIPxVziNoTQGONes7CLmGVXBZu0QSvjb1VdYbbkZCCQ5GcXsQQN5HHdurJS4OSeZmSJHLsT9mzKd99Ax+FS8f6XL1jqEsgBYSfdFuHMVG5oqtRoMlbUEHUag0mFUpxD4d44MysLC9lABLMdx5bvVV4aruGRQXNumEFhWm2T6FPD4ms0wrT7J9Cnh8TQn5KzZPXPRZzpF6c/pX3VXqasOkXpz+lfdVepo7PVCrVh+Y7qig15XjsNlZvysw8mIr1Na8720tppl7nY+evxqpbR2R50RLPmVXTpuPcRUmSchQN4uCNbEc1O8GohkuoFE6o3APqrGqHNXmmFtOiW0bjIH3WJG61za/da5F7d+gG6tzHs1iO0x8L15lsOMKXI/5Z9hH716xBOLC5tpWZUp021LrtRxwVxjiWyob7Nyi4bd50RDbeb+q1ExM4OgrmHI31VIBq3aRgao4BiShyKDvHnepGDsAQABr3UpWBBqLGSTpUHTRqh2c+9PdvNVhNJYGocMeY8hSkibeda7h5QLg8aT37ys0VBA5pBsNwRJoRbThUNMTlp2Pxyqp1HjwFUf1vGpJN2tusNPbU3UnPqjcDLMjIdTl5Cs0KD3tOBKuJsUW5Ci4RuyfGs7iekObRYm/VppQsLippGshI77cB66sssdZlTePIIjM+AlWPQX3ZdDeq1t68a/idLmxrDuRF9hPxr13BE5BfeLg+okV4t0/kzbQm5EDyVa6Wuf7Vn/n5LP8Aw9SnaLzwDv3BZ8CuAUQCkRWXK9DuLmYXuRre+Zey1+/x57+dXcW3JWVI2YMi3ytZWcE7yVYdrhx4capCKbUw8xGiA6zsv347XHCe+QQe8E8CFu5sRGIVRTh5DKc8jZXUi1skfZsO8nxGulLZ8PVxPMIzmZjHGY51DAle2QozHQWH+aovRdF6vtqrFjmu4ucubKAW7rh/ZWg2ph43IbCR/ZC0YXLeRWJJ13mzE6G/LS1EBBnl4SqbbUC51LE9rtE4AnhgRE5CZwETOCrdixFpc7mb7EdYVaPrFJBAAIJ3FiBu76bBsmfEyk5YZHYliPRHU3Y5Rl77m1W8m0VEQwjm6BszSZiSsh4KOKDcRxNyOFR8RHJg2yg5JWAOZTuQ7srDvtc8rDvqV0RGiQrvvktgOPq6iBjOEHmcZiM8Jh4iCN5uxmQAqqCMsxAWyiwYA3IF7X3k1abdi6oRw9aZkQXDkIylixzWJDbtFtf8NEMKtEZ0FpyCTGLCyWOadV4X7uGpGlrC2TikiUmUZlf7i2BKuNOtW/8ATu5+qnAjv93ghl5IBEkNwunEzyPIa5HHKAU76PEYurjRROCGkXU3UZrKoJPbANyLe0WpYfGnDoY3uevWzL90xoQdV7nIN/C3fQo8K0BGIbUAhom4OwN1YcSBvPlvozp9JV8S1s0esi7usPAp3afe7gL8am0kGW5oT2te0teb1M555zlnMfFp7JwBAgzwPhcsoa7SDNCw4Ifx8jra3DXlUoIrRHE6ddqcmmovZpwP9668KDs6ZZCfpJPVA303q34Qnde1rdw5ChDOs3WtoIyCCPulfwoneCNPC/OtuhaBVbJz8/BcftDZj7K8tzbofOo+UcVM6OyKCBKM2ZvshxDX1bw958K1pFZ3Z2H6+YYhAFVSMybshAsAo4g7/OtGVpqpBMrFewtwKC1aTZnok8PiazzCtDsz0SeHxNAfkjWX1j0Wc6R+nP6V91VytU7pMftz+lfdVUXo7PVCq1v1HdVKBrCdJ4P5iQ/pP+kVr+u51lukTjr/ANSD2Eiq1sE0+9ToYOVOydgHutR59wPMVGSbslfKia2AO7hWI8hXgrvZUgIfnGfeK9OwceZQeFh7hXluyYMrNzQj15lrbja8qoq5QvZXvN9N4qjVob6sAdB4rTslF1QQ1XeLiCi4O6qLEbdEZyKAS26/CoGP2lKwN3NvKsph5icTqfw/Gm9ADKrXzhwW/Y9mXmk1DMCVuW2rKRqEtyvVnsjaaMcrdljuvuPgaoVOlDG+r9Sx0iQ6MePnBQfZqb2lsR0W4lkABuRuqlxeNRQTmHgNSeVT+jthdcouRcnf6j3eFUnSrDhXNrXv7xcXodTZTHw57jhoBCzbK1jqxpmeqpMRO0huTYcBXEjFJRTxVunTa0ANEALoMhAyXJASLDedBWi2ThxHHYbye0edZyRrC44WtVhgceW7INmPDgfCqduNRpBAlusZzp3Kpa2PNPDLVX+Dk7H+Z/8AqNeJ9Mmvj8R/iN7NK9fwctkF9/av/ca8c6UtfGz/AOI/vNalo/47O75LM/Dg/v6p5H9wVcBXaQrtZa9AATSKYRT64PjTyoELY7BhJQKNWyIAObMSPYwq6wGIfBfaEWlYEKrAiyE6sy6HUiwHInuvB2CLW03HC/8Ab09tazb+DjxJzmRUkUaneGUcLf1d3to1AS55GYMe5cnRrtNWoyoJY4knAnXLpx+6oJsCBEcWn3A2XIdWWS17HSxQaWPG4B40zZWKSS4xTN1Y1D6lg5P3A1iSp1JHC19OMaZ5UbMCqqBlyE3BTijAaEHjz1qTgTDPfJHljU9kE3Ov3iSb3JI8rUZoxjz/AAtZ7SGEuM/9gRLeU8eeM4k5YsiLrLnY2KENcaC34QhGhBFgOFuVWUkAxd50AQILyoNBGoH3oxxBsdO/kaNNCpiWE/djYsu+9ze+vdrRNlbNmOkByqNWJN82+wYWsRbS3M99EFM5KpUrtjeSGkYA6R8c9OBjnMCHFiUiGQ5YVvlP/JA0zX434jiT4VDeCQSdg5ViPYbdcf1Dvvv9lXeL2cqEjLa5vbh6r8Kj2qW74qVOsM6eXD5nqdZz7ygTwhrdlVA/CoNrnedeJp/UgqFYkquoUnsi++wolqbigcpA3mw9tSyQSZhqmbDJEuRRlVAcwtYXtYXq/aqvo9KCCtgWUAM/f3L4DdVqwq5TILZC4val4Wgh3kae8QY5oD1odm+iTw+JrPuK0GzfRJ4fE078lVs3rnosl0sktiD+lfdVE89WvTQ/zLfpT3VnJGozPVCq1v1HdV2fGWqg2rJ1jjkD7/nU3FKaop5SHF6DaRNMqVH1lIiQFD3i9SWF0B7rVCinALdx99Hhc5bcDWFUwV9qvtlNc+I+IPwrd4PCiWGMEXHVpr3dkbq8+2NGVkW+4g+dq9N2EfsIv8NfdWdaGl1Rs4efur1ncWiQsztvZjRa/eXvHx7qxcGmJ9XxFb/pHjc/YX7o38z+1YMLbEr4H31odotaXcV2uy3vdSdfzgrXx/dpqmxvT4x2albIhvIGtomvr4f75UevUFNhecgqDnBrSSrvC49T9p1EocgZiosptbiSO4aGqTpE0jsZDHlFxuF7DgWrRSsx3imZAysp41nf1V76gYAAOcysmjUbSffDfiThy/hYlaKKPtHDdWfXwoMQvqLmr9Oux2E48FstrseJBQ3QnQbyRUvD7HY2YuB4akVyKI5lNja/cam3fctVLXa3U6oaMiO/VAtFpfTgMKgtjcoy33V5d0ia+KmPexPnWx2nOVY+JrD7XN5WPfr7K1rT+kO75LN2A6LY88Qf3BDU129MWnAVmELvWvwSrqDUeNPC05R7xSASvYr0DYkWoU7jiIV9Ssg91avbOzQDdNb8RubvI58LVmtlJ2hzxR9gJ/8ArW0XEiNSG1Df6dPvDnR7HH5n+x+i4SnUe03m+7j584rznpA9lPK9H6Kp9mPCo3SyQEsRu4c+dWPRxLIPAUZuNXuXU1DFjHM/RXD1qdjQiIXNwGRSd5F7E3FZOVra92tWX1rPFCsgYGNhlTTtXG9TfcF18dKOwgOJWDaqT6jA1sYnXX74KV0mlVmXL/SD3b6obUMY4tdpW1Y9m+9jx+FPRgdQacmUejRNFgYdErVIw8pS9gDmBUg9x32PA86GBT3AyNlb7S3ZXvHE+ocKShUgiCrTY+zxEGIbN1liOQ4A89damOKjbDRhCC29iT7LD2CpbCrVOA0LkNouLrQ+TJmJ6YfRAYVoNmeiTw+JrPuKv9neiXw+JpOyQbMO0eixXTJb4lv0p7qoHjrSdLV/mT+lPdVMY6O3IKrV/Ud1VVLFVLtfBZh2RqPbyrUyQ3qJNhr1FwkQUMOLTIWMwh1KkWPPeKtcNqlu6/so+P2Xm7Q0Ybj8DyquglZGKkWPH9xWXXoXcRkr9OoHLTbH1KnkfYprVw4llgjVSQSi3PLKKxexQc69zX/6TXpOw8MpiQkXOUf791Y9ZoNVhd5haVkqBpkiVQS4diNx8qo8RsvK4kN7ggAcLHeTXpc6AKdBVUmBznkKlWtby8NAC2KW1ajDIGGvTqqjDwlgANa0ex8GEXvJ306PAKBpwp8TkbqDaLW4uAcIbyxVavaTVbAwUqYaHwqvWItR5nY7xYV2CVQDcgeJAqo6K1UD+SqwN0Ks2hs7S++q6CELvFX2LxFxZVZr9wNvM6VHgwz78gH6ju9QqyLJVv8A5bSB8FH0hoGJUGWW4tuFFVbKKkz4Atva36VA9pvQxgUA4nxJPs3Vbo7Pqh5c8jFCNqGgWQ2ns4PfnWA2/gHiftDQ7jwr2TE4UHhVJtHZqsCGAN++t2o0PbCHYLQ6z1b4x+68mWiCtBtboyV7Ue7+k/A1QMhU2YHTgazn0XNzXdWPaFOuOyceGvnonAUaFe0PEUNKk4Ydpf1D31FoV6+vR9jPkeFu6WV9d2iyi59lWW1MT1hJGgOvr4nwpmxcGrtErGwCytr+sWH+qrcQgNooXLv03cufxp7IIYTxcfnC46zVGN7UY/ReebewbuvZUkX38OdW+w0staHaGDE1ygyqo1X+kd4770DY+yraM1l4m24VYa2Hyth1va6z3XYRp1TU2aZUdr2CakD7zWucq89KrsHi+0TKLw7mQbrfhVO4jv8AG++te0OWyroq6qeX9V+81W7X2V13bSyCMEuLbxqS4AGrH9qlHBUaNqa6WvyOR4fc8dDgqDaWAv8Aa/8Aoj7hHdwjHcw4+s68RIhxGaQnI8YsApt1gFyFXmKm4fEBvs3uIBvG8r3Mv5yfPXhTZtnEPmFxEpujDiL3UKf6u/uploNqEdl2BGR5cP8AY6+8aIGyMTY557smoAG8nlyFExKPEyyE3B1iPBrbj4Duqyl2c+I+16sqRpksQD3FSd3OpuD2M5Fp8pUaqtz2Ty7hbhUw0lUqtrotJeSBoW59wjXiciFNwxJRS28qCeGpFzpSejMlqC9W1xtQ3nEoDir7Z3o18PiaonFX2zvRr4fE0ipWcQ4rLdJ1/mD+lfdVVkq66RD7c/pX3VXhKO3IKpV/Ud1UQw036NVgsdHWEUiEKFRS4G9VO0Ni5hu14GtwsAp4wYPCoEKQmVgNgArKsb6MGFuYvvFei7KuI0A/pFQ5ej8UliQQVIIYGxBHEVdYbBBVAzNpzA9oF6xrZYDUcCwwtGhXgGQhzq1rtu9WlDwuNj1AbMfygv55QbVN+gR8VDHvbte+pCoBusKDT2WGvvFx88yim0OIgBRHkdhZI214sQo8tT7KUGFcallHgL+0/tU6lerIsVEG9dk8/MKO8edUA4YH7xZvE2HkLU6PDou5VHgBRa7arLaYGQTROaGwoTLRyKaVqd1KFEdaC8dTmWhMlSDUslXvFUOfDXq5MdM6iphqjeWZnwF6zu2ejyyDUa8CN9ehthhQJdng0riMyuWmRmvEsdsqSE6i6/1D491DgGo8a9hxWwVcWsNaye1egsgu0Auf6L2v4d1Vn2fVq6Cx7bEhtb3+P2Wt2fhzn5CNdeAzMTr/AG1bXEgCbsu5jy/q/wB6VBwSYg5csRClUVw1lvlXXW99CW3VbHZrHTMAPMn3UGhSc1sRqZnmSVnCoxrRJHKMYVeIiGyrpY68+8nlUl41I7FgOI3a9/hVhHgFsAxLW9Xq04VIjhVfuqB4CjimhutM5KugjZhkytl7yLG/fr7qJ9Ab+oAD1nxqyrtSuhD3ztFTybBgJuU523LfibDjUuPDogCqqgLuAG6pTUFhRBCi6q9wAcSY4lDY0JzT2FBekhEoTmgPRnoD06ruCC9XeC9Gvh8TVI1Xuz/Rr4fE05UqI7SzvSH058F91QFFWHSD058F91QRVhuQVKr656oyCjKKAlGWnUEdKKlBSjqagVMKTHUlDURDR0NQIRWlSAaV6YDVP0p2rJho4njCkyYrDQtmBIySyqjEWI1sdKHCK0q8tTwKoejW05Z3xiy5f5bGSQJYW+zEcLrfvP2h1qt6B9JpsZBipZgt4MTKsYUZbw9XHJETqbkh9/hTXUSVsKVY/oN0skxmBeeVFTEQgmRACF7UYmhcC5IVo3Q7++mYzpDijhdmSQ9Qsu0mgDl0d416zDNM2VQ4Nrrb726nhOtkaaaoI+kBfBYmcKqTYNcQssZu6pNChNr6FkPZYHQlWG69Lo/0kSfZ6Y6SyARM8w1GRogRMLHUWKNv5UklfEU21Z7oR0gfG4BMXMqozGbMq3sojkdQNTe+VRfn3VT7F6WYqTYsuPkWP6RDHM2XKQl0uyXW97ZCp31JRMrc5a5aqTYO1pGkOGxIjE6xRzq0YYRyxPoWVWJKsrAqRc71N+1YRuie0cZiDJLN9G6jrMRGiosizK0M7RAOSSrghCbixvw7nUDIWjK1wLVV0s2wcJhmlVA8hZI4kJsGllcIgJ7rtc8gacwxaYVy0mHbEKrMGETrDpqAUzljYccwp00qzCURVFY+fbWLTZkWJzwtiMQcLlbqmEa/SZY1AKZ7tlVzrcXtTtrzbThWE/ScEWlmjgYfRZMt5HYCS/X3GmUZfHWmlShbRTT71FwmYKocqXCjOVBVS1u0VUkkC99CT41kNhdJsS2OfDzmNo5p8bHBlQq0f0Qx2Dtch8yyHgLFON9IEKbTgtzeug1hcP0jxQ6zGO0JwgxbYbqhGRKkaz/RhN1uazHP2ihX7pNjcWqZjukc8eN+h5Y/tJcMYzZiTBIkxmuM2rq2HfXcA66G2rQiArX3rgNcvSLU0J7y4xoTGus1CY06UrjGgOaI5oLmkoEpjmo7miOaE5p0MlDar3Z/o18Piaz7mtBsz0SeHxNOp0s1nukB+3P6V91QFNTukPpz+lfdUJTRm5KlU9c9UVTRloK0VTTqCMpoymgKaMppk6kKaNGajIaOhpipAqSDWZ/iCx+jw5bZvpuCte9r/SUte3CtCpqs6T7LfExRpGVDR4jDTdq9iIpVdhoN+UG3O1RKI10EKh2NtF4I9sTS5M8E8kjZMxW64OEi19fwiudEsL9HONwwPo8JgW9f0MwE6f8AxxRto9Fp3THRq0eXaGKgk1J0gAhEwYW3kRuLcb7xU3CdHOpxs8kEUEWHxGEWNlRQh69ZJDmKKLWKSb+VMi3hCzOyf5bD4ebcmO2Osb93XYbDdZGfExGX1RCp2K+ywmwVO9Z8Enr+hutTNqdF8RJseLBI0a4mCGFFa5yBkQRSdorezRmRd34qk9LthTyw4IYYI74DEwTZXfq1dYkZSuaxte44UyV4cVU7WYLB0gI3EMOV22dCG9d2qv2iTH9J2WDb6wkwLRgbxHicseLtyAw8rH9dXuO6Nz/VuNiBSTF4/rZJLHKnWSWURoW3IqKqgnflubXq4xHRyKTGYfGsT1mFieNF0y9vTNffcAuP81OlfAWV2diDDsbHBbKyTY+BOFpJMQ8cYH+eRadilEeC25AD2YetyjgFfAQnT13o8XR/ETQNA8aqjbXlnlEmokwwxLTjKovfMQgsbaXqRiuijKu0osOkMUWOwyrCqgIom6uRHLKosoN49fGkmJHnuRMM+bH7Pfi+zpyfAthSL+s13+HMMnUSSNM7JJiMVliKxhYyMXNmKsFzG+/tE8qJ0V2JiEdcRi+rEkWGjwkUcbF1SNLF3ZyBmd2VToLAKBrrROiOGxWHz4eWBFiEuJkSYTBi3W4h5EXq8tx2X334UlAkQQgfxDFxgQdx2ng7+bn3gVYRba6+XE4RoJoniiLXfqyro5dEdSjk6lG0IBrvS/Y74vDGOJlSaN45oWYEoJYnDrmtrY2I9fGoGzcBjuuxOMljw6yywRQxQCZ2T7NnYs8vV6XMhsApsKSQIhUsxZ9ibNEZUOzbMVSwJUMrx2zAEEi66gEVoOmGdcLA8jLnjxWAZyoKqW+kxK5VSSQvaOhJ041V7M6O41cDg8LIuHDYPFYdiUkdgYYmzk9pB276W5b60XSzZj4nDNDGVDF4WBa9h1cySHcDwQ0yeQCFdXry7osJBtYvLYxPidqph7aFJRLGZus78yJpbuNeo1i+jnRzEpiTJP1SxQYjGzRZWLPK2KkJDuMoCBUJFrm5bhakpMdgVTY7/wAvY3vWbGH/ADLj3I9wq/22YhtrZ2YjOYMYAO8hY8vsMvtqLiejuJImwSqn0XE4wYkylxdImdJpoOrtcsZFcA7sr77i1H250ZxE2M+lo0YMJwRw9ydBFLKcUraG2ZJSBbfypoRA4Lak1xmobPTGelCjeXS1DZq4zUJmpoSvJM1CZq4xobNTqN5cY0FmrrNQmNPCjK47VotmeiTw+JrMsa0uyvQp4fE0xRaJ7SrdrbJkklLrlsQBqSDp6qijYM35P7j+1KlT3ypOoMJlPXYkv5PM/tTxsaX8nmf2pUqV8pvRmc0QbJk/L5n9qINmSfl8/lSpUr5S9HYnrs+T8vn8qIuCf8vnSpUrxS9GZzRFwjcvOnjDty86VKmvFP6OxO6huVd6g8qVKkXJbhqXUHlXepPKlSpSluGpdQeVc6g8qVKlKW4au9SeVIwnlSpUpS3DVzqDypdQeVKlTymNnYu9SeVc6g8qVKlKf0diXUnlXeoPKlSppS9HYl1R5V3qjypUqUpbhqXVHlXDCeVKlSlPuWppgblTDhW5V2lSlLctTDhW5edMOCfl50qVKUty1MbZ7/l8/lTDs2T8vn8qVKlKW5amHZcn5fM/tQzsiX8vmf2pUqeUty1MbYsv5PM/tV1gIikaq1rga23b6VKmKdtMNOC//9k=;" parent="gKeFRDrYmUeAkFjMkr8--1" vertex="1">
                    <mxGeometry x="332.5" y="350" width="300" height="168" as="geometry"/>
                </mxCell>
                <mxCell id="gKeFRDrYmUeAkFjMkr8--8" value="" style="shape=image;verticalLabelPosition=bottom;labelBackgroundColor=#ffffff;verticalAlign=top;aspect=fixed;imageAspect=0;image=https://usemynotes.com/wp-content/uploads/2021/02/what-are-access-specifiers-in-java.jpg;" parent="gKeFRDrYmUeAkFjMkr8--1" vertex="1">
                    <mxGeometry x="660" y="60" width="742.86" height="370" as="geometry"/>
                </mxCell>
            </root>
        </mxGraphModel>
    </diagram>
    <diagram id="6pwcRyZ5ko6mOXHUcJQb" name="Streams / File Handling">
        <mxGraphModel dx="3073" dy="798" grid="1" gridSize="10" guides="1" tooltips="1" connect="1" arrows="1" fold="1" page="1" pageScale="1" pageWidth="850" pageHeight="1100" math="0" shadow="0">
            <root>
                <mxCell id="s4cVGN5ixAptYRdhklgE-0"/>
                <mxCell id="s4cVGN5ixAptYRdhklgE-1" parent="s4cVGN5ixAptYRdhklgE-0"/>
                <mxCell id="s4cVGN5ixAptYRdhklgE-2" value="Stream is a sequence of bytes travelling&#10; from a source to a destination." style="shape=image;verticalLabelPosition=bottom;labelBackgroundColor=#ffffff;verticalAlign=top;aspect=fixed;imageAspect=0;image=https://img.freepik.com/free-photo/pouring-drinking-water-from-bottle-into-plastic-cup_300903-489.jpg;" parent="s4cVGN5ixAptYRdhklgE-1" vertex="1">
                    <mxGeometry x="300" y="730" width="225.43" height="150" as="geometry"/>
                </mxCell>
                <mxCell id="s4cVGN5ixAptYRdhklgE-4" value="" style="shape=image;verticalLabelPosition=bottom;labelBackgroundColor=#ffffff;verticalAlign=top;aspect=fixed;imageAspect=0;image=https://i0.wp.com/article1000.com/wp-content/uploads/2017/05/short-long-memories.png?resize=770%2C300&amp;ssl=1;" parent="s4cVGN5ixAptYRdhklgE-1" vertex="1">
                    <mxGeometry x="-80" y="250" width="435.47" height="170" as="geometry"/>
                </mxCell>
                <mxCell id="DyJpm56ecpv1-pIAUVq2-1" value="" style="shape=image;verticalLabelPosition=bottom;labelBackgroundColor=#ffffff;verticalAlign=top;aspect=fixed;imageAspect=0;image=data:image/jpeg,/9j/4AAQSkZJRgABAQAAAQABAAD/2wCEAAoHCBIUFBgVFBIYFBgYGhobGhgYGBsaGBgaGBsaHBoYHBkbIi0kGyMpHhgYJTglKS4wNDQ0GiM5PzkyPi0yNDABCwsLEA8QHhISHjIpJCQ+NDAyMjIwPjAwMDUyODI0MjI1MjIyMDIwMjIyMjIyMjIyMjAyMDIyMjIwMjIwNDIwMP/AABEIALEBHAMBIgACEQEDEQH/xAAbAAEAAgMBAQAAAAAAAAAAAAAABQYBBAcDAv/EAE4QAAIBAgMFAgcKCggGAwAAAAECAwARBBIhBQYTMVEiQRQyYXGBkbEVIzNCUnKCkqHSBxZTVGJzk6LR0xc0NURkssHwJEOElOHig6Px/8QAGgEBAAMBAQEAAAAAAAAAAAAAAAECAwQFBv/EADARAQACAQIDBgQFBQAAAAAAAAABAhEDMQQSIRMiQVFxoQUyUvAUI2GRwTNCgbHR/9oADAMBAAIRAxEAPwDq9KUqUFKUoFKUoArjM2OxDSSk4rEC00wAE8igBZWVQAGsAAAK7NXJN5dnYaB1MGNEzyTyZ4c0bZMwkdtEGYWcAanvtWWpE8vRlrRbl7s4ReI2rOhAOKxRuPzmX71fI2xPlLeE4rQgW8Jl7/pVobWexBtfTl6bV8iGYIV4a6kG+fp9GqRPdiZn3ZVmOWJmd/1SMO2JmNvCcUOf95l7vpV5jbc35ziv+5k+9WjBDMrX4a8j8fr9GvPwWb5C/tP/AFqcxnf3X6Znr7rB4XiPzvE/9xL96vDE7TnS18Vijf8AxMvd9KtfjS/kh9cfdrWxSyva0ai1/jjv9FZVm3N1np6sKTbm709PVuptiYhj4Tiuzb+8y9/0qR7YmYgeE4oX/wATL96o+OCYKw4a9oD4/T6NfMMEysDw10/T/wDWtcx16+7bmjrifTqn8PjsQJYv+KxBvNACDPIwIaVFYEFrEEEj012U1wzBuQ6ySJISkiOqJJGEIRldQSyFua661eP6Q2/Mj+2X7tTp2iI70p0rYr3pXulVfd7e/wAKn4BwxjPDZw2cOCFZFIsFHyx6qtFaxMT1htExMZgpSlSkpSlApSvPEy5I3f5Ks31QT/pQelK5thvwlSPFh28HUSSTZJFzNZIyYcsgPffjparVNvfgUkkjMpzRCQsQj5TwFzSojWyuyDmoN6CfpVXh392c7Kole7Mii8MgHvniMSVsFa+jHn5ta203uwRlaISnOvE1yOEdoRmkRHIyuyjmAaCdpVZi372eyq4kfK6yMrGNwp4MfEkAJHMJ6yLVP4HFJLGkqXyuquuYEHKwuLg8tDyoPelKUClKUClKUClKUClKUCuQ7yYLBRSA4XFmWR55OLEWjbIGEjvoqBhZ7DUnnauvVXpNy9nszMYGuzMzWllALMSzGwewuSTVbV5owrevNGHIdqwu3iqWsBy8hvW5DiQ5IsylbEhhY9q9vYa6DtvcvCrh5DhsOzTBDwxxpTdu7RnsfTXPVwUkMrpLG8b5UJV8vikvlIKu3Ozd/dXNfTxXr4OXV0sU6+CMxHjt5z7a9MTyT5orzxHjt5z7a9MTyT5tbeTeP7WU+Cb5wpgPhB5j7KJ8E3zhTAfCD0+yq22si/y2StRON+Eb0ewVLVE434RvR7BWOh8zl4b5pJfg087e2vTAOFzk8gLnzC5rzk+DTztX1hQMkl+WQ3tztY3ra0d2XTeO5K9biYDELjBK+HkjTweQBnXKpLPCygHvuFY+iuj1S9zMTtRpFXEoy4cQnKzJEpLApw7FGJPYz87VdK1pERGIa0rEVxBSlKssUpSgV4Y7D8WN48xXOjpmHMZ1K3HmvXvSgpa/g8wyq2WRwzJhkz2XTwYxkMB1fhpfzV9Sfg9w3EnkWQjjia4McbMjTqysySFc4Haay3tqas+IxoSWONh8LxAr30DIobJbqVzn6BrX2ftyCUJ74qNIMyIWGYq2Yxnzsq5gOdvNQQbbixkEcd9Vwq+Kv9zFkP0u+vuPceFZC/HkKBp3jiOTJG+JUq7AgZm0OgJ0qY2btyKSOF3ZY3mjV1jLXPaBNgbC5sreU2Omla0m80RiEsYMgKSSKCQhIRo1Isdf+YuoBA7+dBCbf3QeTC4PAxgskTjPOXCskaqQ4yjxi6uy2GmmtXZEAAAFgAAB0A0AryTGxGQxiRS63ugPaFrX08mZb9Mw6ivegUpSgUpSgUpSgUpSgUpSg1cfj44VzyZgt7XClrX5XtyqN/GvB/lG/Zt/CtbejbqorQx2Z2FmJFwgPdbkW8ndVFr0OG4SL15r5h4vG/EbaV+XTmJ8+jpeLxEk+FdsG4WR1YRuwsAwNrkMp6HuNUOfdPa8rtLM0ErsqrmabL2VLECyQKPjGrvul/VE+n/napmuHVpEWmvhD1NOe004tbxiHKG3Dx5NzFh9f8Q/8qstuJjza8WH00Hv7/yq6tSsuSq/Zx9zLlI3Ex9rcPD2OtvCH/lVlNxcepuIsOD+vf8AlVZN99vy4WWFUm4KNFiHZuAZjmiClRlGoU5jc6AdRUdtjfLEQnB53iiLRRzYpOycyySRpljJJOgaRuzfROdRyVOzr9y0PxN2l8jD/t2/lV5vuJjybmLDk/r3/lVMbU3qxUWMxUIyZQgTC3Uf1kphyFJ+NdsRe36Jqy7p7QkxGDgmkIZ3S7kAAFgzKbAcuVI06xsiNGtdoUI7iY8gDhYew5e/v3//ABVj8RNoWYCPDjMCDbEPyIt+S8tdWpU8kJ7Ov3KpbqYDa0Un/FzpJCIyqorIzBwVyG6xIbBQ41J5irbVcxm90CEhFeQjTllF/O2v2VMbLxgmiSQC2Yai97EGxF/ODW1tK1a5mMQpp8Tp3tNKzmYbdKUqjYpSlArzxMCyI8bXyurKcpKtZgQbMNQbHmK9KUEHtDYF8KmHgkMbRZeG73dksCjG/Mkxu6/S6V8Nu+Q7KjqsLTQTEWOdWwyxKqKeWU8BNTyBYd4tKbQ2gkOTMruZHyIqAFmbI721IA7KOefdXvHOrD5JsCUJGdQflAE2oK5ht3Z0GHUzqyQCDS7qLxMS9kBytnFtWBIy2HO4w+7UjRohkTsQzwqbN2hLJC6MehAiII8oqfGPh4ixiRC7qzqoYEsqkAsOouw/2DXwdpRicYe54hj4lrHLlzZfG5XvfToCaDR2fsUxzNIWzrnlkQl5MymdyzLw75NMxGYa2tpe5M1XmZ0Gbtr2fG7Q7Pn6emvoSLe2YXte1xe3W3Ty0H1SvhZ0NrOpzeLZh2rc7dfRX3QKUpQKUpQKUpQKre8u8AivFEbyfGbuQfe9lfe9G3GgAjQEO4vmtoq8rjqfZVEAZ2AALMx85Yn2mu/heF5u/bZ4/wAQ46az2Wnv4yKrO1hdmY6DmWY+03q97A3cSJS0qh3YWIOqqDzUdT1P+z97ubAEAEkljIR5wgPcPL1P+zPU4riubu02OA+H8vf1I6+TWwGDSGMRpfKCxF+7MSbei9bNKVwzMzOZevWsVjEFKUqEtHGbJhlkSSRSWRJEGptlmADgjvuAKjk3QwYR0KMyvEkJzsWKxxghFUnxbZjqPJU/Sgh13awudZCjMyypMGZiTxEjWNW8vZVdOovW7srZ0eGiSGIEIl8oJLEZmLHU+VjW3SgUpSg5nvFh+HiZBawLZh5m19pNWXcbE3jeP5DZh5n/APIPrrU37w3ajl6gofR2l9rVobnYnJiQp5OpX0jtD/KR6a9e35vDZ8Y/h85T8jjceEz/ALdBpSleQ+jKUpQK88TEXR0DmMsrKHW2ZCQQGW4IuL3Fx3V6UoIHG7Ed0wkbSvJwZQ0khcxyMohmjzZkIN8zpyPK/PWtLF7ElklfPHniySx9l0VnjkjVFGcjiFyV1Z2IuFt5LXSgrmztmTrLh5ZERikeIjZhkVlDyI8TEKApbIhDZLDMxsLGsTbHxBmOJEjBxiFZY+xkEQTgk5sua+RnfLmtcgWqyUoKphtjypFhkbDRucOw4i51tiDw3TigsNWDsHtJ3s2twCcPu+7yytIjsjmQqqPEilXh4fCZsgkFgbCzFewjachbKUFZwGy8SrwOyLnQsrseHl4OdyoZVUWlsVOaPKpJN7gVZqUoFKUoFYJrNeWJcKpJ0A5nyUENtHerCwuY2ZmdbZxHFJIEuLgOUUhTYg2OtjX1gd58JKcseIRm71zgOPOh1HqqhiPHPh4pMJIkbTSyTyFwNVlcug1B0ClRYWOgtVixeBilFpIkkH6aBvbV4plWbYWPaOFixEeR/osOanqP961p7v7BSC7sQ7m4BHJR+jfvPefRVeTYsaawyzQeRJWKD6D5k/dr1STaEfiYiOYdJYyjn6cZt+5V4vetZrE9JZTo6VrxeY6wvQrNU2PeXEpbi4J/K0LpKo+icr+pTW5ht8sGxCvMImPJZlaJvQJAt/RWOMN1mpWtDjEcAqwIPeDceuthWvQZpSlApSlApSlApSlBDb2YbiYV9NUs4+jz/dJrn+FnKOkg+Kyt6jeuibemnWM8OFZQVIbU3AIt4gHa06H0VzXl6K9bgetJrOz534r01q2rv/x1xZVNtR2hca8xz0r7qs7m7OKpxnuWcWS+pVP/ADb1AVZq83UrFbTETnD2+HvbUpFrRjJSlKzblKUoFK+I5ka4V1YrzysDbz25V90ClKUClKUClKUClKUCq/vriWTBy5TZ3Xhof05SI1+1xVgqo73vnlwsPcZGlYfowKSP/seOkDTxb8GNVTTLlRdO4Dp5hWnHtdx4yg+bStzaOFaQDKRpfQ99RUmAkX4hPm19ldNYjDmtM5SabVjPO6+cXH2VtR4mNvFcH06+qq0wI5i3nrFTyo5pWuvmRAwIZQw6EA39Brw2elo1v0v69a2ao1hSMFilMTYmLCtgZEniRQt1Eod0VldAFDXDEG4NjqDXVNmTZlBqjbwMXkw0V+btIw/RjWw/fdD6Ku2x0sgrK27SNknSlKqkpSlApSlApUVvPtCTDYSeeMKXjQsuYXW46gEVzXD7/bWkKhRhiXsAOG/NrWHj+WqzaI6yra9a/NO7r9Rm0thwTkM6Wa47S6Ejoetc/l3q24ocmPDe9sqv2H0ZrWHj68x66+pd6NuIZA0eFHCUM/Zbsq3I+Pr38ulVrxVKzmtlLxp2jvRmPR1BFAAAFgNAByFqzXHv6QNq/wCF/Zv9+n9IG1f8L+zf71W54R2+lHjDsNK4/wD0gbV/wv7N/vVafweb0YrGviExAj954WUxqy3ziQm+Zj8kfbUxMSvTVracVnK71rbRVTFIGLBTG9yly4BU3KAalrcrd9q2aVK7ii4KQYKaOGNxHDLhSMTFhmhknQM2YSIykuY82a47+d6sh2vtHw1I0kncceFFjaH3t8IyAviHkyiz31PaFjcW7h0i9YoOWe6e0hg1kbEYkvLO6LlQKIVjMls5ETu2clbWXXKBca309sbz7TXDpI800B8ER1ZYAVknMuRw7ZSEsgvbs626gHr96i9q7AwmJdXni4hUAAM75CAbgMgbK+pv2gaJVCLa+0jtRYizJFnjARkbJJEY7uwYREZ8xvmLrYjLauh1gtYc7D7KzRBSsEgenl5azQKUpQYaqTi34mPkPMQxJGPI8rGRx9VYvXV0lawrlmJTGSxSS4R1SSbEu5ZraxoTGliQR4sanlyJq1d0W2WmlYjvYZiCbC5HIm2tvTWa1ZPl0B5gHzi9a77NiPxbeY2+zlW1SmTDCrYWHdWaUoIOMcTHueYiRIx5GcmR/sMfqroGCSyiqHucnEZ5T/zJXcH9HNlT9xErocQsKxndtEYfVKVp4DaMcxfhm4RspbuJtc26jy0iszGVZvWJiJnrLcpSlQsUpSgjd49nNicLNArBDIhQM1yBfvNq4/srZDeEyYWYgNhzZyh0YALlKk6i9x5q6xvniJI8BiXjco6xMVZTZlItqCOVcu3IX3x2JLMyZnZiWZmZlJYk8zVL4Ya8VnEW8ZWX3Iw9iOGDfncsbnqbnX01ltlQG94xrz1bW3XXWt2lU5K+S/JXyaHuNhvyK/b/ABp7jYb8iv2/xrfpU4R2VPKP2VXeLZEcScWMZQDZluSNeRF+Wvtqw/gl2TIkcuKcqFxWQooN2VYjIuZjy1vyHStLef8Aq7fOT/MKz+B6Vw2MizsY0MJVCxKqXEhbKDyuQKmu6mnWtdSYiOuHTa88S7KjMqGRlViqAgFyASFBOgudLnrXpStHQqm22nmTAHJ4PO0xcIWzBHXC4hwjMvjKSuU+RjWnhNuMQSJRhUd8W7SSBTkeIx+8HP2dC0l+8hDbvIuxA6cuXk81YManmoOt+Q59fP5aCp4TbWKc8R7IBLhYzAUFx4RDCzqXOoZXl08xBvcW3drbUxEZQBOGZ1aKMNlcpOWTht2dGGRpGIvyj8tWAoOg535d45GhUHu5UFF29taR8PiUMitnix6PDlAeFYUkCOT42uVAb6HiqVsOextnbUhaeKKVl95xAFhGHSSGNXDRgXk7yLsNbgrawJuJRdeyNdDoNR0PWs8Nb3sL9bC/TnQUqXEkzQ9vjZZYCr9m7k4TFtzXQk2toKmN19ozTqWkKlSkbAho8yu+fiJljY2UWS2bteMDyqcWNRyUC3QDS3/6fXWVQC9gBfU2FrnqetBmlKUERvPjuDhZpALlEcqOrWOUelrD01AbMwoihjjHxERPqqAT662993zLBD+VnjB+bFeZvR72B9Kvmr0UuUpStFClKUCqwN4pHhxbNhmhMAZULXs7HMq2uBrcLoL+MKs9Qe87Zlhi/KTJf5sd5D9qIPTVbbLV3Te6GCEcaIOSqq/VAH+lW1aiNiRWQVMVk0U7e/bLhjh0BQWGduRcHuX9Hy99iPPW8Jj5ogRHI0YJuQveetdE2zslMQmVtGHiP3qf9R1FV3Y27CuHE4dWR7DK1gRYG401Fenoa+lXSxMbb/q8Hi+G4i2tms77Ttj9EJ7u4v8AOH9Y/hT3cxf5w/rH8Ktv4oYXrJ9cfwrP4oYXrJ9cfwq/4nh/p9mf4DjPq91R93MV+cP6x/Cug7FlZ8PEzEszIpJPMnrUX+KGF6yfXH8Km8JhljjWNb5UAAvqbDrXLxWrpXiIpGP8Yd/A8Nr6VpnUnMY88oXf3+zcX+paubbleOf1Y9qV0nf3+zcV+paubbleOf1Y9qV59/B1a/zU9VxpSlHSUpSgid5/6u3zk/zCvj8EHw+O/wCm9ktfe8/9Xb5yf5hXx+CD4fH/APTeyWkbuaP68+n8uo154mUIjOVZgis2VRmY5QTZVHMm2gr0pWjpQOJ2kz+AOgkjWabtI4yPlOGxD5GXyMim3VRWNp7faKbhqFkW7obK/YdYHnAZ/FN1QdgagODepfGYKKUASRrIFbMuYXytYrmHQ2Zh6TXh7j4XMG4CZgLBsovbIY+fzCV82lBDT7fxKxu3DizRwRzupZyCJmkCKp0PZCG7EanQW5je2Xth5pWURMI80yZ8jjK0L5NXIyNnIcgKdMut76fW1dgRz5FYIqKoW3DBfKpBCo5PYGgHI25ix1qQjwUSyNIsaq7+MwFi17XJ6nQa+QUERs2XNHJi5ZmBR8QCC7LDEkTugVkU2NlQMS1zckiwsK18Lt7ESSCJURX4rxlnV0FlgjmVxGTnBs+XKT3Xv3VNvsrDs7SNChdwQzZBd7rkOb5XZOXXu0rTm3cwrMhESKqM7lMgs7OgjzE9QoGvPSg0ot5WbgHItnyLIiq7FGcsoIk0UjMugIuQb6aVg7XnePCyjIoxBZowuY5FOGmkUSG9pNVW9rDn0Bqa9ycNmR+AmZAgQhACoTxAtuWW5t0uaQ7Kw6EMkKKQxcWUCzEMpYdCQ7j6R60EFg9u4hYsMJAkkmIhgdGAK53dkEuZb27COj6WvZ7AWFWmo2LY8ayRsqqqQqwijVAFRnuGcH5pygCwAZudxaSoKVth+Jj0W+kELMR+nO+VT9WJvrVsCq7tYYl5ccuHkWPE8SLLmtfgrGlitwdCS+tueYVN4NXCIJCGcKucropewzEeS960pspZ70pSrqFKUoFQWJ98xyL3QxXPzpn+7F+9U7UNu4vExE8vMNKyr82ICO31lY+mqW2Wpuvez47KK2684Fsor0rNoUpSgUpSgUpSgr+/v9m4r9S1cy3OlVZACbZksPP2Tb1A103f3+zcV+pb/SuH4TakAyZ3NhlzBQQ1ha9jbnWd+nVzcTFs1msZxLrFKoMm9OFtIEnxAJZeHd2sqaZg3U8+vdX3NvXhby5J8QAVXhXduy3xi3UeusY1Z+mf2ac9vJe6VzL8Zz+dSfWes/jOfzp/rPWuWXb2+mVy3rmAgK/GZhYd5ym59n2ipT8Euz4lw74lZuJJiMvFQWtGY2cKuXmDZu/npby8wl2zE5u0pY9WzE+sirz+BmRWlxzJyPg/dbulv9tTXdOja1rzNq4dUrzxE6Ro0jnKiKWZjyCqCSfQAa9KGtHSg8dtN5YIpsKzNE5DO6JnkERRzmjjcatnCAjKTYtYE2rxw22jxGVG8I4hhWHVUVs0DSM5YDsghGbke4AVNYrCLIoXM6AcuG7RnkRbsEaWPLzHmK0xsHDgAKhTKUKFHZWQxoY0KEG47BKnqCb3vQaX41R21jcHMi2uLjO8qSE91ozBKTY6hfLWPxrjzqhSxJXQuoYo8rxRuic5L5C5A5KQdTpW+dg4ayjh6LHJEO0x7Enj3JN2Y69o3PabXU16xbJiRkaPPGURI+w7AMkd8iuAbPa7c9e0etB4YfbAbDviJIzEiCRtWBLLHmDNpyBKm3fa3LlUZsTeF3iCsyYmfimL3tlVGYx8a+YXAVYzYkA6ra16nPc2LhcGxyXvbMde3nIJ5kE8x00rzxexoZHMjBg/YIdHZGVoxIFZSp0OWR1J7wbG4oNeXbmRZZGitHDdXfOt84VTkQHQi7hcxKi9+7WvDD7yo7xoEW7yPGX4g4QZBGbJJa0jMJAVXS+RxzWt5tiwkvfPaQWdeI+VyFC5yL+PZV7Q1uAeYvX1JsqNwqu8kgVg1mkchirKy5hftWZVIv8A6mgbI2kJ1ZsoTKxUrmu6kd0i2HDbXxdeY11rfrVweBSMuVLszkFmd2djlFlF2PIDu8p61tUEBtvd+DEWMkaOR4pKjMvmbmPRVebdmWP4HEzRj5JfiL5rShrDzWq/kUKCg50w2lHzEM48oeJvWM4PqFY93WT4bCTR/pKolT9wlv3RXQHwqnurWk2ah7qtzSjlhUcNtzCyHKk6ZvkMcj/UezfZUjetnHbtxSCzxq46MoYfbUM+5yJrC8kPThyOq/UuV/dq0XV5GhBvC5fFLJhnjTDKzB2vZwl+63fa4sTpUpuPg2SJA2rZQWPVjqx+sTWlNu/ipBw5cS0kdxmUoiswBvlZ1UXXTUAC/fVx2Vg8gFVmcrRGEmo0rNBSqpKUpQKUpQKUpQKxlHQVmlBjKOgrDFRzsPPYV9VQ9q+Cjach2igaIxxDCmRGeINrxQNCoctl8trUF5Dpci63HMaXHnHdWQy6arry5a+Uda5nsTYEk2IxMyLEgjxmMvIM3hEuZWUQnQLw7uDzPmFe+6Mwll2ciBi2FwsyTgoy8J2EaBWzAWYlW06C9B0bKOg9VAKzSgUpSgUpSgUpSgUpSgUpSgUpSgo+8u9cuGmxcYDtkwqSRFIS6pIwku8jAdleyvjaaGt/D73IJcPA6XeVYxnV0PvjxB+1GpzIDqLkDUcra1L4rYcEjTM6sTiIhFJZiLxgMAB0PbbUda1E3SwiyLKFcMjo4HEfJnRAiuY75S2QAE2oIzDb78WKF0wcxfEl+DHmiDOsaFpHuzABVsQL2LVqRbdxZ2ZgJRNaXEzQxPIUVjaR3UsFtlvoPVU+d1cIYoYcjhcOTwmWR0dc1wwzoQ1iGIIvyr6k3YwrYePC2dY4WV0yuyujKWKkODe4LGghI97JoGkgmjOKlTEph0aELHxDJEZEJVjlU6ZW1sL3rEW+SxI7Tq7ASYxQxyLY4btcGy6ElbhTzOU3qdg3YwiBAkbDhzccMWZnaWxBd3YlnNmI1PTpXxiN1MHImR0LJ4Q2JsWPwrEljf5Juezy1oI6PfLDnFJhWjZHcxo13QlJJI84TJfMQBZS4FsxAq2BajfcSETnELnR2ILhJHVHIXIGeMHKxC6ajuHSpOgUpSgUpSgUpSgUpSgUpSgUvSlApelKBSlKBSlKBSlKBSlKBSlKBSlKBSlKBSlKBSlKBSlKBSlKBSlKBSlKBSlKBSlKBSlKBSlKBSlKBSlKBSlKBSlKBSlKBSlKBSlKBSlKD//Z;" parent="s4cVGN5ixAptYRdhklgE-1" vertex="1">
                    <mxGeometry x="470" y="220" width="417.18" height="260" as="geometry"/>
                </mxCell>
                <mxCell id="DyJpm56ecpv1-pIAUVq2-12" value="reads data / inputs" style="edgeStyle=orthogonalEdgeStyle;rounded=0;orthogonalLoop=1;jettySize=auto;html=1;entryX=1;entryY=0.25;entryDx=0;entryDy=0;" parent="s4cVGN5ixAptYRdhklgE-1" source="DyJpm56ecpv1-pIAUVq2-2" target="DyJpm56ecpv1-pIAUVq2-5" edge="1">
                    <mxGeometry relative="1" as="geometry"/>
                </mxCell>
                <mxCell id="DyJpm56ecpv1-pIAUVq2-23" value="standard input stream (cin)" style="edgeLabel;html=1;align=center;verticalAlign=middle;resizable=0;points=[];" parent="DyJpm56ecpv1-pIAUVq2-12" vertex="1" connectable="0">
                    <mxGeometry x="-0.49" y="1" relative="1" as="geometry">
                        <mxPoint as="offset"/>
                    </mxGeometry>
                </mxCell>
                <mxCell id="DyJpm56ecpv1-pIAUVq2-2" value="" style="shape=image;verticalLabelPosition=bottom;labelBackgroundColor=#ffffff;verticalAlign=top;aspect=fixed;imageAspect=0;image=http://i.dell.com/is/image/DellContent//content/dam/global-site-design/product_images/peripherals/input_devices/dell/keyboards/km5221w/pdp/dell-keyboard-mouse-km5221w-pdp-campaign-hero-504x350.jpg?fmt=jpg&amp;wid=504&amp;hei=350;" parent="s4cVGN5ixAptYRdhklgE-1" vertex="1">
                    <mxGeometry x="800" y="720" width="174.48" height="121.17" as="geometry"/>
                </mxCell>
                <mxCell id="DyJpm56ecpv1-pIAUVq2-4" style="edgeStyle=orthogonalEdgeStyle;rounded=0;orthogonalLoop=1;jettySize=auto;html=1;" parent="s4cVGN5ixAptYRdhklgE-1" source="DyJpm56ecpv1-pIAUVq2-3" edge="1">
                    <mxGeometry relative="1" as="geometry">
                        <mxPoint x="503" y="480" as="targetPoint"/>
                        <Array as="points">
                            <mxPoint x="360" y="480"/>
                        </Array>
                    </mxGeometry>
                </mxCell>
                <mxCell id="DyJpm56ecpv1-pIAUVq2-20" style="edgeStyle=orthogonalEdgeStyle;rounded=0;orthogonalLoop=1;jettySize=auto;html=1;entryX=0;entryY=0.25;entryDx=0;entryDy=0;" parent="s4cVGN5ixAptYRdhklgE-1" source="DyJpm56ecpv1-pIAUVq2-3" target="DyJpm56ecpv1-pIAUVq2-5" edge="1">
                    <mxGeometry relative="1" as="geometry">
                        <Array as="points">
                            <mxPoint x="490" y="567"/>
                            <mxPoint x="490" y="567"/>
                        </Array>
                    </mxGeometry>
                </mxCell>
                <mxCell id="DyJpm56ecpv1-pIAUVq2-22" value="file input stream" style="edgeLabel;html=1;align=center;verticalAlign=middle;resizable=0;points=[];" parent="DyJpm56ecpv1-pIAUVq2-20" vertex="1" connectable="0">
                    <mxGeometry x="-0.1872" y="-2" relative="1" as="geometry">
                        <mxPoint as="offset"/>
                    </mxGeometry>
                </mxCell>
                <mxCell id="DyJpm56ecpv1-pIAUVq2-3" value="Message.txt&#10;" style="shape=image;verticalLabelPosition=bottom;labelBackgroundColor=#ffffff;verticalAlign=top;aspect=fixed;imageAspect=0;image=data:image/jpeg,/9j/4AAQSkZJRgABAQAAAQABAAD/2wCEAAkGBxIQEBUQEBIPFRAWDxAWFhUPEBAQFRUQFhUXFhUVFRYYHSogGBolHhYVITEhJSorLi4uFx80OTQtOCgtLisBCgoKDg0OGxAQGi8lICUuLSsvLS0vLS0vLS8tLS0rLS0tLi0tLS0tLS0tLS0tLS0tLS0tLS0tLS0tLS0tLS0tLf/AABEIAM0A9gMBIgACEQEDEQH/xAAcAAABBQEBAQAAAAAAAAAAAAAAAgMEBQYBBwj/xABGEAABAwICBQcJBgQFBAMAAAABAAIDBBESIQUGMZGhE0FRYXGBwQciIzJSYnKSsTNCY6Ky0XOCwuEUJEN00pOjs/A0U1T/xAAaAQEAAgMBAAAAAAAAAAAAAAAABAUBAgMG/8QAOxEAAQMCAQgIAwgBBQAAAAAAAQACAwQRIQUSMVFhkaGxIjJBcYHB0fATI6IGM0JSYnLh8bIUFZLC0v/aAAwDAQACEQMRAD8A9xQhCIhCEIiEIXCizYrqFFmrYmevJG34nNH1Kq6nWyjj9aoZ3XP0W7Inv6rSfArg+oij67wO8hXyFTaE1hgqy5sLiSwAkFuHI7CNyuVh7HMOa4WK3jkbI3OabhCEIWq3QhCERCFHqKlkeb3saPec0fVVkms1I1wby8ZJIHmkuFybDMZBbNje7qtJ7gSubpWM6zgO8hXaFwFdWq6IQhCIhCEIiEIQiIQhCIhCEIiEIQiIQhCIhCFwoiF5rpDygy4nNjjY2xIBef7L0eWQNFyQB0kheF6bLf8AEy4CC3lHWtmCOayssmwxyOdntva3NVGVppIw3MdbTe2ns8f7VpPrtWvyMrR8LA1VdXpqeX7SaQ/zFvgqxz00+YBXbYmN6rQO4KhLnvFnku7yTzT75r7TvKQZE3Hif6jHu+BjnfQJVVC+K3LNey9rAjNw6MPN3rSapihaXSOA971Mo8nT1LxFAwknsGHE2A8SFsPJlXsjqniRzW44SBiIALg4Otc9V16LWazUcX2lRED0A4zubdeAf4xlsmntc4t+hKa/xxB81sbe0uvvJtwXnavKFFI8vBcdAsABo2n0XtKL7M5VbGGH4be8lxx2NBB/5Be1VflGom5M5WQ+6wgb3KoqPKYf9KlIHMZZmjg1eUSVr3ffcD1eb9FHc8naSe03UJ2UoR1Ib7XOPIW5q1j+ykhN5qk9zGNb9Ts48N69Gq/KNUvyD4I/gaJDvJXGSaUqmhzprMc0HOUNBBFwbM2d4XnIcOravQNH6wwsgjY6RuJsYBa27iCOoA+CkUeUZnuIaxgwvg21sdZPMqBlnIFLSxRlr3kk2N3XvhhgABfwxxvsei1Te43lqu3AwuPzOd4Kxbq7DGw4cb5APNxuDfOHULKiqNcGg2ayT+Ysi/Ub8FWz64S/d5NvZilPDC1SX5Qlvd8oGy445gJVbDkFzwRHTnxGbu+Jmhe+QTte3E03H/vMh07QcJc3EdguLnsC+dJNZal/mNmqLE7IzyQJ7GC53pygpNIOeHwwygjY/wBI03OVxJIQOnnVf8aLQ0ucdjcOJvw8Fbf7PO3GZ7GDa4k7gLfVvX0LPUsjF3uY0dL3NaOJVJpDXOggNn1MZdnlHikz6LsBA715Q3UytmdjqJ2MJ23mfI7cBbirWj1EgaQZZpZD0MEbRxxFc86Y6G27/YWwp8nR9eZzv2i3HEcV6Jq9rXT1z3sg5S7GhxL2gAtJIyz6RzrQrF6qUVLSPdyTS1z2tbcuLnOzyvc5bepbJrgdhHcV1ZnW6WlV9SYTITCCG4Wvp28UpCaMrQbEtudguLnuTl1uuC6hCjTVTG+s9g7SL7lq9wYLuNhtWQCTYKShMwTB4Dmm7SMiE8sggi4WEIQhZRCEIRELEeUfSk1OyLk34WuL7kXuSLWF1t1hPK7Feh5QbWTNv8LgQeNlJpCBM24v/RUSuaXQOANtHMHksnHoitqWtkMnmvaHAyTuN2kXBs26dZqfb7WoA6omW4uPgu6paaDqWJjtrY8I7Wuc3wCc0hrDDGSHSsB9lpLnbmjxUo1dVI4tj7NQ9VFFHRQtDn2udZ0+AxPgClM1apGZu5Z/xyYR+UBOsp6aP1IYrjnwB53kFZmr1xjByZM/r8yMcS4qpl1qmlfgjZG24d6/KTGzRfYTbguckVRm3lfYbT5NupMD4XODYGXJIAsAMTgOtbtW8k0iBkD3XA3D+yymuM2MMdnkbZ3G3PnCpp9JveM5JSOhloODBdMQQSy5RxSuPrWY2WS/WSbuKpp5YnMLWEk91hzv4WXscmZLqaads85a1ov+Ik4gjUGjTe+cdSjlyQXK/ptTq2T/AEsA6ZCxnC5PBWkHk/O2aoY3pEbDJxeR9FEbTvPYrqXLFIzS8eGPK6xZekl3buXo8OqFEz1hJKfffl+SysIaeni9SGFnXhaTvzO9dm0ju0qsl+0Mf4Gk7h68l5nSaNnmtycMhB5xG+2/Yrqj1QrHCznNjHvSn6NutrLX22k99m8SrEzEZNyHV/yUWulipGtzmlxN7dgwtpwOvUVGjyvVzk/Ds3biT5Ds1LI0nk9Fryyud/DYGj5nk/RW1JqjRR7Wh5/Fe6TgLNVi+Yc58U06pHMFUvyxKeoxo3k7yfJYLZpOvI493R5KVTRwwi0cTGj8ONke/CLlOOqjzYR2jF9VXOqTzW+qadKTtKiSV9VILPkPL/Gyw2jiGOaL7ceam1VdhaXvdk0OJzyAG1Zis13gZkHhx93zxv2cFZVcTZGOjcSGua5pIOYBFslnoNU6CIXk5WU/iS8m3cyx4qdk6ubTscHXuTfADHDaQPMpLSxyEEgm22w9dxCiVHlDJyjjO375A4DLgpUOmtMTi0bqpkdgLsvAwDqJsAO9W+jgwHDR0wv000Nz3vsd5KtY9D1subxHEOmWTG75W3+oU7/V1U33cR7yfIWHHuWPkQ49FvE7zd3FUmq2jpoKtlXVTBwYXHCJXSuLi0tFz6ts+lbWt16w+q1rR0vN1Ws1aib/APIqZH+6wNhHZtLjvU2mo6WHOKnbcfekGI9uKQk7l1ZSVrhZ8gaNTR6C/FRaisgkdnOBeQLY4D1VadYqup+xEzwf/qaQ35sm8VMoNF1Ls5sEY95/KP7w3Lipc2lXH7wt7gLvzGwG5QZtIg7fOPvEvt/K3zV1GSICbyEuOsn2eKjmveBZjQ0bPfkt3ohgZCxoNwBa+y+e1T15pS6xPa70d3EAgBrQ+w6mtyb3laSm1pbhJkY5pFsILmuc7pJtk3sU180MADXOA1AkX3aVFax8puBdadCyEmtL3uDYmAEuAGI4jmbeK1zdi1p6uOe/w72HaRbnjvC2lgfFbO7V1CEKSuKFnNfqTltHVLPwifls7wK0aiaQg5SGSM7Hxvb8zSPFbMdmuB1ELSRuc0t1gr510BUERW9l7x8wafEqtq3ee7+I/wDUpGibtfLGeZ44YgfoFE0jlI74lcUvQfK3aDzVXP0mxO2HyUOZyRRP9Kz4sO8WSZSmI34Xtd0OH1WtUc5jm6weSkULvhzMfqc07iCvQfJk6F0s3LMjeWsjLDKxrsJu4HDfZe4Xo01Th80YQOhoJ4DJeL6t1BjqZgMvQvHe17T+62ldrC5sJJuS2+0EixL+v3VQRENiuvQ18b5q0s0kkAX3dwWjqK7pOfWQOAuVAn0gBzgHpdZu4vN+C87qtZ6hx81waOhgPhlwVLVV0jzdz5LdGIhu4LU1H5Rv9nmpAyPb7yQeAJ4nNtuK9HrdYomGz5GdmPE7dkqGt11jafMEj+wYG7hhWGeR0Bejat6sUjaeKadnKyvibJ57iGNDs2tDWkXy2k3zKj1NaIG5z744AC3msikgabNbf9xP/XN43WbGtFRM9sdPGwPc4BoYC95JPSM16jMTcgnMZG2YuFXU1ZHH6OmhYwn7tLCGuPbhFz3qbDoytl2Q8m32p3tZ+UXdwVJUuqK8tzYzYX7SdO02A0DBdm5kPXLRsAA5DFcLk1JUtG0jerOLVNxznqT2QMDe7G6/0UiDRNDGcoxK/wDELpzuPmjct4shzHrkD3sXJ+UYhouVnGV+M2iZJI7oiY6Q/lU6HQ9bJ/psiHTPJY/K0E77LRury1tmtZG0e0WtA7Gt/soktcTtc4/ABGN58CrKLIsDetc8FEflKQ9UAcVDj1WaM6ipeeqINjG91z9FMp9HUceccHKOH3ngy5/E82ChPrxtbhuOcAyuHa47FDk0pjOEEud7ILpD8rMt5VhHTRRC7Wgbf5KiPqJX9ZxWil0mfVBY0cwzeflGW4qDPpD2nOPxODBubmqktmO0NjH4kgb+RlzvKSKdv3nyn+GBC09+biO9cJcpUzPxZ37ceOi/eQto6SV+hu/BS5tKBnOG9mGO/ec3blGNTI/NrHH3nDC3ufJ4BLiws9RjGnpAu75jc8UOeTtJPabqvlyw4/dst+7HgP8A0pbMnfnduSDC932kjR1RgzHe6zeC6II+dpf1zuL/AMvq8F0IVfJW1EnWebahhytxuprKSFmhu/H+OCd5Q2tsHQ3zR8oSUldBUcADQu6utVKXlKgOOxgLu/Y3jn3LfBZ7UykwwmQ7Xuy+FuQ44lol6fJsXw4Btx9+Co61+dMdmG7+UIQhT1EQhCERfNumafkNKVMWwcrJbsxhw4Ko0xlK7rDDvYFrfKnTcnpjHsEjIzvaWHiVkdNH0l+mNvC4VvCbyE62g+96q5B0ANRI97lVyFQ5lMkKhyrMhRouLK90bJarPvNeN7Lq10o/0T+wHjIqKif/AJmE+0xg4YPBXOkT6Fx9xv0H/JeftaJw8F655vlBj9djvx5LOPKjyOTjimJCuDQrGZ6aeVvpK8soILf/AJGcAR4Lz55WrqH3oIP9s4bnvHgo9ZGHGO/5vIqAH2JOxe6wVrWjk4WsFmNJAsxoFufp4qNNXEm3KDsibiPeT+yxLdJuZOc8j/hQesF2YVi3SZmwNZcl97AuwsaASLm2ewX2q2Lg0XcbAY9yowOxW09W0bQL9Mr8Z7mi4+iiVGlLDNxA6CRE3uBz3JkwMHrSPPVCBE09rs3EbkMLGG8ccbT7RGN3zOuVVS5YhGEYLvpHHH6SprKCV2nDvSG1Ej842PPvBuAf9SS3ih1O4/aSRNPQwGd291mg9gS3zOd6xJ7SSkXVdJlaof1bN7sTvOH0hTGZOjHWJPBHIRc7XSEbDO8uHyCzeCd5c2wjJvsxgMG4JlCgSPdKbyEu7yTu7B4WUtkTGdUALt11JuharoloSboWbIlISV1bWRLXY2FxDRtJAA6zkEhXeqdLylS0nYwFx7djeJv3LpFEZHhg7cFzkeGNLj2Lc0UAjjbGNjWtG4KQhC9gABgF5tCEIWUQhCEReNeXeHBLSVFuZzT/ACkOHivO9NNsWn3DwNl7D5caPHo9snPHOPleCDxAXjekn4mRu6jxAPirKmODT+kj6geSgTjE31g/SVVvUZ6kPUZ66SrWNSoXWNO7oIHyy4v6lotKZRPHuP4OaPArM39E33ZHcQP2K0elHeicfddxxH9lSSYZ42nndenjPzad2xo3NAWacUw8p55TL1waFNldgmnLSxG9BD2TjdI4+Ky7lpqI3oY+qacfoPiuVUMG9/kVCBxPd6LSzP8ASA9VKeF1I1clJkA6KVx3vH7qBiuWn8OlP/bBUvVMec49FPAPmGI/RdcoOtTPOzmQFCpBedo2rT3XEm6Lryav1267dIQiJd1y6ShZARKXbpN0XWyJV0Ll126Iurq4ChZRLuttqTS4YXSHa9+XwtuPriWJY0kgDMkgDtOxepUMAiiZGNjWAbtpVpkuLOlL9Q4n+LquyhJZgbrPL2FKQhC9AqhCEIREIQhEWU8ptJyui6gc7WNeP5HBx4Ar54lN6ePqe76H+y+pdL0/K08sRF8cUjd7SF8sNHoXN52yjiD+yn0ZuLbTxaoVQLHwHAhQXqM9SnNTLwpEi5MXYTeJ3VJGd4cPFaCqdipcXuA74v3VBTjzZPhB3OB/dXTX3oz1RfQkeCpZx0n++xekpSS2nOokfUSqFxTL065MvUdqmyFNuWi0Sb0XZUy8Y4ys25aHQx/yb+qq+sY/ZcqodAHaPNRW9bwV9C7zGH8Cm4RhWuqQ82Q/7Zu6Fp/qVPTu9FH/AAGcAR4K/wBWGWhcemb9MUbfBa5TdamtrLR5+Sj0Lbz71bouhcuvNK7RddxJF0ErNllLuuYkm6LrNkSrpV03ddusolXXQUgFKBWVhKuu3SUoLKwrvVKl5WpaSPNYC892TeJB7l6KFmNRaTDE6UjN7rD4G5fUnctQvSZOizIAdePpwVHWyZ8p2YevFCEIU5REIQhEQhCERJcvl7T9LyFZVwbA2U2Huh5twcF9REL538qlLyWmJ8spIWPHyNvxa5TaI9Mju5281Fqh0QfevyWLlCjyKS9RpFLkXBqKT1z1sf8ApJ8FZUj70burGPH+oKspDaRvxW35Kdo4/wCXlHRi4hn7KnqRZx7l6DJ5vGzZJ5NVaU05qfcE09RQp0hTLgrvQhvTzDomhPzNkHgqRyutXz6KoH+3O4vHitKn7vxbzCiDrb+RV1SO9Aw/hP4SSBanQbbQDrfIfzEeCyVEfQN+CX/yPPitnQNtEwe7feSfFRcqn5DBtH+JShHznHYeak3SVy6CVQq3RddJSSUkuWVmyXdF03dcLltZLJ3EgOTWJGJZssJ0OSgUxiXQ9ZsikXS2AkgDaSAO05BR2vV9qjScrVMv6rPPP8vq8SFvHGXvDB2my5veGNLj2L0LR1LyMTIh91jR2kDM71LQhesAAFgvNEk4lCEIWUQhCERCEIRELx7y26KPLQ1Y9XknxuPZct/UvYVVaf0RFVxGGduKM82yx6QeYrrBJ8N4cRdcpY/iNzV8qSSi9hcnoGZ3J+DRFRLmGFrel+XDavcmahUsH2UbR17TvKTJoBo5lu+pc7RgsNga1eQ0+rGAhz3OcQb5eaLhVlNly7eh7v6wvYqjRAHMvI66PBVVLOgS/qH7lQpT2nUVb0Bwzf1NPE38lWuTL08U05cwpciYcrbV4+bOPwozukb+6qXKz1ednMOmnPB7FrOPlnw5hRWnp7+SuaI+h7pf1Erd4cIDegAbhZYOh+yt/EHEfut5Icz2lV+VT0I2954BdKAdN57vNBKSSuEpJKp1ZrpKSSkkrhK2sspV0EpN0guWQETl0kuSS5Ic5ZsidxLhkskU0MkxtCwu945MH83P3LQaO1Ubk6d3KH2Rkwd2096nw0EsmJwG300qHNWxx4aTs9f7VHSmSU4YWOeekZNHa45L1HU/RrYIru+2dbGb5ZbA3oCjUVE1gAa0AdAFlc0gsraCjiixAudZ94KqmqpJcDgNXrrVohJYUpSlGQhCERCEIREIQhEQm5AnEIihSR3UOanVo9iZexEVDU0dxsXg2vFG6LScxtYODjs2hwB+q+jZWdCxWvGpJrwHxvDJRYXcCRhHMbc+a5yNJGCl0UzInkv0W4ixHpx0ArwJxSYYHyG0bXO7Nm9eo0vkxERvKTI7vA3K1Zq4GCwaAOgCyCO2lZlq87qheW02rTznIbdTdu9W9PoxkLJMLbehfntPMdvctvJom3Mq7SdFhikP4L/otKgfJdbUVxicTK0nWFldAtxFremVw4sK2j3LHarH0rf4kn6WLWkqnykbuYP0+f8ACtKEYPO3yXSUglcJXCVWqwQSuErhKbe8DMkAda3siXiSXOsnKOkln+yYcPtvu1vdznuWi0fqtG0h0xMruvJgPU391PhyfJJicBt07v6UKauiZgMTs0b1nKSnknPoWFw9s+awd/P3LQaP1WaLOncZHdHqsHdz960kNOALAZdWSlRwq1ho4osQLnWfeHgquarkl0mw1D3j4qLBShosAAOYAWspsUKeZEpDI1KUZJijUyJqQxikMaiJ2JOpDAloiEIQiIQhCIhCEIiEIQiITb2pxCIozmJh8anFqbcxEVbLBdQ5qMFXLo0y+JEWcnoepZ/T9HaCT+G/6LdywKm05QY4XADMscN4Wkouxw2Fbxmzwdo5rxPVL7U9QkP5WBaolZvVqldHLIHCxDdxuBbgr2aYNzJAC89WOD5Rm44Acz5q9pG5jDfWfRKLkiSQAXJAHXkpNFo2eo9RuBntyZbm7StHovVeKMhz7yP9p+YHY3YF2hydI7F/RHHd62XObKEbMG9I8N/os1RUE0/2bLN9uS7R3DaVotHarxsIdJeR/vgYQepuzfdaOOm6lIZAraGlii6ox19qq5qmSXrHDV2KJFT2UlkKkshTzYlIUdR2RJ9kaebGnGsRE2yNPMYltYnGtRElrU81qGtTgCIgBdQhEQhCERCEIREIQhEQhCERCEIREIQhESS1JMacQiKO+FRp6UuyVihEXm2l9Q5XTGWF7Gh9sZIJdlssNikaM1MjhOJwL5PakzPcNgXoKQ6MFco4I4zdrQPfAbBgF0fM94s4m3v3is6yhtzJ5tKrgwJJhXVc1XNgSxCpvJLvJoiitiTjY1IEa6GIiZEaWGJ0MSg1ETYYnA1KQiIQhCIhCEIiEIQiIQhCIhCEIiEIQiIQhCIhCEIiEIQiIQhCIhCEIiEIQiLlkWXUIi5ZdQhEQhCERCEIREIQhEQhCERCEIREIQhEX//Z;" parent="s4cVGN5ixAptYRdhklgE-1" vertex="1">
                    <mxGeometry x="260" y="530" width="180" height="150" as="geometry"/>
                </mxCell>
                <mxCell id="DyJpm56ecpv1-pIAUVq2-7" style="edgeStyle=orthogonalEdgeStyle;rounded=0;orthogonalLoop=1;jettySize=auto;html=1;" parent="s4cVGN5ixAptYRdhklgE-1" source="DyJpm56ecpv1-pIAUVq2-5" target="DyJpm56ecpv1-pIAUVq2-1" edge="1">
                    <mxGeometry relative="1" as="geometry"/>
                </mxCell>
                <mxCell id="DyJpm56ecpv1-pIAUVq2-8" style="edgeStyle=orthogonalEdgeStyle;rounded=0;orthogonalLoop=1;jettySize=auto;html=1;entryX=0.431;entryY=0.269;entryDx=0;entryDy=0;entryPerimeter=0;" parent="s4cVGN5ixAptYRdhklgE-1" source="DyJpm56ecpv1-pIAUVq2-5" target="DyJpm56ecpv1-pIAUVq2-1" edge="1">
                    <mxGeometry relative="1" as="geometry"/>
                </mxCell>
                <mxCell id="DyJpm56ecpv1-pIAUVq2-13" value="writes data / outputs" style="edgeStyle=orthogonalEdgeStyle;rounded=0;orthogonalLoop=1;jettySize=auto;html=1;" parent="s4cVGN5ixAptYRdhklgE-1" source="DyJpm56ecpv1-pIAUVq2-5" target="DyJpm56ecpv1-pIAUVq2-10" edge="1">
                    <mxGeometry x="0.1916" y="-15" relative="1" as="geometry">
                        <mxPoint as="offset"/>
                    </mxGeometry>
                </mxCell>
                <mxCell id="DyJpm56ecpv1-pIAUVq2-24" value="standard output stream (cout)" style="edgeLabel;html=1;align=center;verticalAlign=middle;resizable=0;points=[];" parent="DyJpm56ecpv1-pIAUVq2-13" vertex="1" connectable="0">
                    <mxGeometry x="0.4321" y="2" relative="1" as="geometry">
                        <mxPoint as="offset"/>
                    </mxGeometry>
                </mxCell>
                <mxCell id="DyJpm56ecpv1-pIAUVq2-21" value="file output stream" style="edgeStyle=orthogonalEdgeStyle;rounded=0;orthogonalLoop=1;jettySize=auto;html=1;entryX=1;entryY=0.5;entryDx=0;entryDy=0;" parent="s4cVGN5ixAptYRdhklgE-1" source="DyJpm56ecpv1-pIAUVq2-5" target="DyJpm56ecpv1-pIAUVq2-3" edge="1">
                    <mxGeometry relative="1" as="geometry">
                        <Array as="points">
                            <mxPoint x="600" y="605"/>
                            <mxPoint x="600" y="605"/>
                        </Array>
                    </mxGeometry>
                </mxCell>
                <mxCell id="DyJpm56ecpv1-pIAUVq2-5" value="program reads/ writes data to the file" style="shape=image;verticalLabelPosition=bottom;labelBackgroundColor=#ffffff;verticalAlign=top;aspect=fixed;imageAspect=0;image=data:image/jpeg,/9j/4AAQSkZJRgABAQAAAQABAAD/2wCEAAkGBxQUExYUFBMXFhYYGRwcGRkYGRkZHhwbHyAeHiAeGh8fICkhGR4mHhsYIzIiJiouLy8vGSA1OjUuOSkuLywBCgoKDg0OHBAQHC4mIScuLy40Li4uMC4uLi4uLi4uLi4uLi4uLi4wLjAuNzAuLi4wLi4uLi4uLi4uLi4uLi4uLv/AABEIALcBEwMBIgACEQEDEQH/xAAbAAACAwEBAQAAAAAAAAAAAAAEBQIDBgABB//EAEMQAAIBAgQEBQEGBAUCAwkAAAECAwARBBIhMQUTQVEGImFxgTIUQlKRobEjwdHxB2Jy4fAzgpKT8hUWNENEU2Nkc//EABoBAAMBAQEBAAAAAAAAAAAAAAABAgMFBAb/xAArEQACAgEEAQEIAgMAAAAAAAAAAQIRIQMSMUFRYRMiMkJxkbHBoeEz0fD/2gAMAwEAAhEDEQA/AMMRUDVrCqyK6x84mTwkIeRVZsoYgFj0HevqWG8HcLssbShpGGn8UZj7Cvl+Cw4klRCbBmAJ9DX25sBhsFFHkwxkJIUZEDtc9Seg9azmzaCt2fJvHvhU4GVQrFopLlCdxbcHv71lSK+z/wCM+HzYSGS1ssg+Ayka/Nqw3hvwHPjIWmjZFAJChvvEftSUrVs1ap0jOcK4vNh2LwyGNiNbdR6ivo/+KTGbh2EnOputz/qX+tfNFwMjScoITJmy5ALnNtavrGO4HiJOBpCYX5yEWjt5tG/pRIpMxngrwlFPFLisTIY4ItDl0JI316AV3ijwlAuHXG4KUyQFgrht0vpf4O4NbH/DOV1w2IwbRLz4mLCKXTNfUX9L9aT+I/EGObCzRNwwQREWkYKwA6X7H3pJ5Ks8xXgHAYdoxicW4E2URBQAbncnfS5FJcJ4BY8QkwbyWWNeY0ltTH0IHc/ypl/ic+bDcNxA6xb+wU/yNayYgcbhfNYTYTQfjP4af9jRisV4QwD4afFYfGyMkWhVowTm6A2sbHTW1N04JgW4VkGNHKScM03K1DEfQRe/Xep+KMHNFg5ocNwuSGORs8zllfQfhCsTl0+BSTwnhmxPC8bhohnmEkciICLsAVvl77Gnf/YGgvwTwyJxxLCxTq8TRJlmZcotfViD21/Ks94j8OxRQx4nDzmeF3aMsUyFXXXbsQDanfgThksMuMgnjaN5MFIwV7A2uLfzpfD5uBt3TGKfgp/vTTAWY7gCR4KHFDEIzyuVMQtmS1/W5tbXTqKI4P4bR4PtOIxK4eJnKR3QyM7DchQRZR1PoaqXwyTgPtyyoQJOW8Y+pdbAk99tOxp2vDpMbw3DLh15kuGeVZIgQGyyEMrgG1x0/PtVWBlo+H5p+SkitdiquL5WHcdbGhhHrl9bfN7U84Vmw+IEEscQYSWZjZihtsrg2H96ofiQ5hPJg3I+jT6vq339a9MTNvIMyth5vul4nB1GZSV1FwdxTPxZg0WVJo1yxYiNZkXohb60Hor3+CKo8Q4oNK6hY7B751Grafea9m/2o/xKLQYCM/UIGcjsJHLL+gvVL4kL5WZ2mnE0VFijVFH8NHLfeYsLm5/D2FAxGxDAA2INiLj5HUelM+PG8wb8UcbEdASo0HYdhW/ZneBWBUgtSAr0CrEeAVICvQK9tQBecLZb5vMACVtsDtr39PWqQKaYtvITplZVtb7x0uT7AW9Pmh8A6gnNbbqmf+YtU3gYLarIy1xYtcbWvf4tRrSR5G+jMSbfwyDvpY5rDT8qu4NO0azyKbMsahT6tIu3wKG8AA8hjGXJ8ocKATuxBJsPQAXPqKqEdwT2rQZDI2HsSpbnS+QXOYsSQgO50AFV4+INicp2aZFYm1z5Vve2lySb2pbgoz9e0fjMS+dswCm+2QCw6fpavaqwAHFVMKvYVFIixCqCzE2AGpNcs8kWDE21GhFbbhf+KGIijCPEkpAsGJKn5tvWZxvB5o1zPGQvU6G3vY6UraokvJvCXaH/AIg8a4nFRmKUoELXsq222G9UcA8Y4rCI0cTrkbowvY917UiNPB4TnODONGQxjcX81gbX7UsGqE8ePlWXnK5EubNmG+bvTp/H/ET/APVMPZUH8qzd68IoLQW3GJ+dz+c/N/8AuA2P6aW9KN4l4vxs8ZilxDuh3Wyi/vYa0lIqQiJGYKSB1sbfnRTKtEpsVI6KjOzIn0KTcL7DpT7wX4l+zYuOabPIiqU1OYqp6rft2FZwKd7ad6lyza9jY7Gxt+dOh2fT8F4iwGFkkxCY/EYpnVgkLK4UFvxEgDTavmcOJdHzoxja51QlSL9AR0oqDg07pzFhkZN8wXS1M8BwETYMyxqzTc4IFB0IPp7a3pqLE5IRzYqR2LvI7MRYsWJJHa9729KqG1r0VxLh8sDZJUKNa9j27jvWh8S8Miw2Fw0RS+KlAnle5uiMPLHb9T6qaq6HyrAMf4gL4ZMLFEkMQIaTKSWkkAtncn9h/SlMblTcEg9wSP2p9w7wVi5o1kRY7OuZEMiCR1HVE3PzavPDYVY8S7RRu0cYZRKuYA5rHSrjXRMrEIFSAplwzhsmKmKRhFJDOxPkjjQasx3yqKli8OMPIjRTwzaZleMFgDcizK67+hFiLGtVLNEtYsCwxUMpZc6gjMtyMwvqtxtcaXovi3EHnmeV7AsdFGyqNFRfRVAHxR/HcQwfDzDKJORE9wqgZ7k3ygW3A0tVvi2FS8WIjUKuJj5pQbLJe0ijsM+v/dWifvIl3TEIFGYrF8wICihlAXOL3ZRsGF7adwKt4rhIomQRTLKGjVmKiwVjunxQYrZNPJm7WD0CpohOwJsL6C+nf2qIo7g8mWeM3I8wBtfY9DbcGmwQHavbVbiIijsrCxBIIuD+1QApjPKkBRPD4lZ/PcqFZiBodBemEMELKXsqqdLMxGUhbtk/EcxG9JuihSBXtMyVIjUxgWiL7nT6jb87GvXiRAAUuWIW/UeUXI7HMaVhQG2JYoifgLFSN/Na4v2uL/NRckKARb7wJ3sf5aURxMKLZVC/Xt2BsP2NN8ZGQIbRKzJbKCPqVY8zZu4BIt7GldAZ5pGO7MfdjXlRr2rEVvTnwZKomIbdlIX3vcj3tSd6Z+EkU4gZtwpK++mv5XrlHj+VmzlzASGQrk+7psttQe+t6+XYuIqxBUqLkgEEadP0r6VJiiZGieNstgVe11PcHsQf5Vn/AB1h2tGwF1W4J7Xta9EuA0pVKjFtX2D/AAtaObh8sMozIjHMP8pF7fvXyBhX0f8AwYxyiSeJ2A5iKRc2uRcG351jLg90eUGJg8BxTDzjD4dYZYb8tgoUsLaE23U2tY18lI7719m8P8EXhK4meeaOzgiNQdSNSBruTcCwr5z4RbCvjVOMsImLE3+nMbkZvShFC/w4wGJiJAIzWsddwRW6x/FhDjFw4jXkv9QIBvm2/b9azHipcNHjj9jYGIFDobqG0uFPb/etV4gbCxzRYiZnz5AVVRoxA71tB4MtT4gReHLGnEIFAsvmUdgRfT5BpMvn4Sf/AMcw/I/3rzBeK8uJmlkjLRzDKyA6henzXmP8RRch8LDAUia1izeYEG9zpr+dPcgSkn9h204xgj+zY0wShAvJJKgsO1t6X8JMkOBxyXKyRutyNxcgGx9RfX1pfgvEUUQRlwUfNQaSFjuPvZbb0AvG5bTrdTz/APqXF+t/L2p7ilF8DHjrlsDgpGJYjmISdTZW6nroKN/xX/8Aj8+6PFGyHply9Pm9ZmTHyNCkBP8ADRiyiw0Lb69afYri0OIwCRzMUxGFAWFrFhLEdOW34SumvoO5qW8pmseGjTeFuCRQTcPIw8080yrMZhIVjhXawAFmCg6gnr61nY47S8UT/LN+klJY+NYgRckTyiK9wgcgDrp2F9bVdwbiSxNKZUeVZY2RgHysc1iTmIOun61UU07CU01Qy8FWf7Vh8yo88BSMscoLghspPTMARSvinB5cOVWZQjsL5cyswF7ebKTa+470JiWQsSilEJ0VmzkDsWsM35V2HYKwOVSAb5SND6H0rWKzZDkmqGnHfpwx/wD1k/dqL8SrkhwcJ+tIC7A9DK2cA+uW2nrS/F8TaR43KRjlgBEVfJZTcAqSbi99Klj3nZ/tMuYNK5dZNrkG9062GlrbWFq07RO5UwrxLwuOB4ljL3aCN3WQWZHa9wR06G3S9KRXruzMWZizE3LMSST1JJ1JrwCtoWlTMpNN4JAUx4Kn8UPcBY7sxJAsAD33N7CwoPCQF3VBuxsL/v8AlV4wed8sOaWwvcJb02udP61TfQIHAqQoiHAyMpZUNhfXQbbgdz6elUIpYgKLkkADuToP1p2UWRSFb26qVPsd6sixJClLKQddQDY2tdextRvGMGoleOIC0OSNj1d72Zv/ABG3sBQ64IWezElTbRTl3A+rvrtSTTVlEUxrgLYjyiwNhe3YnqNag87MbliTe/z3/QVPFwqpsrFiCQ19NQdx6H+VHT8PVcKshTK5ZbHPcsrZt0+4LDTqaLQxYzk7m9FQYqU3IJYhCtzqUXrl7aaVBMOOWXJN+g0/vV+BS8UgOgJHm/lQwIwcIlZQyroRcbV1e8YaTnOBcAGw9hp/KuoyAteq0lKsGU2YG4Iqb1S1cps8URyfFc9reS/fKb/valeM4rNIpV5CynW2lS4ZgTLIsa9dz2FaHiHhnDxDK8+WTsSNP01+KMsu4RfBjDVZFEPEQL2Nu9jY/NTODkyh8jZToGtoTUm6kkCOSdyT7kmoFaf4XwpiZDbIE/1MBQeJ4LNHKIWS0hOg7+oPanTKWpHpiwCj+I8VmnCLIQwjFlsNh608xfhNIhlkxcaS2vyyP0Jpt4JwUBjmTnZ3kiJdQmqW3sTvTUWS9SPKPntG4rhU0caSvGypJ9DHr/SjeIxYNTHyXmkF/wCJnAXy/wCX1p5x0RS8PSWLmhY5cgWR81hb8qaRTlwYkiva12CK4XBJiFijeWaRlDSLnCKvQA6XNO+GYaF8ThJ1iRRiYpRJGB5M6g3IHS9ulNBuPnLRMACVYA7EggH2J3+KiBWzl4jLiMHjBM2YwyRsgsAEGYoQnYW6VjrUFWP4fD5lggkiADMZBIzuFQWYBNToCb2A3NR8P8DMmMWCYFFQs03+VIxmf8wLX/zV7imP/s6HsJ5AR02BH8/zrSYJ1PFJoyQPtELRKemeSMZfzIt81Un7oQzIzJ4+RjPtccaLZ7rHlGXJbLlI9U0J7m9WeLeHpDiDyhaGVEmiHZJBe3wcw9gKTtCytkKkODlK9cwNre99Kf8AjVwJYoNzh8PDCx/zhczfkWt8VSxJUNtuLvyI4oWchVF2bQC4GvubAfNM/Euk5X8CRp10KooNvS97Hrv1pOwuCKdeIRmaOUMrI8UYFmBN1RQwYXupBFtR7Vunky6FVTqFSrZMyYz8PSWmUZVN76kXIsCfL2ovBs80YIKqRMrPbKgVFXQkdgb/ADSSMHUgHQXJF9B3Nthr+tRoopSoccQxt8hRreaZtDsGY2v2utC8LnEc0Ln6UkRj7BgTQV6tZCLZlIuLi4IuO4vuKdKqHY4x5MGJnVhfzNb1ucyN6jUGhUx9kVQpuAL3Jto2a9u5O5oK5J6k/Jojh+F5r5cwUAFmY7Kqi5J76dKKpZKsrdrkk9Sf1o3F8SllRY2tlS2y75RlBY9bDS9Gz8PECzWPMYskUZy/jUOxA/FlIA96MhwCwzRABhnilEisytoBY6jQe3SluRSszNTzm1ul7/NeNCyhSykBhdb9R3FOMcAmGjTMCWYNbTQW1tbXc9apsELJsQWYsbXO9dRmHxihQMp0HpXlFsYoc1UataqjXIPHE1HhKCFSkjS2c9ND12tv0vem3i7DYMSl5SxZhcb2110t71gsNJldW7EGtN4wx8csUJVwXWwIHax1/K29UnghxanzyMMPGkvD5Ag+n6b75dQL/IFU4H+Jw1wPqjsR30v/AEFKvDPiBYQ0cqlo27f8+aLk8UxRxtFBEeWy2Oaw1p7kPbJOkg7xfinOGw8iMQNL29D/AOmr+KTqJsDO2xGUn9B+1Y/EcdkeBcOQuVdj16f0FD4nikskaRO10T6RajcjRabH3ivw/O+KdkjaRZCCrDUWt1PShvB2IGHxZWYhAQ0bG+gPqe1LI+MThcizSBewY0AaVrk0SdUxzxnw80IZ2lhIL+VVfMxBO9htYU2gxGBjwr4Z8TJIHcPeOIggjoM2lY/LXWosr6s0GD4zAInw00ckkHMLxMpVZFP7a1GfxORNA8EQSPDgiKNiW3vcuRuTelfD+HvM2RMtwLnMyqAPc13E+HPBIYpAMwAJscwsRcWPXSmUqOTiciiZVICz/wDUFgfvZgBfUa0DaiBhXyczlvk2z5Tlv/qtajOG8BnnXNGotmygsypmb8K3IzH2pjFuc2y3Nr3tc2v3ttepI5BDAkEEEEbgjUEHoQaZxcDN5ubKkaQZRI4vJZm0CqF+prg3GlrGi/8A3cAmyc0yqsPOcxoblfurECSWZtBcgWvtpTTGCYvj0smIXE+RZVynMqCxZRbOym4LHcmh0wkspVrE86QqGYjzSEi9z7tv606PAE5kDFJY0cStJFIRzBylLGxsNHFrEjS5ofF46+GgkREhKTuVEYNgQFYE3Ju22vWmscDbvko4lwSSAI0pWzSSIQhzEGJsj9ADre2uvpUeOcL5EuUMHjdQ8Ug+/G2qn0PQjoRQmL4hLKf4kjP5mbXYM5zMQNhmOppv4gYjC4AH6hDKf+wyeT9jaqUmmrBpNOhVhIM7qmZEufqc5VX1Y9B+dPML4dDT4VBKk0OIuwkQMvkQnmCzAMCAprzD4PD4bGok0sc0QTMXCloxIykqHXUuqtYnvppuKYt4mj+1YJ2laUQq8cspjEYbmEgsijZQG0FgbCnKbfwhGEV8QJwfi5l4ir2AjnblNGBpyWGQJbsFC/K0ixGHKtIoBIjYgm2wBKgk9L004bEmFxMjySI32a5QKQea50jy+gzB2PQKaEw3FxHh5ohmMk5UOTbKFU5tBuXJ6nYVpF08ehMlaz6g2AgMkscYIUu6rc7C5AufatN43YhcOrNIWBmJ5pUva6gEhdEBtcL0FZSCF2KhVJLMFXTdjsAdr15OrK7BwQ4JDX3uNDf1rWrkmQnSaGOE4jkjKAMSb6hio19BqanwXFpG7Z1LI6FGANjY21v02pZGLkAbk2HzRmPwDwlQ5U5lzAowYEXIOo6gg1pjglNjvinFkJlyt5lxCyRWFwQFCn8rCgpeMu3MLAZ2XIuUBQik3aw7nv6mgJMKyoHJFjsBe/8ASmuAwAOGkdkUlh/DJvmvmCjXYC/TrSpIu2xdisU0hXSwVQqgbACvEi3vpYX96tWIozxsRcMAcpvqOnqK8lnXUXJ6ae9zVBZLk26/tXVW0oP3f1Ne0DsCY1UasaoVxzzRIV4RVgFa7hPh0Ph2ZlQPoQSRt69qaVhPUUDG5e1exxkkKAbk2A63rf8AEMBFE8MgkjBsAFAvmvSHxTHysYWGgJVh7f2p7aJjrbsUIcVhnjbK6lWHQ1WUNr2Nu9q3XHEiGMgll/6bopN9r+tS4zhMVMsginili3EceUEKOw30p7RrW4Mfw3hMsxIijLW3OgA9ydKkeDzCZYXTJIxAGbQa9b9q0+DjhPDlz8zKsh5gitmJ6Zr7CgsdxgP9myRSIkLALJIcxYdr2A0opFb3krj8IMWMTTIuIylhDlJuB3bYE7gWrM2p/wCM1y4yYqfqIa4P4gDuKQjtQy02RZdK0ni5A2IgZvpkhgJ9vpP6ClWHwrJaSWCRogbHR4wSdhntpRnFuO81An2eJAqhFbzO6qDcAMx/l1poq8j5MTKOKmDM3JBMfKv5BDkv9O1ra371Vw7CLJhsO3Kkl5MspTlvGigZgVExc+W9gbjWwrPzcfxDR8oykrly7KGKfhLWzFfS9Sj4nEYI4ZoGkETMy5ZeWDn3DjKb+4sbUFIc4BXH244lY0Zmid1mB5d2ZiCMmpbXy23F6ExGNaGUTSSCWLEwsmaG8ZVAcv8ADDaqUIFu+tATeJJS0jWjyuqqYygZAqCyAA/hF9aH4uJmlUYhgGKpa9gI0bYEKPIADfLbrSspHR4+OGVJIBIxW+YzFfOCLFbL9K5SRuTr6VVjuKGRFiCLHEjFkRbnKTobsdWvvc15xPhjQhGzpJG98skZupsbEdwR2NADa/Tv0qrK5LUIuLgkX1ANiR1APTTrR3G+JGaUuVCKAESMbRxroqDa9huepvS5WtqNCP0p34kfmLh57XknQhwB9UiNkzW7tcfNNMWeBfJhXWNJSLJIWCH8WSwaw3tdgL971VJEy2zKy32zAi9t7XGtbGMAY5IF1GFgaNSozESBSWdB99hIx0/y0LxLAyYnGYbDytKgMaoJJVJZrZi0hW+lzobnSwvVKWLBpXSMreneD4rCmGeIwhpmWReYQumYrlNzroA350jl0YgG4BIuOtjuPeoZ603CpjriviB5oY4coVYgtrE3JRAgP8/mmXiHBNNip8pUMkKySXNtQi5rdzc1neH4lUkR3TmKpvkvYG2wJ7Xterm4nK3OObWY5pSBqdb2v0W529BTT8B0S4XJGJozKLxhgWFr6e3X2o3xBxJZpFKXyogS+ULfUm4UaKNdvSl3DY1eWNHzZWYKctr6m2l9Kc4bw7nEjByqh2VLi9wrWOY7Anp3NbKSuyKdCmTEswAZiQNgToPiicPHNIFjBYrYsq3NtNyB71oMNwmBLuEZwoIIcFs1mKkgDqbbVWeJ5VjJdQvK8qra4YtroNRYVW7wJLyJMPgJGI0tckXOliu9+1quh4eSR5gVJOu1wOoq2XGxo+exkMgfOubYMdLdjbel6zM22yg29AarIYNFw1Dy1sQd+nqa6ly4ucAAIQABbT0r2pouxQajU2FRNck8qIitv4YaEwyKS7nJdhftrYVibVdBiXS4Vit97daqLonUjuWDYeIMdEIIWWJSbWBZrlaH4oIMWscnPWJlXK4YHb09ayjEnQkkDbWvEjJ0AJ9henusmOnWbyfTsVwfC4jBc9TNKII2ChbJcrqxFwMwHv0PWsbh+NwwgnDQsJGW2eR81r72UaU04H4lXC4V8PJh5JDIWzKzFUyEWso3F+tt6x7jU2FgSbDsOw722qU3Zu4w2qgvh3FpoSTFIVzfUNCD7g6VDiPE5prc2QvbYGwA9gNKFAptL4cnWPmOiqLZrM6Brd8t71WScIT2pjhOOzRIEjcIBfVUXN8sRei8FweIRJNiJWjSQkRrGudmtu3YKNKKw/h0R8Qw8DnPG7owNrZk3sR0Jta1LgqOXQv8QQ4lOX9olZjIgkCM5YqDcDOv3SelVcJ4UssOImdiiQIDoAS0jHKia7XO9X+McQ0mNxLNvzGX2C+UAfAovGfwuGwx7NiZWlb/APnH5Uv7nWlbo2SVvwjM0XwbAiaaOIsVDGxYC9hY6/3oOmPB+MSQOhDNyw4Z0UgZrd/j4q7JVlnCuEt9qgjmjZVeTQMLZ1U629DYfnSnHYppJHkf6nck/J2/lVxxzibnqTmD51uSba3APp0qXHJIWk5kJIEnmZCCOW5Oqg/eHUEUrNFyH8WxixzxxKpjgha6AoWY5wCzusn1sTtewsBVPGuNrLHy1MzeYG8jRqunQRxqBfXck2pRicQ8jF3Yux3LG5Nh3ocmiy0SG/8Awfn2rQ4niqQz4fIFmTCgAa2V5b5mYEbrntbuF9azlXS4WRVDtGyqTYFgRc+l6djDeEcVMUjuy80yKyv5irHPuQw1Vieo71ZjOLzM2VAYVEfKEaZtIycxU38zFjqT1oXhO7nNlKxsQ34dgW9wCabcNM74mH7MwSblHKzkHSzblgbsU/eqXAuxXw/hkswYooyp9TMyoovsMzEC56Aa0JGpJAAuToB604w88L4MRPNynSV5CuRnMl1suW2lwbjUgAEmkIanY6GHEIFjYICS6j+Iegbsvt361pPDv8LCyStJZXWUZboBcLYBr+ZmN9ANNCaymIxbyZS5uVFgbC9vU9fmr4eHuyB9LFgBc66mwNu16tO3ghqlkPwUkEMsL8x5Aqq7BQB/EB+jXptc1OXjpyhVjAyuWRmJLLc5vYm/W1LuJ4QRPlBJ0ubi2vanmL4WjRRiNDzrRrvYMWBY/Ntb1qmyXQPhOPSojKBmYm4Y38t79Bodzv1NLVQ6mr0ORRe27AjfY2/IWqHP/Dft79dq1iZsY4DDgB3XU6It+jMbXoriCRxyILCyhc+X360tw5lyFQt1lIAPqD07UObgkHe+vvVLIroKxkuZ2IkaxOmleVRXVQWemo1IiurjGBG1SjjJIAFydBXWq7DSZXVuxBpobeMDPB+GJpNwsYvbzm1z6VBZJ8FIy6K2lzYHT0NaLxWskgw7pmbQCwudRpf/AJ3obxlGHkhTMokyAOSdv9VXVcGK1L54I+N/4iYebcslifUVV4dMoiLRJDEFPnnlsfgXBt8UXipsN9nSGWfOyNe8K5tO1zoNqV4Tj0aRNA8PNjzZlzNlPpe1D5HG6oecUjiGIwc5yFX+tlFlZlNr2pR4h4JiHxUp5bMGYsH+7l3BzHQACl3FuOSTBUYKqITkVRYL0sPSg5MbKy5DI5X8JY2/K9JsqMWjU4DjAbCxxJiVw8sVxd1uGX0YKSp9qQY7GlJ0ljned0KtzHDAZgb2W5vl97daV14admscGm8YcicfbYZFUyECWFjZ1ktqyj7ykdf7BNx3ipndDkyLHEkSIDeyqO+mpJJpexqJqVg1cmy7CYSSVssaM7WvZRfTuewrw4XLIUkdYst8xa7AW1+4CSfamnhbV5k/Hh5R+gP8qQNt8U2yo8hnGcByJAmfOCisGtluGF9rm1LTTrxO1+Q3fDxn8rioeJOFJhzAEkZ+ZAkrBlyFS19CNwLC4vrSbyaRTasWYSHPIiXtndVv2zEC/wCtN/FWIyyS4aOJI4IJMoAjXOCLjNJJbOWc3OpsdLDSkBNMOJ8dxM6hZpnkVbaEAC4FgWIAztYaFrmkzWPFAWGmyOra+Ug6HKfg9PeiOI8SMumRVsb3uzsfd2JJHpoKXFt/TpTWfhB5yYeIs8rEA3AVbsARbUkAA6k9qE3QUryAYedkOZCQdtNd+lutEQ8SljMhBs7qVZiPOAdwpOqXGht00qWKRIpF5E5lI0LqhjAN7eQkkspH3tKJxXD3nxE4jAJTO5uQPKoubdz6U80DpPInrS8a4KMPeWORW5bRXQi5UsoYFuhuQfL0BFZkGtFxLjsU0mqOsTyK8uoZmKqFAFtAth+tVFoHdoG8UxIuIcooUOqSZRspdQxA7C5OnrTFMXEkcYdgcoUrbzG+5uOljtf1rP8AFMU0sryOLMzE22yjoPYCw+KoCG17G3e2laRnTdEy09yVsZcWxwlZSL6La5tqe9hteiIppsSwQyDyKSLnKLAem5tXvCeGq0EsjqdFYoc1tVHQddTrevcBEsMj8yRQRGQMvmuXHT2vrVq7tkOkqXRPBcEkdVdiFQ9TqQN9vWnOF4dFCUJGZi+jNoLC+42pPiuOswAQFbIFNzcC3UAbVbPjJcQqrlCqLEkncjS/61smujJ32HtxGMqI3bQatl0F7k2FvW1IlW+tv9verpcGEZAW+rf0pljlADgMNwqqvVR3rVMzYqtXVctuxrqoLIV1eA17XHMjq6urqBGrbxBbBoiSFZAdl7Wtr/zrWXdiSSTcncmj+A4qKKVXmi5sexX36+tu1PvFnhuJYlxeEYtA/wBS75Ce3W3Qg7U3Kxw06TaMhUTXpqN6AONbbH8AwpwuExLOMOhjtIVUu8kl9lW+p0ck9AKxJrX4docRw2KCTExwvDKxGe5OQg7KNT9X6UmbadZsS+J+CHCyBA4dHQPG4FsyH06Gk1PfFfFo5niSO5jgiWJGYWL23Yjpe2gpCTTQ5JXgf/bIY/paNfSKLmN/5kpt+lZ5jvXhaok02wjGhn4bxKx4hGdgq2cMTsAVI1pdiY0RwM/MUWzFLr7hSw39bWqkmrGwMgCllMasbBn8gv8AOtvW1KzVJXZbxLifMMZVOWIlCp5ixsDcEsQLkH0oDETM7M7sWZjdmYkkk9STvR+K4bkjL5ma1tQhVPhnsW/7RSl9jUv1NY01gd4jw3NHHJJIURo1DtEWHM5ZOXPYaWue9zU+OK0cWFwialkSdwNM8s30g/6UyqPc0N4uxiTYqSSNsysEsdRsiqd+xBr3inEY5oIGJZcRCoiNh5XiW5R7/ddRZSOu9I0Q/wDFGHy4GRWEeaOeNBy4hGiHK4dI3JzSgaZmOl6Ty8RMGOE2TMFy3UmwYGMKQD0NjSriWJmkYNO0jNlsDJmvl9L9PaoY55TlMufVQUz3F1OxW/Q23Haq3YIUc/f+aLZ5YC68uN441/EwkdrG+v0qO2n617JxRs0xQBRNcMbXYKTqoPQHrbel9dRuLrNha4B+UZvKqXsMzAFyNwg3a19ajw51Ei5kzi4GXMV1vpcjXTtR2PxcMkEQBcSRx8vLYZPqLFr7632HWq14qplWR4lORVCKnkW67Fty3c08Jhlrg7xK98VNqT/EI1JO2m59qqxuPMgVSoAXbUn0qmbM+aRiCWYk+pNz8CuxUSKQEfOLAk2I1O4+O9VuefUnaseUWfbpOWIs55YN8vTWiMBgM4uXCgmyjqTS2ikxLZVA0CkkEdzWkZLsmadYHgVIw4UgGwvm99bX9KHxnEAfKm1wb0NwuLnSqJCSDe562FXYqKOKawuyCxsd9RexrZTtYPPsSecsnhAZZAGb+3pTRnEGTIozNc3OthsKURYyzl1Ueg7U5iwzOVWVr5QAOmp1sfitYsiWADNeup1hcUmUeUdf3rq03EGdBqQNVg17euQJonevarvXXpiotrc+F5rcKxvMPk2S/wCIjp82rBXp1xHj5fDRYWNOXGnmexuZH7nt3t/SkVHD+/4LfBmHL4qM8tJFQ5nzsFVV6sb723AqvxlioZMXI0AGTQXUWBYDVgOxP7UjvXhNMaeKPTUSa8JqJNFgkek1FjXhaolqVmiRp8CrRQxOjctWDSTSWBNg2VY1uNb20UbkknQUr8UqonJQZVdUfKOhZQSPz1+ahDxYckRSRCVVbMnnZbE7g2+pfT1oDH4tpXaR/qbsLADYADoAAB8U3JUEYO7fqdhMVy3DebY/S2U6jvY2/euxPEWYghVSxBBF2a42u7ksd+9qDY0Q3DpeVzjGwjOzmwBubaXNyL9QLVFs9CiuQeeUsbsxY92JJ/WqmNcaaPhIlQlj5iumZrG9tMqJmY6/iIFCVlWlQopjiRkw8Qy2aQsz3HmIDWTfULudN6XUficQrwIC5zoz6EE3DEEWbYAdqF2OV4+v6f7JY2XNBEWLFgXC3NwVuL3vqOwFT4/h2Qw55TIzQI1mBBjB2Sx1FhQc+IzBEUEBNtbkkm5P57AUevA8RI6GQMvNLHO5ufKMzFh9V8uoB1OlU88Aqis45Ey0XhuFTSR8xIy63YeXU+UAk27AEa1peGYKOKXLGjSSNhnYCQAEMQbKYx1ItoTQ2H4vyVQPo6yys8aBVtdAq6Dy2v09DTUV2S9R/KjMKt7VZPGFNgwf1W9r9hfeqAKIw+HZzoPcnQC/c0lk1eMt4JxOtspvqwJI6D071bxTG82UsFCjQAC2wFht1r3g+E5kypYHckHaw396v8RNHzzywoAVfpAAzDfQaVedtmdrfXdWBTYZlALC19u9MMHGjZEZrIRdiCNLXJ+dqGMc0wLWLhdDYbfHtVWGjXVmJsttut6uLp4Jlbjl59P4LsLiGR80ZN9QDa5t/arosOXIJJu1yx7e9Wl0UHLbQCxG5v3rlw8rxmQCyLobaf3rVJLnJk5N5WC2B1jbvYi3W460dxHESBg6qVVjdSet6V8hQgbN5jsvpTHHcYzqEQeULbXf47VqpGTXjJTy16sb9a6jIocLYZpfNbXQ715V7iKE96lmomDh10VmlRC4JRWvqB3Oy3IIF968Th0xCkRsQ306b3206Xsbd65Vm70peCjNXZqJbhU4t/CbUgDY3JFxa3cX19DUJcFIpsyEage5a9rHrex/I0WhPSl4Kb116MbhE11AQksob2BJGvY3G1Ri4XKVZspACltdzY20G/8AY0bkHspeAS9eXow8KlJUKpYlA9hpYEkAG/W42qp+HzBQxiaxsBp30Gm++nvpRuD2UvAPmqJNW4nCSIwVkIJ2G9+mltzfS1XjhE+bLymva/T232vfS29FopacvACag1MI+EzsoIiax2Og79/UEe4tR0KrPC6COOOWMgqB5CV2bMT263oWeAlcEm1gzxNRJqUgsSLg27aj471WTQWjkIuMwutxcdxfX9L0/wDFuGDTSTCeJomtyQr5myWAVFQD+GFG97AW6k1nSaiaDRHleVI9a22FeNvsSPEjo2Gbmu4vkiQyAleiEHXNuSQKErCUq6MNTmeKM4JHWNUcTZC9ySwyZrtf11sNKAjiiMLOZCJcwCR5d16szdPaiBxciDkpGiqTdifOxa1iwLaJppYD5oRTvo03EYIsMVTleRJISJTGqWsQWYP9cxYXvbyge1AcO47HzWzMQOdPIJGzEHOMqA2849xtWXdidyTYWFyTYdhfYVfjIQuVRvlVmPqwva3QCq3doj2arbJ3YTxvHJI6mJQuVbF1UoXa/wBRFyR2Fze29KqlXAUm7NVSVDMYFUK3YeY3VjYeULfY6XJ0qHEMYGBUXN8lz/pH66neqMfhZIyquCDlBW5uMp2sdrVTFbMt9rj96bl0jNRupN2c6MpsQVPrcUSMCeXzCQB0HU/0pv4s4irkIHV8rlrrsBYALfqeprPFibak229P6U2lF0EW5RT4HnCuKLFAy3PMLEhQNDdbAk9hUJ8DM4MhjCIoUMFsNB1t1NF8I4QnLWWUHzMpBvYC7WA9TXuI4rlLQhCz8xr2OhF9APi1bpYW48zl779mrff9APFOGctmKaoMup3uwBtV0GPJh5KIc1yWN9LfyqhpJHc51JXMSVvYXGlr+lWSEBACQFvoBt/VvmhctobbpKWWRjwwtcHMevZfc9alyAFDE3Bt6ad6rOLOyi2t/U9qsTANmCsctxe/pWia6RLvt0Xc+P8ACPyrqCkKgkBr2rqreGwLh4kmVOZFnMYsvmspDXKh1tdtSToR60VFxwqcwj87BQ5z6GwIXKLeU7X1O3Surq5tHq3NcE+FcZXOgK2FowTc/wDy1Yduub4quLjKAKnJJRCrIOZqGUsfM2XzA3bQAbD56uooN7ouj8QAXvFoQL2Zd1Z2FrobaSMD36EVS/HmOZ7EFkKXDEEEtmJHXrt+teV1KkS9WXk5uN5gFkQuAEH12JZCSCSQdDmII/Wr8V4iAdXRLyZEzMScujBioW34gNbnT866uopFqboDxPHMzxsEI5ZuoLA6k3N7IotawFrHTUmvV4rHa3IOTOHtzTmzjMRrltlysdMt/W9dXU6HvZ03HSxLFBc5L69VkMnbre3p617w+XMmLdhYMp9bMzXAHz12rq6qhyY60m458r8iWj24LMIRiMloiRY5l6mw0vfeurqF2KcnGq9BXTOHExIoAF2sL5Rrf1Z7hfZV+a8rqEaNXyK6KfiMpjERkbljZL6b31766611dQXRZgsGphmle9ksiAG15G2J/wAqgE266CicGVkwcylFDQFHRwLMQ75WRj94a3F9rV1dTX6Jb5+q/QmB7UVxCdXKkG5yqG0tqBY69b11dSLrJLhPDTO1gwUC12a5tc2Gg1OtGYmAwYYj70kzo5HaO2g9C1zXV1VHgxcm57erX4sImxCI2FWUZhFGWYEXzFiWCe22tJsJFzZVX6cz206XPT2rq6h8jj/j3d1/sK45w0QFQr5gc3S1spt81Ti8YGQKqBVH5k11dRLF0Gl78IyfJLCY3ZJWbldVGu3QdtaLw4uhKgAC/ufc/wAq6urSBOukla8nmJxQF1G1hb070DmLEAn0rq6nKTsUYpLA98R4hcyIoF0G4FulLTmkNybn1rq6tfmMo4gqJrhR+L9K6urqe1GbnI//2Q==;" parent="s4cVGN5ixAptYRdhklgE-1" vertex="1">
                    <mxGeometry x="660" y="543.31" width="145.3" height="96.69" as="geometry"/>
                </mxCell>
                <mxCell id="DyJpm56ecpv1-pIAUVq2-9" value="Volatile / Persistent Storage" style="rounded=1;whiteSpace=wrap;html=1;fillColor=#fad9d5;strokeColor=#ae4132;fontStyle=1;verticalAlign=middle;" parent="s4cVGN5ixAptYRdhklgE-1" vertex="1">
                    <mxGeometry x="390" y="260" width="130" height="40" as="geometry"/>
                </mxCell>
                <mxCell id="DyJpm56ecpv1-pIAUVq2-10" value="" style="shape=image;verticalLabelPosition=bottom;labelBackgroundColor=#ffffff;verticalAlign=top;aspect=fixed;imageAspect=0;image=data:image/jpeg,/9j/4AAQSkZJRgABAQAAAQABAAD/2wCEAAkGBxITEhUTExMWFRUXGBUWFxcXFxgVFxgVFRUXFxUVFRYYHiggGBolHRUVITEhJSktLi4uFx8zODMtNygtLysBCgoKDg0OGxAQGy8mICUvLy0tLS0tLS0tLS0tLS0tLS0tLS0tLS0tLS0tLS0tLS0tLS0tLS0tLS0tLS0tLS0tLf/AABEIANoA5wMBIgACEQEDEQH/xAAcAAEAAgIDAQAAAAAAAAAAAAAABQYDBAIHCAH/xABPEAABAgMEBAkHCAYHCQAAAAABAAIDBBEFEiExQVFhkQYHExcicYGh0RQyU1RzsdIVI1KSsrPB8EJDdKKj4RYzNERiY3IIJDVVZGV1gvH/xAAbAQEAAwEBAQEAAAAAAAAAAAAAAgMEAQUGB//EADQRAAIBAgIHBgYDAAMBAAAAAAABAgMRBCESEzFBUWGRBRVScaGxIjKB0eHwFCPBQmJyNP/aAAwDAQACEQMRAD8A7xREQBERAEREAREQBERAEREAREQBERAEREAREQBERAEREAREQBERAEREAREQBERAEREAREQBERAEREAREQBERAEREAREQBERAEREAREQBERAEREAREQHTUfjVneUeGwZe6172ivKE0a4gVIcKnsXHnWn/Qy26J8apRb0ontYv2isjWL6HDdmUKlKMpXu0t54tfH1YVHFWsnwLkONWe9FK/xPiX3nVnvQyv8AE+JU7kVybCWpdkYbg+pT3pW5dPyXEcac96GW/ifEuY4zp/0Mt/E+JVNsPYsrYa73PhuD6lUu1664dPyWU8aM/wChlv4nxJzoz/oZb+J8SrQlwVwdBUu5sLwfULtis+HT8ln50p/0MrvieK+jjSn/AEMrvieKqwgrKyEu9zYTg+ofa9ZcOn5LKOM60PQyv1oniuY4yrR9DK74qrrJaqy8gAovsnBrc+pU+2q/Lp+SdPGXaPoJXfFWPnPtD0ErvieKgIjNSxGEndGE4PqSXbFffbp+Szc5to+gld8VcDxoWh6CV+tE8VXmQlifCATujC8H1Z1dr1+XT8ll50rR9BK74q+u40LRH6iV3xVW2wdK4CEc0XY+F4PqyXe9bl0/JZTxo2lSvISm+KnOnaPoJTfFVfEPf+cl8MM10bV3ufC8H1Zzvety6Fg50rSpXkJTfFXEcadpeglPrRVXuRxwFVyZCrgRjoCg+yMNwfVnX2tW5Fg50rTrTkJP60VfHcaVpj+7yf1oqrz5UjDuXF0GmXiVHunD8H1He1biuhabJ40Z58zLwosvLhkaNDgksMS8OUNKipphn2LuJebpJp8tkCfXZcfvFekV4ePw8KFXQhssj2sFWlWpaUtt2ERFiNYREQHm2BDqYntov2isvI0WWzmf1ntov2yt8QV9hg3ahDyXsfGY2rbETXN+5oshLIICk5SE28LwwUwbIY4dBwB1K+WIjDaUU4VKqbhu3Xz+hVmwSFmENS8SzIjXULaY9lVhdLEZiikq8ZbDNUnKLtJWfNW9zR5LtQwFJwpQnYsz7PcBlj+dCi6yW8gnNq6RDCWWeHIOpWhot6HKu1FWGWh0AqFVWxLisi7DxdZtN2KqINMNKPggbT3KdnJQONRh1YrSNnOUYV00U1Kc4NrbzId0KqNlaqwwLHcTiKe9TctYgb0jRvZ+So1MbCG81YfCVqu6yKb8lPw6OGvQOtacaUocVdp9nRIY0nqw7a/gq0+BjipUcS55shioqjJKLb57iLbBX3yc5YUUiIOxWCx7GhgcpFLKD9EaMRnp0qyrilTV2Rw8Z156MOr2LmU8yxzFaV0iikINmZl5DG51PS7Ka1dHthOIih1GgmpPRGOgXv8A4oG2rREQXGNDWa8ycTiTT3LPDFzqtRStx5fk2VaFKgtKc0/Clv55PZ9et7FedDacuiBkDmesii4tgVOADduQ71scivvkj3ZVpsyHbktmlbeeeql2aUy0g0OhajjqU7BsSK80DD+dWtZJmxeS894afo5ndoTX007XzNMadTRctF247F6lXgsIm7PNP79LfaK9FLoGY/tdn/t8t9py7+XznbH/ANC8kfTdjS0sNfmwiIvKPWCIiA6CsRtWv9tG+8KlGQVF2AOg/wBtH+8KmGL63Cv+iHkvY/Pe0W1ian/p+5tQ5IOyOK3ZWTurDKw66VLSraZ4qmrUksrmnCU1JqTj++Rsw4QLae/H3rP8k37pNHEdlRtKQ2DQtphplVedOcl8rPoIxpTVpr9X2MJshraUB6qfiFwjSTSK0x1KUgzRG1ZjGa7zh2hUa6onmXPD0ZK0beVirRYNDSi+Mh1F0nBWONIg4ghw3LVbJAGqvjiE0eXVwFSMuX+FdEpddhjjlpU5J2dUVdgNq2IUtjeos0a9T+S5VrylZIjhsJCleT2bl+/4YqNYOiB/qP4KNmoxOIq46zkszy89Wr+a5MgNOYSKUc2KlaVT4Y5fv1+5ExITnA38dlad2S13SLaY0GGfVsGQU26Aa4YLm2yydvWKDvV/8hR32PPlhJVHkrvnn+emfMh4MhfPzZy00Lev8Vsw7LikEB4awaSKVpnjpOmuKk2ypZXEDYKla8xAdEwrXryUNdJvJ5eVy1YWMF8UXpcE9FPltbS6vmiLjuhsAaaRSDgaEYaQdajIkC87osoDkK/iVam2I0ec6uxoJG8rPBhMh4lvVUD+ZU44qMPlu3+7jj7NrVH/AGNRX0bX1zfr5lXhWPEdiGgAaSa+9SLJTk2gxT1DLdRSc1PuODRRRj5ZzzjUrutnP58l6l8cNSov+q8pc8l0RpxLXIq2ECBlnn26FExJNxF45k9daqzss4N0LFGluxXQrwj8iIVcFXqK9Z34JbFfhu9ii2rBLZizq/8AMJT7RXey6V4RQ6TFnH/uEp73LupeZ2lK9ZPkv9PY7DWjh5L/ALP2QREXnnshERAdCcHPMf7aP96VNwYBKiuCh+bf7eY+9crNA6ie9fQ0MSo0orkvY+VxPZDqV5z0trb9TnLtIUhBKwQXbPetuG4alXOrFmmngKkVtXr9jYhuW0xxWqyiytG1Z5WZqVKqtpsCqzMetZldazscqpIsjTmnkjMHrmyi4ALI1g1Kplqg96M7GhZi1pFFrhm1ZAw6qqp+ZeqfIxxJULGJQaT2LPeX0Fd0pIplhYPOxha0DJoRzSdK2mBpWTk1xzsx/Gk1bcRwlRqqsgbTIALdLRpWN0RgzcN6abYWGUdmRovYda1HSylnxGfS7wsJc3QW7wpxqNEJ4W+8jvJNizwpYaVnc4axvWF0UfSb9YKTqN7y6nQjDccYzWhR8Vo/IC2YkyytC8bwuDpiH9Nv1grIzUSNaDqZL/CncNK8rZmr5SlNQ0v1LtddWcOIrDEs26QaWnJ1oQfprtNZq8lKWRbh6Tpxs3vCIipLwiIgOh+CkvHdDilkNpby0xdLnltTyrqigYadasVkRolCXQzfBLbsMF7cMK8o4MbnXDYtPgFFfyDxRtzl5nEvuH+udXJpKtT5xgaA18KFXK9Ug77u9b4X0VnuPLrS+KWW9mOC6Zf58NjW5VL+luaCN5Wy2C9pIIa5ppdxAN7GrQduefuWWXgxnisOYgEbGV7w8rUiQ5nEGZhEg0IEMbvOzUW87XOxdlpaJtzQbDBLg/RldOzSubA0tBETzqlpummBxvaj107VFWj5Q1hJ+cFcWhlcqmpxy6lE/Lr3EAm6NOCup0nPYzLiu0Fh/mTLG6bIJFAccLpJFOstGOWhSTC1rQXuIr3KPlTBuNLule1A6qrhFkw6joRYMcQ9ryKawQQuOMefmRWLm38y8r5e3+krLlr63SSBhlTHrSMXs2bXGg3iq+QIE1hjDuVwu4C7hnXtyWOfsmaitcwzAaCcLjOlTGgvOroOpZ9JX2qxvjKto77+SMcGdiVq57CD5oFCLpGFDWpOBOqhWvaceMelBedFW1Da5ZVIA3qPPAmYYKw5p96ja36PbhoFRWldq5fIs2WUE2wH2NDXsero6Czi7+pjqzqzThUuuG5/QxRZ2ahhxoMiagggHV79y+t4RxeheD2A0OIrmAaVIUJbXBW0Lrj5VDdgf1N3DrvLUlLFtiG1o8ohhteiCMQO3RRWXi82jLGU43ipP148kvc7Ls6e5Vhc1w00oKaKivetSPaMYOb8226S0H5yjhU0dgRQgZ4HQVWrGlbR6Xz0IioqQ0EVphkpt1lTr6f7xdbkQxmeGPSOXYszilLaelTqynBOz+/qZjPvwJDLml151cyMG0xOFV8jzLsSHAjDJpJ6iKneor+iMzCe2IyIIlK9FwzrhoI0KXNnm9R8CCWHPpvz7RXcrbQ3SuUqpXzTjZ/V7d+zqaUvagcHQy5rYgOBdkdenEdSjJ2Vm7xe44ChbyZBGRwx14ZgrlaU3Kte9nJMBBoQA7toa6slqwowLhyEOI0Uxq7o7M8KLRo/8krX42/UYFV0v65yTtwln7Z2+my4nbRj0HzTm6MC0munqC0WWm5tXRBQnbedXQAMlwjQZ+tRyTcdRGeqimIEJ5ab4hEa3OuntNF1wjvRNYmbyUn9Yr7Gmy2YTh0i5vW2vudgsEaebjSKzZ54x0AmmHetx8J1BehQS3SWuBw0EdBY3vg06UAuwOALAOsE/jq2o6cVmiUMTUk7N+hU52YiOnbPDwaCflaG8HN8/IUyXoNee5yJDM5Z4ZDLD5fK5vY8UvnQ0nFehF52JVp5HsYKTlTu+LCIizmwIiIDofgn/Vv9vMfeuVplozaUdVw1E4KlcHI5DIg/z4/3rlOwo21enTp/AnyPJrV25uL3Mmmhg8wNZXUB7xitmA9rQA3RU1qakuNSSVDQ4wWdkZSdNFetcdiJxsxtXGLDZE85le7vGKjWPOxcuXOtI088iE8TdWmrrg8yXl4bWigy1VW7CnLopXDeq/DeStlr9ZUZx4naVWO5WRMw7QDRQYdS5i0SdahOUoskOZAzVbp3L44iEcicE6TpUPPSMR5JbFutGTADSg6jjjpWRs23Ss0aeY0VNEgpRfwoV6lCrC1R5LPa16orhseYeCL9CRdBcTSmGe3BfInBuI27TpNFBi8Vuigw7FJxbbboXBltA+c3tqtdq7zseG59nRjoaV+f18mSdjs5IFvRDa1oCTo096mBaQ1qreUB3mHsy/FYIkxEbiW4bCqXhlJ57TUu1VSitBfDxWa9C5ieGtcvK26aKkstUaTd7+9bsOYJFWmv51KuWG0dpoo9rqp8uf7w2+hsWdwfYyK973BzSatFccdfUpiLLwHNulgIwwpqUE6acMKGu9YX2jTMqThOb0myEMRRowcIwSWe3Pb5lndBhOAqxpAyqBoWlaNiS0YUdDGwjonuz7VEQ7V2rag2ptVeqnDNM2QxNGstGaWfJMjYvAeDXCI6mrAnen9CpSmN47h7gpt080haUeZAyK6q1R5NslLBUILSjBP19yo8LbEloEWzHQm0d8oybSak1F5x09QXcK6e4XR70azf/JSf2nLuFZq6anma8K4uHwq2e5WCIipNIREQHmazJkt5Qf50f7xyk4c+q7LxKOi+2j/eOWXype/h1HVR8kfO4jT1srcX7lngz+tbjLQGhU4TZ1rbgzVBmpy0dxXCMm/iLfAngtiDGJ7VUoFsADEHZ1rb/pD0cwNQAx7Ss8ozew0wjQ3l1hwXUqTQLkbRgwxj0z3b1QnW893nPJAyHitOLaZOlcjhpP52RqYiKX9Uc+ZeJq372oDVoWnEtS8NXaqiJ1ZPLtq0xpwhsPJrwrVX8TLUJ4kZ5L4+eJzJVUZaFDmtn5QB00KnpJGWWDktpPicWQTY1qsundqwun6Jpoj/AAblpdOBZoVsOH6VRqOKqDbRXLy7auOUXtJwwcoO8cmWyPaQdm3HXktbyy6agkKuieppqshtNo2jIjwROKyJPDSlK728S3ytusoA6rXfSGO8JFthrjQvDhTS380KpUaZb+i7etYzhChqoXubYuro6P39dz6X4svUxBcMWOvacMf5qNfaT2GhwUDL25Ebk5ZY1sh3nNB1/wAl1aS25ok8PT2xvF+hY5fhBrKzOtkHIqlRYlcW5bVg8qcFx0oPNGinWqJWbuWG0J3lJqzh/wBfKH95d/LzHZ0e9OWf+3Sv3gXpxeTjUlUSXBHsYFt0m3xYREWQ2hERAeRYsY3n9KlXxHU2lxJXATLtfuXpSJxfWW5xcZOFVxJNLwxJqcAaBfObqyvU4f73xKxVZrJNlbpQebiuh5uEw780XPyp35AXo7m7sr1OHvd8Sc3llepw97viXddU8T6nNRS8K6L7HnEx3HSe7wX1sU6z3eC9Hc3ll+pw97viTm8sv1OHvf8AEmvqeJ9RqKfhXQ86cqdZ7vBfREP0j3eC9Fc3tl+qQ97/AIl95vbL9UZvf8Sa+p4n1Gop+FdDzsIh1nu8F9Lyf0j3eC9E839meqM3v+JOb+zPVGb3/EmvqeJ9RqKXhXRHnYE/SPd4LkH4iryBhiaADrwXofm/sz1Rm9/xLrvjq4PSsnKQXy0FsJzo4Y4tJJLeSiOpiTpaNy5rqniY1FPwroUu5CA/tTDhkbvZjoUeYldJ06qdeShDHfdreK7t4ouC0nN2c2NMQGxInKRW3iXVo11AMCE11TxPqP49LwrovsdV3jrPd4L5eP0j3eC9F839meqM3v8AiTm/sz1Rm9/xJrZ8X1Gpp+FdDznfP0j3eC48qdZ7vBejeb2y/VGb3/EnN9ZfqjN7/iTW1PExqKfhXQ848qc/DwXJ0aJ/ix2Z9WC9F83ll+pw97/iXzm7sv1Rm9/d0sF3XVPE+o1FLwrojzjefWnSrqpj7lx5Z9K4010w302jevSHN5ZfqjPrPr2m9inN1ZXqbN76bry5rqnifUamn4V0PN4m36+5DaD/APDuC9Hji5sr1OH2l597k5urK9Sh/veK7rqnifU5/HpeFdF9jz1wdjEz0lU5TUqR18swfivWCrMnwDs2E9sRkpDD2ODmnE0c01DgCaVBxCsyrcnJ3ZbGKirJBERcOhERAEREAREQBERAEREARa05OQ4Tb0SIyG3W9waN5UBOcYNmQ85tjvZh0XvYCEBaF1T/ALQ/9il/2kfcxVMTPG1ZzfN5d/8Aph0+25q6842OHkC0JeDCgwozCyNyhMQMAIEN7aC492PSCA62c3oL0LxEf8Kb7aN9pdBRIR5IHauy+K/jElpGSEvFhR3OESI6sMQyKOII857TVAd7oqFL8bFnO84xmf6odfsFyl5Ph9ZkTzZuG32lYX3gCAsyLBLzDIjbzHte06WkOG8LOgCIiAIiIAiIgCIiAIiIAiLigOS+VXxfCEByqlVwovlEBkqlVjolEBzLwqHxp8JY8tBhtlnBjojnNdEoCWgCoDa4AnHH/CaY4i6xWEqicOOC0WYYQ09iA6amr8V1+I90R5zc9xe76zqlcBLFbNo2FOy5IdCcQNIBI7loNtBw85h/O5AZ/Iyo+2Je40GlcdqkodpN0gjsXCd5OM27eLetrj7kBHRpmLyAaSy5qui9vWaypUuZUCmK5us5t27yw+o9bUpFhwm3bxd1NcPegHkRQyq+RLVboaStV1pvdgxh3Y/igJCRiRYLr8GI6E76THFh7aZjYV3nxa8Ios1K3pggxGvcwPAA5RoDTeIGFakg0w6K6Psrg3PTJHzbg3aKBd0cDODkSXhgOPYgLwHBfarBDYVzogMlUqsdEogMlUquFF9AQHNFxX0ID6iIgCIiAIiIAiIgCIiALiWhckQGCJLMdm0HsUbN8GJSJ58Bh/8AUKZRAVCPxcWc79SB1Ej3LTdxWyGgPHU9yvaICh81clrifXK5M4rJDS1563u8VekQFQgcXNnN/UA9dT71LynBuUh+ZBYOpoUwiAww5drcmgLLRfUQBERAEREAREQBERAEREAREQBERAEREAREQBERAEREAREQBERAEREAREQBERAEREAREQBERAEREB//2Q==;" parent="s4cVGN5ixAptYRdhklgE-1" vertex="1">
                    <mxGeometry x="620" y="750" width="171" height="161.38" as="geometry"/>
                </mxCell>
                <mxCell id="xUJpvo9hYr-8eV1Kpgyb-0" value="" style="shape=image;verticalLabelPosition=bottom;labelBackgroundColor=#ffffff;verticalAlign=top;aspect=fixed;imageAspect=0;image=data:image/png,iVBORw0KGgoAAAANSUhEUgAAASAAAACvCAMAAABqzPMLAAAB4FBMVEX////+/v4AAAD//v/6+vr///0A/wAoKCiSkpL5+fmoqKj19fXHx8eNjY24uLjt7e0uLi4eHh7n5+enp6dVVVW2/7cI8geurq73/vcLCwva/99a5l1TU1O2trb4//8A+gBdXV19fX3c3NxsbGxD70PQ0NDv//9FRUV6enqenp7CwsLX19eQkJDl//8YGBhkZGQ0NDS2+LQ+Pj7w//Mkh66/3+Tp/+nQ//+59rnz//hqqMPz/+7e//+T/JQ1epN/v97P/9Qa5BuOxtYAbZjA7Pa3/P/H+f/S7/LI+cGw/6fH7dHn/+934W9B4jc26zJF3EuK0pGW+55Zzl+D/JB408sue68niLllo8t0+3lOmMaL75CY/bRx2txCgK1PkLFm5WtH5kzR6vqh+OssbIqF0evw/txRg5tfnLF7rr0md4zd/82GyNNKnr+o7f8Aa6Ao9jN35tWr0upBt7FXx76bz/BypM2Ax9Kk5txdt9Z8y7zJ/++qydR8sLtHiJuk5s95pLUc0wkyk6FKsrqS7PZg0cFom6i1zuw8ZYMnhsSnv9VosccAeZ11wNKFuNo1YXF0oaWG+LoAokUAm1qD8M1jp9UJ10oKongsuHOg4/8pwWoBw1E3qJkokqyC1HlW101mkaZYM4tbAAAgAElEQVR4nO2di0Mb15Xw79wZWQwjaYQEemBpkEZo9PIAFiAMknkIGdnr2Cl14thOrZqaRDiGeOnTLWHdbrb7bY2zX7fd7qZbb/2vfufckYQEkmYkLOL284kDYt7z0znnnvs6l5D30io2Jt/1U7zD8h6QibwHZCLv+ZjIezrH0mBha7exlwv8/QrP84ZJ8fUtPby0LWD7u2XEHwsDxPPm55wSPNFm6+vUd16O+XDwmhy+ZO+6AKdxpD+2fwPCcUgnEMjPBgIGn54BwQUUwi0qf59WBkB4W/76jRs3xsYVINRP4c4ThSj/cFMZwOO9AwKAAuMf3Lo9+eGNWcMV9X4NRVEC31sN4Me/P0sDIIHcxWcTvrXNm6R/QOPfH1tENr0A4nq/03cgAGRx/KJvYmLtzoLeJJpi/QUUZfH6h3cWEU5vGiRK5yxcX18KArowsbb50cd3784ZcvfjTxROsepVOGV27Na9WVYcWr8tPKvXeb4SVfsHBCb2g48/WarLx/cBkOWrBXIPbl/MsTjKuoVyPEnQc5Z0P3zqgD79wcNS3cAKlfuWCyVQm8DqD9cerQaEXn3YKHWmw65zkrB/+syAthRDAvrhJz0A4vKXH/kmx/IQSWG9w6KAPwgFXfDrnIRIUQDUu43xx4A+31KMdiCbdrirWHUnQCW/eXvi9o1c74BomHDC+QhP5DMBmlj79KPleVAeFFu5AoAs+yDbZ3eA8AfjgZ5MrA7IyoH1T40fpPfyiOsPEN8AtPmjxwcaqBAAUkrL2z0B+uHEBd/F670DCpoBgr2cIOJPrBQJWOmDH2gxAtcjI6E/EwNAgRqghc+rJY0Zmb7zZEOz/qqBLy5OXJiYHAv0VoqZaxAn1PbyNbWpnwh6z50bIL4G6OrNg+XqfKm0USrtHO1oSsAqIVv+yiQAenYj0FOYaAaI7ciknM5LXg8e7Emla9tFl19u4sNZM7qzA8rpT58s74IcHb0sK2BqVgHlbtwGQL4Hs7a3CAgJiENZFr4kvEQk4ZFRYzORE3YH/BJEQ8HgIw8+mOdEWSRiRwJvAZBWKBWXKpXqznxBw0DaKqDxO2sTFy5M3BsP9HJnUxPjxCilsXQ8HaPBFOHCIxHAxIPZSbFEBs7mRFHAw/BKArgkkp6JDRLQ5qyuL+ztXVsoAB6F4xWrVQ1lFc4HQI9WF209VDbMNEgkKTqVYZ9ddMQFGhSCjcKxLXECc9QcOxgKcuKaCmF83kHOrkF6+fnR+pdfzm0XNNaIZrUUW7wyyQBNjt18m4A4NUQxjhThQCeNiaBBsjc65BAFMe2SCfG4nNHhDGqQ5EjFhtKyxxlMxNWO9+u/FKsX87+qHi2trKxUlos6YrNsL4ufPptAQGt3xt8iIELSNCQZTkbw0GzcZU9EgqEpeolIoSkHiSdoNkGDfohvnHQkNEOdYJBoix3vB4BcZwkUN/9xeV/XNK209LqkYERj8QLKzQc+Bsj3aLWXtnvTUsxLh2qAODERDLvsdNqhpkPUIY26HZ4ETWVU/wx1CClwVGp8ml4amko4PJ3vd1ZAn/54CXxPwKaVdud7iTEWx+/VAD273ktN1QyQOET9zAvj5xgNu0bcYFjgmCJSyB5P0Sie6acReWbGAW8RnxlCN975wc8O6J+XWJiolO8eWIvkDXWZvc5c0IWJCd/YbA/lmBkgaYh6RUMhBWGahtPs9TmHO8iNuuNJmlIz8Ux6xJ2mSRk0jZOl8FSkW6F4ZhP7SWUDiy/tpx/vW7pOzd/kbmAhj+K72ktBbwYITOeSKOInUZLQxCAOAoVSs1QczTpi9SaeESd1Siw8IoMGdO3Jb/ZK5dLK+s/KNgvXqbcfjt9rAHq0mrd+YzNAfDqYlZkmQ2hIE5kwFOIAKIOAZgBQdDjl9aZS/mEAZLiEAQO6urC/fLR+d/1oactSAc8ZgPjVyRqfCxO3x/Jv0UmrYFes0kW4JE2yQBECn7R9xDAxo+Lh8cRpTJYETlRlBCR2vl9/gI6L+as3lVLx5cuX29dKmpUz6z2xV3wX6oDW7tx8i4AE/1TQhS8se+lMnLhGEnCs4KRRMeSOD0MMAArlSEQ8Wah48Fw8kcJQchCAGlUNiJ31jac/363MWzmTAeIC+asAyNChCd9kznr3oXllFdz0VDSVSoG/CYMB2Wk0Hfe6gx4p5HbIozSZjvtDNMV7acgf949Sv8M+4sp0vl+/gBqRdAGqYi+qTw6r35StngplGBTyDQ2aWFu13gNtXhfjpLTdqKxmoJjyU/fUlJva4xwCInKIjrgpdQq8lKJ0JkgvSWKI0mjny50V0OYvqrtz959/vVHWLaoBAspfuXUM6ILvRs5yOWapRVF0pIZSHhEPlh2yHHb6PUSSI2BURMoMDfk9WBcTVa8z7EH78w9n3nYc1ATol4/nnn99raBb7g9j7fVX62UYc0I91OitAKpXSzmO54xaKm5BDeLqzgb31T+xQqNj5e7MJvarYnX58ec7B2XdkpNmJwu5R75jQL61W2OzVsc3mgPC8kuo90lwPJTxArYCqengqAqAoBor1XYLAs8aPDihcyFxdkA3FWXr4Kvq0dzKlslJ9TGwnBJYvTXRpEG+Z3dmifAWARHSAGT8AVhGKE2JjQNamha7VQXPXsznsBDb2547qlgDhAVg/kaThaGbvniTE62pUCugE31YJ45sFtGfcnk4rmmHtTc9e6Cobx282p2bWymWdNK9n90AxBldqs2ALlx4dD1gcYx1v4CE2iZy3oA2f1GZ210plXBkB28V0OVHPl8LoNsPcgFbYJCAoNQSW0+y9qJnB/TR+tHu9kYBm1qtARJt+avPWvlg91jeEp8T/WI9AKod0fLZQg+2wAD13J3WZGI3t3YOH0NRv23VxGz51Yu+iROAnt3IB5TenXSvgDrBGiSgHKcUNraXDp8czlsBBHfKj02e4AMF2Qc5a63Zf3uAbmo4sqxQevrUpKrB1QDZxptddK24n3h0ZdZSj1FtdMf5iehEQL326jcV8//0Ymdn6cWLnVev5rtfA0fIoIXNXjbaEg02E4a1Ydu9ZUA06q/JcKv4m6V1l3fY7zV+e4d7Eb83crba/OY/VSpz9+H/o91S98oG42OzBXJXDSa+Zz7sen5W+2ty1VJlBQAlKJ0K9ixTTEamej6V0j4UtjmSLjMpVV4Vuo/g5AxAs9cfYUuHz/fo3jOop07euVhrvL9sqWkanEE0MdqPhGqNraGI8XckYvG8hONMgD7DyIZXlIOHJaW7oTL9IazHeeLC2sXL6Kt9kzdWP3hmeKEvZi2pUO9Pa4jHABTr49TehxU1AcoLbFqBVr570B0QC5QVZfX2xAToz8XL45cZoLH86gdr4I6wQOx5uHUPpRhRqTsWHaURTrAS/5wq8voGdFMvgCwUinPzXQGxmUHKovLgGZgT6E/u5pVJIIWDFMfv3fbhx1XrI/H6AjQtExedbrNvEIAaTvoXS8+fP195/vyoamJiDNDs6od41gfX84uLV24xQAFhcXXzEQ5KZ+MVexo1bV0YIA8JG4D6sZqepKlv/pePK5WHlcPPd0omTYosCpq9s+bzPbv6BdQrZgEQmliA52y5sYtrvrW/Xg+Y1Fb6lxogf90HDRhQc7fPfKlU2tgoFzQzFwsuWln9669v3bmeC4DF5esahPaaW73xww8/fHB+gAYtxxqk63vPP9ndfbVhXgQpAeUfPrh6PWfjJZ5v0iAUZfbmlTuXzwHQ9AAu3kaOARWKR0dzc3NHn5fM6lIKHpDPYbWdQyJNgDBI0hZhDzcIQNgYJJFM3Qf14XN7l2MT+9HjpZKu6fuVpbKJDgEgHC4MysMipxZAbKg+m4c2AAXCKwrNTvo8AW3+pFJQeF7Q9l/PmwLCAedAh+NOaRCrhg3wm1XjcRcCctHRTNwhDew+DWke/oItiQGl/JsDE0Acq43huYbTuTLZAMSxOT+D4gPg/YnEDI2gBk0lspHO46XelvBNgCq6wgsBrWSqQcdS06DJJic9qPindj9pGmq4MdCg4Ai1p4WB3akux5H0pz9Y/6rM25SD6u5WD4A47hwBYf8hZ6dRThBFidLUOfig5r75F08OQB+Wn8ybBkINOWdAICL46KAXyLhpUjpXQHcKhZWirijb13Stp/vaWgCRQU99ljgvzca5KA2p51GKNWnQtU/u3q2UyfOl0jsNSOCEKE16R2icnEcg1DR44R+PVoqHL/Ti8lKhpyQB5wwIAiFPhKID4vuqnvcox7X5T/9SLQCdDe3gtUmT6wk5Bciy9Pd2cFJ6hsaEvjoBe0baVJv/y46mlQ/3lPLcwdlMzKKc5bv3ZuW+zpN6/1aaIuk3urbwm22tXDELFFulT0BQr5oOTk2N9C7sJPtI76cGHWcbBjx3oC8cfr2wN9ezid3qBxD2aozMuM9Ppmi6yyBPE0C+tc0fHS0vVQ9fv1w2raxaA2SCCwCN0qG449wkHQNAvZcfTYMXKtXdyuvX1a/KimVPhjWyPgGBjAb7m+nfn4jOs82b31wofb1XKl27VlCsdWDXxwF18kFmGoSAXISvzWsX2b+OIjb9Eg2RxBM7u4ooylHq6qPcbGowO/hqXit/VS1umQdgNo43Oujh/LMB4oyWtZ57J3oWHgcvcD3XbpvnzT/57by2sv5wfUk36ThkJzYGa54NkNB7b0yf8eFZp2R++pPKhl6u3F8w6xcjROGM7x00CNy58v8LoB8vadrB420F4qCuD2DDZmcmrHkVavOXBwUINnvUTCbjaRm18h0C0r9a3lPmTQARTps/KD4tFg/mDw7my4qy2F+gaA6I48Tw9BTUu0IptRlQ6xjOE9LxhmcG9C+H5Y1qpbC1UzHp1uD03x7NLR8dLS/Dv+q81mckbUGDoGSmEaczaaeRllkqXQF1utiZ583/6PCw+qSo/ev/2dG7A1L0p3NPS3t7ey/nfv717vK83t7ETMQUEGcjQ9Sd9kiSnEnSpNx6LvvVNFy68aEj7TMnN/nV/O7rV2Vl/5sNNl2js7Iq5Rc7C+CC9I3qSuHaclFnuTt6be6oF/NdDoi76zmj1CxN45GqIy5jk5AoEc6Bc+QFR0bE+SxEjOOMZ57rCJw3APXsvpoGkmuFhQVd00u7JY2rdW+1FXTj2AECmvSmrFdfLFzupz3IDBDLJzBdUwsxHY3j3yjTEonPxPzomlRHkNKsA4rUIdwz4yECPzhAhZ0qyG+ru3fvVw+6A/q8qHPAUC9+joAKAwEkYAdGyxsN0axzOBWiSeJwUxpLRWjIHknFaEwmUfDj/hilns5mdmZAmx+tv379+vCwcvff7j78HXihjoOgFH2nsl8qFEr7lZ1y6fGBdvnYxPDub0mDsOFQxTcSPKpHVT1kNItD6DzBrOSwj3gJidvpJYHIWXvGQRNob5doTBAGB+jHlb0NlL2H35a2uuVesCml3bndly8/ubtbKq1XyrNNgKz3apj6IKKOMkBEjUUikdCQFI8TCUiNuNW4PSTxvJoAm+I901OZKHUSWRY9NKsOToM+/einmo65KcrFMvzsPDMNVAuO+e1hZalY0ud3StrJQPEtalCGAUrMzLjRkOLO2GgiEZxBQDIACmVVnvdEpuLTNJSMgVB7uuMEjrMD+tEnKytFkFcr5fJOkesy4cJGlMK1a9c2Fso6ZrNgA+7feinGEyFJvYaJeTwumsQZrDPJVKoGCMFlVdSgIADKJuC/mUQkPkBAH61/vH50hENgtraWq4qtS46u8sry8vLc3NzyC03RlPzlVkDWxEIplqJuI9zghXgwKc1QP/7hNkwMTDCUhZJdnqbxGI6hl3D+YeeuoD4BNcVBOIJzAX7gEDNN57pM+1KWjnaXwActLf1OgsIuf5ZAsRsgOUSjxgQxOUqj6akEpl0ihg9CE0sYJkbjKRYPQOA9JL19QI1I+lclkK2tUqms2RrS7hwo5ncK9aoqL3aqrJqIOSCOpEdoMq6qanyU0qhqd6uSrDqpO4OABC6TmFHB/gCQxx4cliXPJRrp/PZnBvTpvzw+Wv9yHaxsbt4M0PJTnU2641ADBwaICMSVgPAvMUPdyZEYVMzc0eRMltpVx1RC5kkm64ZSTgZAxOWmkWiIJuIDBLT5i4Pi/v5+8dXySjnQHVBhCTQICXGY9vFszR1dmw3AEfuTo4npobjsD0vS8HQiksoMOWV1aFgCC0ylwFVLw04PRxyXIonpVLxLU8iZAV2dxYe1KYWdnXJnDcKWVqVQer23sLFRRm8FMjBASIiXPR5ZBDctEkGQVQ/WwzhBElkFBNwyJs9BZZPgMIEfhJM+ThNoC+AIMWX+sIuJYfyoaDs42vPhw8rnv9OUxYEBYhPhmYsmLNUbByiIyLHGs1phzh+3DRkJTTsTOHMpdvUmayOEQPF1N0CEg0NeVKtvKpVK9c2BoUF99YvVmjvqMFradJoOOp67e7zPUBSDSGP2PDukGXjrNdmkXttZZhwubEDst3Ft75OH+7ZOVWKIr7G5FeOBBYwJdAiD+tQg0iugE/vqmtP2vDbXPDugXz5efvx4efno6Jty2/uxRTiIsnVQLsw/LRa3Meqe17SBatBb3HdmQJu/+Oqr4tOnT4v72OvTGdDBvx/o/3eZNbcuP36ho4l17Fk1KnQCd+phOf67AnRyK2s/Msy0K6Bnf/p9obCxt729t4eJXI3OvNOAoBZWni/rpeI8E4TJc4tNczVOADrOeHxKjEm93LkDaitGK0kXQL5H//HHwn7l7sfrcxWozHPtWy2wKxU0RtOXigW2OECxUgb96GRixnglIruGoicl6ULlOn8N4nhPMnnyYZx+te70OwKa/PMf/njt8effQKBYfVLUOwAiODeDlA9+ev8/f/pTOHS78qYMcUEnJ43pc0iG9duckigb3WEWB71NMVJT8Jl2TxNMuDr2hhiA/vRf//3Hf66UFEHRC0/riQVOAeIUTPky/3j944+/hCrJ+vryQcBGuPaAOAQkDVHqHk1eGmqWS6kQddYA8ZJ4FhGs7xNYTnui0qyz9Wmc0ekZSkfl9mOHanHQn/7wP7//MU5FIIpWPjzoBAg1SNH3v6188u23e3vwv26zCR00CCM3eCZ7FDP2tjyqRLAFECREY6nWpx2oJHBauEqTnuYlc0RMZulJJbDFv21cY0TSf/qvP//+B2/A49oCSqmjBhlFN/ig+Xld08vz82VNsUmd4yAhRbNhwOS/dMLos4YGhc681EqPkkYTmznphDDpcjxCI3K7qKQB6L//eK1SLGiaXtipljr4oFqLM6eVv/mdtlFdfrxU5kjHyqpA1BG7SySeWJtHdULBQdKtGRYGL572PijkACVyU2+7ZuYaoGf/84e/vJqbw2V9Xh7tdgCEDoht17/5cl/bXn/+87miJnSuzZMUjULtKUZD/vRJUYlwHrPhTghEPdLJJ3Glp+koFGPDNCa1txkENHH7z395jctC4QJRla22JlbLy8XbtHKlqOu7cwsLT39bVroAiuF0E5nOOEhrEQF1dLGWSKreTcML8PB8LXITWstnXuDre07v45t+ntgnsHOMSW0C3shI8X4ctrIaFeFlzGNEZDrqadffWAPku/X7BUxMAa6lrAlte28w3YKNVcbAjesbr19q+sFhGbx2RxObpn68ccLTSFdnPJEgiPWVMhrRx+DjoBpiIwH+sQC2KGWAQiprEjAGetZfpVaKTfjWrn7GVq0BCCLfFhCp1+4V0KDC0ydPNb1YLZNOxTzchwHyAKAWFN+hHFf2m6AKYhLzGEk4O6YFkPEyjUGcV3NgP6xPnu1TOubc4zl9qfJt9cmGXqq80IitIyD+HQTURnghCc9pADquGBmAcPHZZkCc0Q7P4zxCpX1SaTxNK939ty+X9NLhw30FkzB0qs2/c4DaSgug+uI7Rg4ylsruJCBmZwBosf26COilA9rWPkRCC09LGtY+OtbmmwG9u9IMiOeIkSFyNjc7azgccgwIHTDhFwP5z8YDROmQqY0BWoRQsVh8Wtyfx5ShHWvzf2OAEiqzQQPQle+NrbLUAC2AcMJ37vqD//1e3tZt0D546cePoSp2tF7VWDH/96FBCWPVEmZWuS/+envy3ipbrqiRBQ9b5HOrF2/9+sMrAMjWeekR7U1le3tu+9v/vP+t1q3JtQUQd34V9x7EhqEYAiI1QGBjAYio8uN3fL61yc1xNLM6IF7Jr169tebz3Vk1ALXY2PG7swFUpcfX9PLSQQdArIGOj9UAseGF4jvopDlcU0rgsJgnzAdhYYJOiLMFLk9iop9712cD+bqJibNX7q35mDdp06XRAuhA21re07Tim7IWaAdIkD0ejxypAVJlWfZ0bFr8DoUTPficMQNQIg6P6RFr8dH4gzV4q7WLlz/7rAYon7+Ca6xMrD0YNwVU1AvL32o4BE+xBdoAklKR2HTMHmSARqZjsVhk8DkA+hApNQ3POWMAGonAc05LNUCLqyyH3dqjsc9WjWnh49cv4ipGE42Evk2AWgJr8NG7Jb26u7DwvFIOtK+LOWZYPXm4kZLNe86vblFqz8mqRLUnrgMav/MM15Vbe3TjugFojKX5m/DdywWMGKkjIG1//U1573Hl/pffaEL7BjMuBXdV4zJE8pmMI0GTUu8Tbc5BOC4VpGEPPKfAxTOOENTo67XGwM2xW+CFIIC5vYnjn9buTbK8o77JG/kAx1xVJ0CcopeKZa1YmVspcx1r8046Q4xavOCkIVl4F/lgYRKlWdaZLeJiOQmJNADNjn+wdoEReubD5H4XEBcA+iCXt5kCmv+qrOsbu3sFpSMgXPnC6DlPU3uGdO54+g4Fn05iaoNlrIva40Ssm1ggn7t8myGZ8NWysBqpWC/PBk4DahFFf/qkWta0cnVuX9M6tgfFp8BHQ/VYDU4Nv5PqU/vK4nTKi81TGXvQKzY1FgUC45jS72S248kcYe1I3QCVq7giq6CUqkvlzoAIy7HBiSEalTsPmf3OhSNheE6I00Dj5abUlVAnzW2unUwHfWHt6iygMwMEcZBCBJsGxfxiQFlsD0gUYpgqyokNZu9gkFgXKDyi+JyXaMjD1YMgA1CelfStGvRoNYAhtBmgosZjNq8aoPa1eU5QszTlH6GOc2vqON2GaCLsHF4N0VQ4ONW6dDk2H+bvnMq4fmeWtSt2B7RVrW7gSCJsMAt0BAT+Lk5pkA4Rsf4w7wCSU4BQHPZgkPVEtQACAmPPWgFNrF3BJXpNTIyQ/aPKyt72N3PL8yRg62RiuHi1n9JI/S3eQUCNy7DnbN1nUzg+8MVkq435Hq1iAkCTUozw2n51GeTNvo7rsbY4aaa1xuhvkSdyErOQvD04J8dWvSUNImLULTY38DAAPG8bv9q6sMrag1VULM4MkKKVtp+vbG8ouGZ2KyAh7h32+r3wA//5k7HeEqt3F6+XLYzN3svlrW05i9QvG47Gws0p4L1eFbsBObbOdxOgySsQJfKcmQYp+v7SbqWy9M3WqVGuOPFxoOKoAxod7H3SrJ80/8W9ZhubuLeaz+Mqz2aASnPr91eW7n/8cOvUMGDJSadTQ43hHJe6jSboWZyJY0ARvM/bui4OoWh61JQ7mCaKAoA+Y6vsTtTWfPA9yOUDYD+KSSmmVSslHD9VevgCjj0FKIyDTTCjhmh8EOoJNyyk2OgunlgToKCXnPmCHYSEEBAHTig/dttXW6EQIGE91YbLhFuIg7Cn12gPOgXIxXNG/1vzKL6WQqNfkU8AGpiEWF4a7HZmbUH1asbF6wF8KeamOwLCtXyrRR1ICjip92STKwIypiWxMq1vaXfqKUDmnc0m0g2QMZKlqRybWMOVdnFjRyfN+hptiv7V0gaa2MLLnYKutcRBhGkQhkPG9etjmQlpGXZg9i5QT+kbUG1qOAs2zL4hc0A3x243LOz22KzSyFbTGVAgoBXnXj4FeTX3snhwoLYDxPN1BWLDNEWpeQEDwvSLq71GO1hE5FsON96+AQg3tgNESH1YLU7isLBoVFs6bPxtujZ8IfDFo9qaPBNQD1NqB3TqE2MvbbNpP1s/egLC0lP8u0vpCMgYTcGlnclYMqU2JgzEnRleqr9oOpo59R4NbegdECGedDicwf4KTvX0pUE1QGy3LfDZvQagezlzN8qxYYyYl+Lra6US/L5W0rpoEJteEhthkUXCZbw1DxX8ev2Mw2wB/mYY7LFkjyCcegtrgDzO7MjU1EwsQ4iUjR1/KR0BnebUDIjYcndq9bEJXMDRTNhAaU1nczd1XdNZkpzm7C+nNIiQLHV7VVlN0qk0MVZn8idw+K9gtFI76+3k7Fkl5jsgVGjkUOgNkJqlNBSdHsGIEnu6agxEvCzP7ohDtcQaG0FoNz2oFdDs5Vqbh+/WmPmSPOCXDt5UqtUKJmnYmdcx//iJSLoFEEENCXmYH/LjSDdQDJzURCRQRYl9MgCBV5Y4UZQk9M6wzUGOG/esAxI9CcqScGNbvCwFR42+UmMyFfNPtW8F6Qt4d0E8bWstgLjF1R/WAF1cDZhOqIQi7OBwF6oZKHNHL3We57sB4jjPDHURSeREiPJCqpqKZ5zJsDdDBDkcjSTDHgOQlE7FCYmnYjFnXJRcIRp1yaQPDQrTiMqGkElJmhIBkMcRz0jYKOaJO+KqCDgkNR6PqziqDzY5VOm0L2oBRHARLAPQvfGAmQ+CQkzRSw15ebQvtAPE1cpCHGnvmpoRavbjiWO/QYJmQzRFPEk6M52lSfkS/CEN0VCGuGbo6HSQetVp8FgzKi/0DIgLMXVEy4mnHFIwlIpQ6saJm3G8ZnZIFqThBH7yyySNm+xOuU2w0AxImR1bMwBt3mw/ZKqJD19b9YDj2FCrUuVn2qnKqgGI1Io8gjO2a76Q4F806shEaQrqtNG4J5Okw04ANESnVeKZsg+ranxkJKzGaCouNYIY64BEHDDaOEmemgomw/7giIvEs3TIFR6lSZKmCb8r7MkS1+IAAAXaSURBVKZhNUFT6XCEOk8Ntz0BSFm9jS76wtp109Ut647FeF+bWHhZKSvtNYjU54s5awt440OLiEtibkemCVy3Wh1NRWnYD3wkVraBpGlMwMX2QA+EXgHJqIgNywRAKfAzQ3RIAIPDuyVofAh7UUk6ATfFB4tHnNLJLpcTgLgctppBmDhuvvxnHRBTIxunv4K6WOsgzlZAUO1zwrdWL00RUJT5bX+GRrHXFdwnOHHsVeBIdmrI4Uqnw+DU8RpE4PheAXmMcYa1IyRwSBx2dzkzCcr2p6gTviI2N4LzGsOTRfFUl1RrKWaz5e5hbcM3CYBMfRBWIbBkZISUwss33QFB6eUNhoxZIqyATwEujIP8aXoJPYUkYtakEfiOCbHXWmKCiTgU89zx6mHWAeEIjVrMwLGRzzhmLA3W5Q5i8mD7FMDH24yGZSNrd8jrOd3geRJQ/savcSTM1Zz50o1MebS66KXXmO6su4k5RkbY8CCA4R+SU0yv4f0BkNGHid1CGbcdNMY+MuQCCYfTEjOxhlgHBNdwsUId7qZ6WgBNj0ZQnER1RrKYtop4UtOJKUr9EjmhQ62AArb85Vu+C77bN/IdIu+GsAmHWnm+Lk9fv55XFrWuTpoTQsz8cebG1FQGNQjNzq/SmIcXiRT3oJP2Y8dUCAfLgMRVgoD4PgJFLgqKyUo/0NUhqQHIkQ0SyShLBXjEjDdJY7JARDWctNNTs3xOAoLqGAC6dXnWrHEd66+KcvDkcNmQJ4dF3Ta72CYOYqE9zzIzwPO5/ahDEEpHpTqgYdltxxaXtD3lpF4iJ8FB+40Yz+WOMidNTmoQqbUH1WoH7QDxceoOs21qiKbZmDEE5MT8HnhwesjhT+FNwJunnBhFeqapekqDSAsgzpa/A4AufhEwA4RVeUWZf7lSk/myhiNe27YH1UIhuCLEPiMx55AzBKbEfBBaFSpNIuXwZoMuUCdOgK/YIY7SaX86NQPFzCX4pDYQtQCKG99xBw0SU3TGGVcz/giNSXKQaZCDRsUhltYjDqVYki1W76VJJytQ09kp6bSbbvFBEOl9CoCuYmu9CSDMS8Fpmm6IxtJ32Nq0KDYDAkJpN3O+SY/I1TUoxUnDlIIH8HJISwJyMxLEjrjJLxCHnYK9nU5HZgaIEaLumZkg2CwvGxqEuZmEGHWPjtqpk2SmgonREB1xeOAbw03hdnpxAtCVZ761G1YAIQ6uHg7VxQSQgH3QLn8a82zwIsQ7IifJGPPLadgIJY8HY1nBA3s4NTzsMNwE5ktsa2LdALGCLxPNurPTcGVejA7JuF7btB90Jjw6Yo84oOT0RGdG7FGwM2koC5viQrvVjZsBcbyyOrm2djlvM6uJYUOs0hhgzlrV+FPpcVoBEdL0gsZHrtbaU9/W8XZt9phpUHNQXL+P0TzXurXlxu3GJzcDgpJ79eKvJ68rvFkmCRyYh/UMm3HxWrMj1x1Qh4aYFul+2x4AWbiXtQdoqs2DySjjd359cdUCICznm1oyjBWN2zR3DBKQ49wBKTYht/nhB+MKWz3NIiBinMqyUbZE0japv9T61qQV0PCA7kKaAaEWBHJXvn9jnKWW7EqoPiezsQGvABtmx+qA4JoAyC95BiSZ6WMTmw6m5EHdR040m1ggn1v93vUcvF6XxIAojOApO4Q4agyXMoZQHA+QonTEbR+UBJs0iI4M7DYQZTQBsgXy41fG8zZTDWoPCCpz17//6NajH14JMECXBvjcIA1AsYHeZ6bR/0YQUG41F+gbEGebHV9dXR3H0cNYjMmDFEmohwoDvY+nKb03zmxBYb2C3fh01CCIFY35wDiV09hdr6xaTBvIWxQO89iQliCmtsPyrSw9ANc0YbcW73IWbtEBEOoemzxlO44Mj2vzVh6vhwJZ4Bp9WdypxE09UunyBI0HZ1TqgY35l9DOBGvQjAmwLRc425faXpoj8I4dwG/hNi2RSg+28N3LoEKs7+o+7+W9vJf38l7ey3t5x+X/AZTBeCxVJpvjAAAAAElFTkSuQmCC;" parent="s4cVGN5ixAptYRdhklgE-1" vertex="1">
                    <mxGeometry x="-70" y="505" width="288" height="175" as="geometry"/>
                </mxCell>
                <mxCell id="xUJpvo9hYr-8eV1Kpgyb-1" value="" style="shape=image;verticalLabelPosition=bottom;labelBackgroundColor=#ffffff;verticalAlign=top;aspect=fixed;imageAspect=0;image=https://1.bp.blogspot.com/-ovKgNGSYe_Q/VhvostH8T4I/AAAAAAAAJKk/PSBy5sWCI2A/s1600/BlockDigm.PNG;" parent="s4cVGN5ixAptYRdhklgE-1" vertex="1">
                    <mxGeometry x="-130" y="930" width="989.81" height="710" as="geometry"/>
                </mxCell>
                <mxCell id="xUJpvo9hYr-8eV1Kpgyb-3" value="" style="shape=image;verticalLabelPosition=bottom;labelBackgroundColor=#ffffff;verticalAlign=top;aspect=fixed;imageAspect=0;image=https://chortle.ccsu.edu/java5/notes/chap82/ioHierarchyTop.gif;" parent="s4cVGN5ixAptYRdhklgE-1" vertex="1">
                    <mxGeometry x="-670" y="1080" width="520.69" height="290.38" as="geometry"/>
                </mxCell>
                <mxCell id="xUJpvo9hYr-8eV1Kpgyb-5" value="" style="shape=image;verticalLabelPosition=bottom;labelBackgroundColor=#ffffff;verticalAlign=top;aspect=fixed;imageAspect=0;image=http://web.deu.edu.tr/doc/oreily/java/fclass/figs/jfc_1101.gif;" parent="s4cVGN5ixAptYRdhklgE-1" vertex="1">
                    <mxGeometry x="-1580" y="3690" width="1390" height="1948.25" as="geometry"/>
                </mxCell>
                <mxCell id="xUJpvo9hYr-8eV1Kpgyb-6" value="" style="shape=image;verticalLabelPosition=bottom;labelBackgroundColor=#ffffff;verticalAlign=top;aspect=fixed;imageAspect=0;image=http://web.deu.edu.tr/doc/oreily/java/fclass/figs/jfc_1102.gif;" parent="s4cVGN5ixAptYRdhklgE-1" vertex="1">
                    <mxGeometry x="-140" y="3840" width="1326.96" height="830" as="geometry"/>
                </mxCell>
            </root>
        </mxGraphModel>
    </diagram>
    <diagram id="OTGcovlcIeNXrdLem8ZZ" name="Exception Hanlding">
        <mxGraphModel dx="2114" dy="600" grid="1" gridSize="10" guides="1" tooltips="1" connect="1" arrows="1" fold="1" page="1" pageScale="1" pageWidth="850" pageHeight="1100" math="0" shadow="0">
            <root>
                <mxCell id="UUkdnlpk1cEEJdilLdfZ-0"/>
                <mxCell id="UUkdnlpk1cEEJdilLdfZ-1" parent="UUkdnlpk1cEEJdilLdfZ-0"/>
                <mxCell id="UUkdnlpk1cEEJdilLdfZ-2" value="" style="shape=image;verticalLabelPosition=bottom;labelBackgroundColor=#ffffff;verticalAlign=top;aspect=fixed;imageAspect=0;image=http://www.hacktrix.com/wp-content/uploads/2013/05/Checked-and-Unchecked-Exceptions-in-Java.png;" vertex="1" parent="UUkdnlpk1cEEJdilLdfZ-1">
                    <mxGeometry x="-180" y="40" width="520" height="262" as="geometry"/>
                </mxCell>
                <mxCell id="UUkdnlpk1cEEJdilLdfZ-3" value="" style="shape=image;verticalLabelPosition=bottom;labelBackgroundColor=#ffffff;verticalAlign=top;aspect=fixed;imageAspect=0;image=https://i.stack.imgur.com/f0ezt.jpg;" vertex="1" parent="UUkdnlpk1cEEJdilLdfZ-1">
                    <mxGeometry x="370" y="30" width="520" height="488" as="geometry"/>
                </mxCell>
                <mxCell id="UUkdnlpk1cEEJdilLdfZ-5" value="" style="shape=image;verticalLabelPosition=bottom;labelBackgroundColor=#ffffff;verticalAlign=top;aspect=fixed;imageAspect=0;image=https://www.logicbig.com/tutorials/core-java-tutorial/java-language/checked-unchecked-exceptions/images/diff.png;" vertex="1" parent="UUkdnlpk1cEEJdilLdfZ-1">
                    <mxGeometry x="-250" y="390" width="715.28" height="630" as="geometry"/>
                </mxCell>
                <mxCell id="UUkdnlpk1cEEJdilLdfZ-6" value="" style="shape=image;verticalLabelPosition=bottom;labelBackgroundColor=#ffffff;verticalAlign=top;aspect=fixed;imageAspect=0;image=https://sematext.com/wp-content/uploads/2021/09/java-exceptions-1.png;" vertex="1" parent="UUkdnlpk1cEEJdilLdfZ-1">
                    <mxGeometry x="-360" y="1050" width="1134.16" height="530" as="geometry"/>
                </mxCell>
            </root>
        </mxGraphModel>
    </diagram>
    <diagram id="QoN7KUwHqVrzJ1AVT9rj" name="Collections">
        <mxGraphModel dx="2223" dy="1898" grid="1" gridSize="10" guides="1" tooltips="1" connect="1" arrows="1" fold="1" page="1" pageScale="1" pageWidth="850" pageHeight="1100" math="0" shadow="0">
            <root>
                <mxCell id="rIZx2r6VnLa3uUgruej9-0"/>
                <mxCell id="rIZx2r6VnLa3uUgruej9-1" parent="rIZx2r6VnLa3uUgruej9-0"/>
                <mxCell id="-LCjP4ljv7rW6iZ6rMR7-1" value="LIST  (DUPLICATES)" style="shape=image;verticalLabelPosition=bottom;labelBackgroundColor=#ffffff;verticalAlign=top;aspect=fixed;imageAspect=0;image=data:image/jpeg,/9j/4AAQSkZJRgABAQAAAQABAAD/2wCEAAkGBxMTEhUSExISFhMWFxYWFxcXFhoXGBoVFRYXFxgVFxYYHSggGBolGxgYIjEhJykrLi4uFx8zODMtNygtLisBCgoKDg0OGhAQGy0lHyUtLy0tNS0tKy0tLi0tLy0tLS8tLy0rLS0tLS0vLS0tLSstLS0tLS0tLS0tLS0tKy0tLf/AABEIALcBEwMBIgACEQEDEQH/xAAbAAEAAgMBAQAAAAAAAAAAAAAABQYCAwQBB//EAEUQAAEDAgMFBAYHBQYHAQAAAAEAAhEDIQQSMQUiQVFhE3GBkQYyUoKhsSNCYnKSwdEUQ2Pw8RWDssLS4QczU5Ois+Kj/8QAGgEBAAMBAQEAAAAAAAAAAAAAAAIDBAEFBv/EADkRAAIBAgMFBgMGBQUAAAAAAAABEQIDEiExBEFRYZEFcYGh0fATIsEjQlJTkrEUMnKy4UNiwtLx/9oADAMBAAIRAxEAPwD7iiIgCIiAIiIAiIgCIiAIiIAiIgCIiAIiIAiIgCLFzgNUY4G4MhAZIiIAiIgCIiAIiIAiIgCIiAIiIAiIgCIiAIiIAiIgCIiAItNas1jS5zg1o1JMAeJVbxPpO6o/ssJSNV3FxBDR8rdSR4qFddNOpfY2a5enAslq3kl3t5FqRR1KpXbeoGFv2SZHPUBd1KoHCRoplBrxWIbTYXvcGtaJJKpuI9M6pJ7NlMNm2YEmOsECVo9IcXVr4jEUTDaeGYajRrmIDSS7wcqztpr6NZ9IFpDTAJFyCAfzXs7FsNDyrh1NTySy8/mX7bjLdvwpWkx45+jLI/0txJ9gdzf1JXO/0kxR/fEdzWD/ACqqnE1PaHksDWf/ANQ/Bemuz7a+7T0n6Gb+K7/fiWZ+2cQda9XwcR8lpfjah1qVD3vcfmVXC88Xu815bi4+ZVy2RLSOhB7Ty8y3bG2acQ+D6gu4/kOpX0fDMDWNa0AAAAAaACyp/oliWMw9VxIDWljiehoUp+IKlNhbYq1v3MNk7xdGVvAERd0Xjqvnttdy5U/w0xv4qepvt1U0pcWWJERecXhERAEREAREQBERAEREAREQBERAEREAREQBEWnFVcjS7l8zYIDaVWtqelVNp7KiDWqmwDZLZ7xd3h5hclfZ+LxbyKruyoA2DdXjmG/m49wU/szZFKgIpsAJ1cbuPe78tFTNdemS4vXob1Rs9hJ3Hjq/CtF/VVr4LTe0QVHYFfEOFTGVCG6ik0xHQxYeEnqrLg8HTpNDKbGtaOAHxPM9SupcWL2gxhDZl5sGjUnkp00U0ZlF/arl6FVlStEskvD6vM7JUDT2g0l7abxBdqZEEHK8AGJiPgSt2Ko1HsLqrsrRfIDE9C7mfzXBVDRSYGUwKbDkkQBfpqAdZ5lSKUl4+XvQrO2qj6e0qjXwe3oubmiAQ6nlHddqrfpPXqVKwqNa49pTpkw0mHZQ0gwNd1fS9qVROGrn2ocerXD/AOlG7aqN+jgi2dn4ajo8wZXubJtOGu3VGeHD3xM+VNP6eZ5G1uKLlPCqeuH/ALPqfNGYXEu0pVPwx81n/ZOLP7p//h/qV5FYL3tgvWfaFe6hefqeTPMo39hYs/U83j8pWTfRzF/wx75/RXXtwvDXCLtC9wXn6kW8jd6IejFbIRiKgNLM05GzvOp5gMzuQnToOQV7YGsbwa1o7gB+ShtmbTpsolzj9eABqS4NMNHEypDDUzU36nA7rNWtjQn2nddBw5n5jartdy46rj6fRfV+h9JYSVKjX3r55EiCvURZTSEREAREQBERAEREAREQBERAEREAREQBERAFi9oIg6LJEBw1HmlB1YSAek2nzW6riWtsTeJgXPgAvcbRzsc3mFCVagJYXNLswIIABPaAZTr1DfNDsDDY+riHvY0GlTBgOc0h7gLOgHkYv18/cR2VOG07vmC43E2uXaWdlKxkg73EZiASQb5XAz8h1XJX2qwfRhzXEio1sy1phrXOGdrSJIyuBjQiJuoaassh1v5KenJZtvq3PM68RjGNBqV3js4I0MtljXAtaNdSNJmFF7G2s2uK1BrYJZmbyc4NEHxGX8BUTjNmmu4OFV7pzODiGvbleDLc1IkgWDhugSVybGwlWjWpVBlfBE5HScrXFrtz1rU3OERqFS7lWJZZG+jZrPw38819Enu4cJnmuBYdpxUwlRpJkZKjSNQSQxxHS/xUFV2G1rXu7WoS0AjeHO/DqpvadMAVGAAwXAcbA7sdzcvxURSc4sAMyTcQdJ0+Eqrab92i4lTU18rahtQ3lu4/LPcfM7Xs3xb1ajW3l3rEl/dS+pyNwwHF58T+Sz7MRqfM/qsqWArHSk7yhdNPYtY6tj3mleS+09qf+tX+ur1PAo7P2yr+W3V+lrzhI4HUh7RWBpfacpkbAq82jx/SVk30dqe3THgSoPtLafza/wBVXqXrsfb39x9Uv+RGYIw5skm4Im8TZXfDYqoajwwjKCG3uBEyfMke6FB0fR50yaotGjD+qs2GoimwNGg1J1PMkrZsNV2/idTaUptzm9ct/i+C5nudnbJe2Wl/GjPTOevVkjRqBwkODuoM/JbVWq+EZL6jM1N2Sm8Fpy2LnBxgdBK6RWr0y4S2q1rmtvuuOcNjpq6Lr2U5Um+CcRRtPazZLXtcwgwZFp7wpBrgRINlI4ZIiIAiIgCIiAIiIAiIgCIiAIiIAiIgCIiAKAxtItL2jVpFZneIDv8AKVPqN2o2CypwBh33XWPznwQHHjHiBUGgIf7lQQ4d8z+JUradM0nuHGk8VG/dpuAcP+1Up/8AbV0oMhpputDn05PsuuD4PHxVX22GnI8+rIp1DwywabpJ13Kgcfuqu5pJs2N/aYXmnlHHgvHTxIx57M2v2VSW9ab4e0Dpu0R75WWI2k6nml+dtOs12+A+aNUWylwJFwQCOa102uIYDd5a6gbfvKRgO8X9n4UypXA7CzNFSqBBpMY5syCwVCabzzMMaPeKpVL+7795dDbVcopS+Jn9c1PWKuXzIkcLidwZgAA5zNd2GuIa6HSILQCu5uIA4iLzI4kRwnkorbWHApvaG7pZmA5ZBmAPWwHeVr205oacjiM7ajgQeA7N1vd7T4q+qxVW6MMavWdEk1muZjs21XGcS33KIz83055TIP8AIv8A4ZXgfyv3X+AVWOLJe4F7t+lnAD9DAqGI+64ea3jaDr7+YGgHAOhwlsBxGb7r/is9XYKqW5b8m89dZpy6ZQ9yTer4NxRL1Sea4x+2e/cywHEgLH9sHNQ7NoAmHAmaOezsws2TDKmZo9V2kLylgcPVLQBGZmYRmaYDi0nVzdQbQFkq7AuU5uvL+n0qjcySw0qbia7s/ej6E4MXxnl81JVKQqggz2fQxm8RcD5rkwmHpUm5RTDQDwuT1PE+K6K2MDRDQXOkDKNQT7XsiLz81fsex1WZWKU+UaeL4+9+C7dVVSwKI096J+JpxLHNljabMho1GtDTFmkXLSABGbne6zq4v1yWPbPYPu2dHay2QBu8eSzw7nFzM+Se0qU4bMAOp54k+toLwO5a2n6KeP7M3zpk/qtz1M7ZvqV2OLwHNM1aJjmJpg2Pco7brHgObRqPpvFRrmtYCZGS7AAYAJPJdO1MQJqAAOnIZ4COfQkQtOEb9MBJJzanX1h+ijUpUE7Vbt1qtbuOa8Sw0JytzetAnvi/xW1EUyoIiIAiIgCIiAIiIAiIgCIiAIiIAiIgC0YulmY5vMFb0QFZyS9hJMua5hvbtWCATzmBb7S17UYXNqZSRmYHt45ZFxBsYkmPsLp2jTLS9osbVWdC2A74ZT4LCs8EB8WBmP4dUZiO+c7UJp7zRs/BMi+Uu+jl2RoJFRmUOMAX7TNKzwRkdmQBDuzIvAa+XN1OudseKxwdiGn7VI+JOQ9+ZpPvLzFA58wt2jZHSpIcD3io2PFcO6s07Ve0MDnBxuAA25Li4wNNM2ceA5qvYjBQaeZ9XKx9SiM1MGWkGnGZr7CM+9HG4Vi21VGRtUAwXBw95vaAd+elHvqP27jQ5thYZ6g/EPyNQ+CrquOnR6HobIowrTE3PdEb04j5tI3civ0dnnNh3dpTOQuouzZ2lzcxLhdkTlqxrGl+TC7NqtNEfRuDe2pOLajPVqA8DBP/ADXWiV1YnFgioRP1K3uvAzR3Go3yXtbHwXkC7XUqo7n3+bmBWPbrqmavfzf56np/a1rJ68Y1q7sP5r8e45MHgcQDh5pVLNqUnkAuDWvcYdItEVD5LLZBqsOHLmOBBq0nA2iS1zSRPOp8CuqtjWtzx+7rAjueHEHT7AXQdpFhcM7oZXyOuTunNGvDcKlV2hcqlVNdOOKf7qvLgRuO5cTlJ4lzWuKOP5q8kTNDFVa0ub9HT3s7XCXuLYDQDMNGs6nd1Xe8NaIJhobFzPGBcqOw+OaA/M4Ado6mNJJkFrRa9nfNKTXVjNVjC0OzNG9wtOoBM36Kp3NEtfff1cvvPn71SpqwxC3Rv8eGkuNIhaI66uKcBNIte4GmWjQZnAtEiY1JB0UbhsbinOh7G0msbUBjjLpLdToRw5KQqnLcCwbPjTmp+a6cS3feOdQeTwD+aYW3qSt3sFt0umlt72nKyjLOP3g4ssNNtcvHvuepgrrwR+nH3v8AUViBLQP5sHrZgB9ODzcfgHqZSWNERdOBERAEREAREQBERAEREAREQBERAEREAREQEZtdsZanBph33TZ3wJ8lF0WFs0zcjMz8RzUz35g7zVhxNLMwt5hVypO6R6xBZ/eUiCx3eYZ+JDqNeUwQNbEXGoyjnru0vxldGI3mmIBnM24gZ7zM6CoCeq58TVaHZphroeOjXi/iCSf7oL3DOLi0GWtnIecVLhpBH/UaBz3iuA8DQ9oYQ0jNaXCG7wqMu0zIe3xnlKjaWyxGVwJgEDen1m9mRr7JNuq6W1MuZjIsbRo126/TmHiw5LmLnVH1CyXOIzOMgXGVp8bj8Sz3pyqSn/z1ghcquKKqJybmHxT67l57jQNjt3QWOjIaZ1O6ZOXW94v0T+xwfqHeaKbrn1Wua4N791vkufH7Q7J9YEOmnkgDLo4gOy+8QL8lh+3Ma4CHQ14pnT96DB19WAfNZcNWkOO/nE6cE33PmZFVt05fF11x1caVOnLFP+5PLFl2V9jNcH7h3sg1N8ogfBe4jZIPabvrOYdTwEX8/iuDC48Dsmw/1qrHer6zAHR632gvaO1QWtIbU3mPfoz92XGNdYZ8VCKmv5al/lS93Gvy5EVVt7pn7VZfiq4eGj6O2ojAolRgmzVMTLg4Tz3gXDwt5KUq1A1oPQ2FydLAcSoHDY91RxDGvktpvBOUC7ssa9HE9ynaZOpJvw4ACbf7rXYmXk/HvqZfbpuKqrEmm+OutUdE0lwSSyjLnFOoS4lzYcHNY3gG5XAuJ1k2+C6cU6pmpkhsk0zYnXLabdy5DtNgqdn6zoJdHAC8E8CRw1i621MW5xDiBOojSRERbSAIWlQjThgzY47tvqu49XD8z5LZsyr9PTHHeMeBH5riqYwjdaN7h0AIn/HMKV9HtnFp7V4uRA53MzHAcAh0sCIikRCIiAIiIAiIgCIiAIiIAiIgCIiAIiIAiIgCr206MOqNFpAqt6OZrHgR+BWFRu18O9wD6YBey8GwIIIInuJ80OordRjSzO+Nw6cGsqtzQLT62dt+a1Orl0gmAZaZIu61xe0vBdOtu9bG4V5v2VO3DObDXKd6JknXmvTh6mmSl41OMXME3nSPmonZON+IMW5SBNgW7rhqfqmde+VGfthZVrawWsqDjLXgS3/86Q95WGlg6jyQ2nSBEuDS8yWm0AgEO7+FhA1Wqjsp9QXbh5hzd43iQQcpFwSBIngDJ0UWpJ01QU/adUmsWzJqDEUSebx9OzvkvaPdUe/F56RIPrYdj5+3QqCk7/wk+K+iYnYNQA1MuHEE1JsYdGXXJcx9a3IRqscJ6O1HMBa2gGEENBYAQ0niIjw04mVzAX07TEZaR5OfToUj9uAe587or0K/uYhuZ3h6qYKoQ6kwn1cRWw599rWgeZcr0fReqdRh7iDuC8eqNOQAPdYBHeilUyT+zTLXT2TfXBJL9NeXERqV3Cc/iElCXuI+r6lW9GMXJogm7qbp/uqlS3lUCnsVjC/Mym7KMocKstg5iPUF5tO9ECRqu+l6KuH1aGroimwQHgBw9XjFzxXZT2LVAiadtN1sW6QipaRXduU114o9y39SIpUwHHhIM3knd42u4czrK8eSZa0QY9a5G8HQb634dVNjY9TTc8AP0XZs/ZeQ5nw5025Dz4qUFUnNsnYwG/UFyZg6zAEu6wBZTyIpEQiIgCIiAIiIAiIgCIiAIiIAiIgCIiAIiIAiIgC4NrYnIyBdzrAc5tHiSB4rvUTir4mkDpBI7w10H5oDtwOH7NgbxGp5uNyfNdKKN2vWIDWN1ecvS5Av0v8ABAamOz4gFgswHMe8EDxNvBqrvpTtSq2u+lhWNNVraTiHEhv0hdvGNAA2Z4qy1KzMOwNF3G/Vzj9Z3ef0Cpfp7g9oOpCrQpk9oYqim2aoYBuiBeDcWki3Mwk6TOwaRxDHTWachyVHUwP+aGtcWtBmAJBuTr4iTqYOpSADa7jwawgknoJd/sFWv+F+zK+Ew1RtVmWrVqGoGEjcZka0OqEWbMG2sR4WkO4y45rF/wBZ/wBmmPqt6/1XAaP2nEtnepkNG8ZsD7M5RLu5bG7TrggOoXImBExzIBMeK3H3QW/gpDmfaf8Az34mIiHEO0b9eofafyZ/PRAYt28IBdTeAdDBg9xIErbT25RNsxnun5SsZ1OYSLOeNGj2KY59f6Lw0QYaWA8W0zcD+JUPE/zrokHazaFI/vG+Jj5reyoDoQe4yoQ4GlHqw2buaMpe72WBuje79SozE02gnIDPDeLgPF0k9893NG4EFxRVulQqCnn7Z7JG6DvEnmAMojw/3mNmucWDOZPAxEiNY8104diIiAIiIAiIgCIiAIiIAiIgCIiAIiIAiIgCIiAKM2lSIeysI3NZ5EEfmb9yk1F+kmJNLCYio0AuZRqOAN7tYSLIDcNpM4gjyPyK4NuVC4MdTIzNcDvbvEGZdA4L5fiPSB9LaAJqF2HZUptdSdBYWVKTC5xkXIzuI5FoX2IbPpDRgb93d/wwgOTZeDaDnc9tSobyDIHd16/JbsTi9QwgAetUOjejfad04fBZVNmMPF3wd/iBWl2ytMrogyLEQeYyuAHkuA0hujcpvcUyd538SseA6f0WWfV2bo6oP/XRH5/Pgfs6pDgHWcZdvXPQy2Y6SsHUqwM5bgQ3dBDfuhrtfBDpmG6NyiRdtObN/iVTxPRMwgnMcpsX/WqH2KY4N/nmVoLiBDmEM1cCSC93N7ntEjp/Re08TMG+Y2LgA4Mb7LGtJv1/ogOkTMQ0OAsPqUm8zzd/Ol1gXDLO9kP46p59GflyC1GuwC9mg2Y6xc726hPD+eijcXji8mDJPHpyA4N6anU8hyQlJuxeMJPCdLaAcm9Oup6BVjEbZrOxFKnhG03tkvq1HAuYGscAQCLXuOOlhAJVvwmEFJvaVBLjdrD83cvyVC2/svGUmswWBwdYUnCTUEQQSZbnJ3Peg8BZcg62fSsEztoquILTdoBkEcD3KUUT6L7PdQwlCi+M7KbQ6NM2pA6A2UspkQiIgCIiAIiIAiIgCIiAIiIAiIgCIiAIiIAiIgC1V6Qe1zHCWuBaRzBEEeS2ogPkB/4X4k18naM/Zw+e0c4l5p23QyLOAEawvr6IgCIiAIiIAtVSi13rNae8A/NbUQEXtOnTpUalXKYpse+Guc2cjS6LHovle0vTOtTqU7U3sNOnVdLRnyvJsxwgCzTczcr7FXoh7XMcJa4FpHRwgjyXwbaPofj24g0RQq1crQym8N3HUmklpNSzRroTI+KA+2bPwdMhtUOLw4BzSYiCAQYCk1H7BwZo4ahRcQXU6VOmSNCWMDTHSQpBAEREAREQBERAEREAREQBERAEREAREQBERAEREAREQBERAEREAREQBERAEREAREQBERAEREAREQBERAEREAREQBERAf/Z;" parent="rIZx2r6VnLa3uUgruej9-1" vertex="1">
                    <mxGeometry x="-160" y="30" width="275" height="183" as="geometry"/>
                </mxCell>
                <mxCell id="-LCjP4ljv7rW6iZ6rMR7-2" value="SET (NO DUPLICATES)" style="shape=image;verticalLabelPosition=bottom;labelBackgroundColor=#ffffff;verticalAlign=top;aspect=fixed;imageAspect=0;image=data:image/jpeg,/9j/4AAQSkZJRgABAQAAAQABAAD/2wCEAAoHCBUVERESFRIREhUSEhISEhERERESERISGRQZGhgUFhgcIS4lHB4rHxYYJjgmKy80NTU1GiQ9QDs0Py40NTEBDAwMEA8QGBESGDQhGCMxMTQxND8/PzU4MTExND80MTQxNDE1MTE8MTE0MTExND8xNDQ/PzQxMT80MTExNDExMf/AABEIAOEA4QMBIgACEQEDEQH/xAAcAAEAAQUBAQAAAAAAAAAAAAAABwECAwQFBgj/xABMEAACAQICAwsHCQQIBwEAAAABAgADEQQSBSExBgcTIkFRYXGBkbEyUnKSocHCFCNigqKy0dLhFkJDUyQzRFRjc6PwNEWDhJOUsxX/xAAZAQEBAQEBAQAAAAAAAAAAAAAAAQIEAwX/xAAhEQEAAgIBBAMBAAAAAAAAAAAAAQIRURMDBBQiMWFxEv/aAAwDAQACEQMRAD8AmaIiAiIgIiICIiAiIgIiICIiAiIgIiICIiAiIgIiICIiAiIgIiICIiAiIgIiICIiAiIgIiICIiAiIgIiICIiAiIgIiICIiAiIgIiICIiAiIgIiICIiAiIgIiICIiAiIgIiICIiAiIgIiICIiAiIgIiICIiAmrjMclIAu1r7BtJ7JtSHd2em2bHV1DHLTbggOYKLN9rNECRqm6bDrtL+qPeZp1t22GXzz6n4yEcTpDEFmsVtc2uddr6vZNXEV3NuNY24wvcX7pcImivvkYddiO31lE2dAbvMNianBE8A5OWmtQi1Q2vlVtQzfROs8kgaviLddv9kzGy/Nox/iZ6h5rZzTA/0pcD6sifN2i92+Ow6qiYqoUXUEqZKq9V3BYDoBE72H32scp4yYWoObgqiMfrB7eyTCpyiQSmmcRWqM7NXqPUL1CiPZUXMNQzMAAMwAE3FxNblpV+2pSPxyxSZ+IZm0R8ymoyw1FG1gOsiQ18qflov2vS/NLWrOf4J7Xp/jLx30n912mRsUg21EHW6j3zE2k6A216I66qD3yGKmc/wl7XX3Catag5/hp/5D+WXhvo5a7TS+n8INuMwg68RSHxTXbdbgBt0hgh/3VH80hGpo1z+7TH12/LNR9COeWmO1j7prgvpnmptObbtdHD/mGE7KyHwMxPu90YNuPw/YxbwEgw7n2P76DsaWnc2f5i+qfxl4OppOem03VN8jRa7cYp9GjiH+6hmE76Giv72x6sLi/ekhX9m/8X7H6x+zY/mH1P1jx76Oem0ytvqaLH8eoerDV/esxPvtaNH7+IPVh399pD/7OL/Mb1B+MqNzyfzG7hL499J5FNpXffh0eNi4tuqinvcTNovfXwNevTohcRS4Rsq1KqIKYY7ASrkgHntYctpEX7PJ57/ZnK0Xhw2Lp0xsarkHObkqJi/Smny3XqVvn+X1lERPJ6EREBERAT56024fE4l9fGr1m2nldp9BO1gTzAmfN1eoWJY24xLbTy65YGu4H+7zVrEAE6pncnomhiXubc3jKjXYzpVUtSww/wABj2HEViPGcwzt4teJQHNhKH2qYc/fgafB9EoKIuNXKJu8FKNTtA7+53y3Pm06Y9Z3v9wTuM84e55uLVP00TuQH451WadvSr6w5Orb2lkLSjNMReY2ee8VeEyvZ5iYy1mlpM3hiZUYygiBKzMhEoZcZaZUWZZQiZJaxgY3EwtMrSwiMNLLzz25FM+k8GNt8XQJ9E10zewmegralY8yk+yc3exp5tL4MfTLeqhf4Jw93PxH66+1j5n8fTERE4nYREQEREDR0xWyYXEv5lCq3qoT7p86s4tJ93ZVMujsaefD1F9ZcvvkAO0sDXrvYEzmMZtYt7m3Nt65qrrIBNhzyosJnosVTPzYOojC4QEcx+S07zzlUgaxzA9trkd89ZpBPnSPNWknq0kX3QLTTmDErZe0CdApNLSepUHO3gP1gdTQH9ST51R/stk+CdEtOdoY2w9L6S5/XJb4pts0+p064rH4+d1LZtP6q7zGWlC0tm3nlfmiWCXSpK6UMXlpMqF5WWyhaBVmll4JlrQuBpbLryxjA19ItajVPMj/AHTG8/RzaXonzEqt/pOvxTW0w9qFTpW3eQJ195ClfSVRuRMLUPaalMDxM4O7n2iPp29rHrP6nyIicbqIiICIiB5bfIq5dF4n6Ror31kv7LyCKj2BMmjfZq5dHBfPxFJe4M3wyDsU+q3PLCNV2uSeeYiZVjLDKLavkt1Hwns9J/8AE1eiqy9zW908hRTM6L5zKvebT12PN8RUPPXf21DA2bTk6dqWydCu3h+E62acLTRzVAvOqp6zEe+Uegwoy00TzURe5QPdMmaYry5TPrQ+ZZfBiUvKwrK3lLy0mQC0qGlhlLyrhczSktlbwgZjvMoWYXOuVYXEywygaCYMObp5vmG6WQfaH4T1W8PTvica/m0aa+s9/hnj90LfNKOeoPAyQN4Wjxce/OcOndwh98+b3U+7v7ePRL0RE5nuREQERECON+arbC4VPOxBb1abD45CmJqXJ6JLW/biLHAp0Yh//mB4mRAxmoR3npooATGKCq2+RmnVVH+iW8hi+2+3jdAnAqgBmANwGYKedQdR7pm+WNYCyXAyq+UZ1W1gAerVe1xyETVgbWjFviMOvPXojvqKJ6Ks+aoW56l+95wdCC+LwvRXpHudT7p1FfyfST7wgdJ3nGrHPiE/zE9lj7p0c85uG42KU8zO3cpHvE1SM2iPtm84rMvQLLwZjUyt59V85lvF5jvK5oyzhfeUJlpaUvBhdKGW5pdeVVJco55YDKM8MsjNMb65aWgGMmMLLQTKuZjMNORuifi0xzsT3D9ZKO8TStgsU/Pist+haSH4jIp3QNxqY2cVz4fhJl3laOXRWb+Ziar9yonwT5ncT7y7+hHpCQoiJ4PYiIgIiIEJ799e+LwtPzcNm9eow+CRkTJJ35MNbSNKo6u6PhFQCmwVgUqVCb8U6uMOTl6Ncb1QMxsGC3OXPbNlvqvbVeahFkoTBlIG9oRrYqieZmb1VZvdN4ts618RObos/PKeZKx/0Hm0X8R4wN7hJz6Nco+ewJAZSDq2kX7dUy556NN1CEDhcHSqNYZnzKCx57FD4xEzE5hJjMYlxk0xz0+5v0mQaZXlR+zKZ2Bp7R58vRw+pwf6S75foV/KwmKp9KH8HnrzX2xw005C6Yp81QfVX80yDStLzmHWje686DpoNtlTHU/qFh7VM1n0doo+RpCuvp0Afyy899pwU0xjSVL+YO1an5ZcMbTOyonacvjaW0dz2FqOEo6QWozXyoKDF2sCTZVYk6gTs5JTE7kXSxNZRrFs9OtT18g4yS+Rf6TgqyHF0724SkDzGrTB+9Llqg7GRvRdG8DL8bVxdVHpvWwlQOuUkqiOBcnUQBrF+XmE4jbnK3IaTdVWn7zNeTbUM+PXcu0bnkbuMEHmI6wZwW3N4j+Wp6npnwMs/wDxMSuylUHo/pL5U6PHjbvgypaeeOAxY/h4kdXCe6Wmnil5MUOvhTL5X0zPbfb0N5SedOJxI2mt2oT4iWHSGIG1m7aaflmo7qNJ407ZdPteoNV7IOy7HXJ43pqOXQ2F1WzNiG7DXex7gJ874msztmY3YgLsA1dQn01uDpZdF4AbL4am3rDN8U4+pb+rTLppX+axD0MREw2REQERECDN++t/TKSn+7gDpvUDH7okZo7HKATqY6gT0cnLsn01ur3OYfFqOGpCpa1gGKPqvYhhrG0yP8fvaYY3y0sZT9Gvhqg7jcyojerTaxujeqP11zTbqHd+k9bjdwqITkr4lLefhSw9ZDacqvucdfJxaHofhafjeUYdBICuLbzMMwG3UWdB4XHbNYt4zqLhzQw1RA61a1coG4MEpTpqb2LEC5PuG3XNTD6KruVCU2fXrCi1u0wMOaULzrDc/XzikKbM9gxQMOIp2FzsXxnVw24Wu3ltTTqz1D7hA8izSwmSPh9wCas9R29FUQe+dTD7i8Mu2mz+nUc+wG0CImQ8x7opYV3NkRnPMgLH2SbsPufwya1w9EHn4NCe8ibxpKiljZVUFjYWAAFybCBFe47Q2Oo42hiaeFdjSNRgrgIGHBsGFmZTsJ/A7DN+Cx6Yt6DoHy0s1R86OuVyuVVIYC54zEEatV5xtHaRS61KT06lr2KuHXWLfunpmLE6bxNOpRpI1FVrNUALUmbg8qF8o4+saj1SDg7/ABgL0cHih/DqPRbqqLmU9hpn1pDArMNjMOpmEkHfQ0jj24KniGpth85em1Fcoaplt84DrDAE2GyxO3kjs2lge63q8VSbSC0MSq1Uro1NBW44WrcMpF9hOVh9YSbTuQwR/syj0XqL4NPluk5VgwJBBBFiQbg6iCNh6ZMu5zdlpN6CNwSVlUZeErJldrcpYOMx6bdeuSR7ttxuE5EqL6Net72MxPuJw52VMSvVUU/eUzQ0Lu2NTEU8NXopTeqcqGnVR+NYnjLe6jVt6RPbSK8bU3AUjsxOJHpcC3ggmrV3uwfJxTD0qIbwcT3kRkR5R3tlzjhMTnT95adDg3Yc2cu1gegX6RPfUaSqiooAVQFVRsCgWAHZMsQEREBERAREQODpkEva5tYHUSJzbN5zes07ukqd3Ho++cvHYDPTemWdM6lc9Nsjr0qeQyo5OP0tSo34SqqnzL53P1RczzGkN2y3K0aQbV5dVBq6cmr2tNDSW4LEB2NM06q31F3NNz17bzlNuUxyXthn5f6uuuvsBEo19I6UqVi2dwFFtSLTRSeYIPGahQFtQNyLgAvxRzuyi5mw+icWmo4bFqOWyFx3i803V0uHSqvPnw5t28UXlGajVZMrLUdADYsrurORqA1tsvq1zbp6VxK3C4nEZr3yiuGCr9Lb3X5NU5i4tQRx6YtsujIR1caZBXBvYoc221Wpc/ZgdpN0mLBuMS+UCwL01fO2zVmUXmenuwxgyg1KbMTrD0qa5Rf97Kbjrnny2whVJUWUZqQUewGXm+RrCpdvKIG3qyvYdx7ZB6dN3OI45NPDsF2kLV17dhFxM77unKZXwqHhAVsKmUEEcuYW2ck8g1QcQ2YhAOIabgX+spFhtvq7IFdBc51zsORkLj6KgKPZAxOgNQlHamRrB4lxfkBRumGfELlb5VUUi5QmpXBUnUcu2xI9kzUSSAAwQOdr8Z3PLqzHX190o+GCk2bjHnotUqWItyG1uy0DTx9TE1EVKuJaotw6pVqseNbUQHG2x9s06ei3PFBom/O1K/eRedk6PYC4NOw2lQabbfP1kC/JLFpLmYHjki/B06hKkc7PmGs9QgaeG3OVjsagOvEU9U6ybncRlAfFUFQagHxBZQOYC9phVL6gupSBlprlRDtIZ8lzr5u0StOobWBS2UcawSivQp1Em3Zq5IHtNweFw2ExK1HxOFYlSt89JQlx5QYtq/WSb+0eC2fLcH/7NH80+fn0gyKGWoABf50F6adAQA3fsPbPc7j9FaRxDJUNevhqAIYNVdnrVQCDZKRNlUjlbn2SSqU8PpCi/kVqVS/mVEbwM2rzx+77FJhsMtUYXDVS1RaZarTRlphlYhiLa9agbeWR9Q0yFueHenmsTToNwVMWNxZUsBGBOUSB8Vu2r09dPF17jkqPwg7mvPf72u6ypj6VfhQmegyLwiCwdXBIzDYGGU7NWsaowPcxESBERAREQNbEJcg9EwGlN5heUywOecKOaWnBjpnSyRlgcv5COf2Q2B6R2idTLK5BA4dTQqN5VOk/pU1PiJpVtxmEbysHh2/6aDwtPVASsDw1be5wDf2Up/l1KieDTn1963BnyWxdPqq5gPWUySYgRNV3rUHkY6uvQ9Om/haaVTe1xK+RjaTc2ei6+DGTKRLSg5h3CXIgyvvd44XsMDV59bJfvSaD7jMel/6Eh5zQrqCe5hefQBoL5olpwy83tjI+d6mhsWm3AY1B/hNdeuy3E0sRnFxUTGqPNehde3ii46Lz6TOEXplDhBz+yMj5mbF07i9RFtqyPQstupTfvuOibFIVMQyrQVq7E6m4N0opr1EJtY9d59D1dEU28qnTb0kU+ImbC6Npp5KKvQqhR7IyI73H734QrXrjhK2oh6oBVOhE2D/eySPhcEqbNZ5WO3s5ptSsg85u50WcRgK1MeUAHUc5Q3IHSRefOONOR2QtYqSCDcMOsHZPq51uLHZNSromg5u1Km553RGPtEuR8nM4J8snoAveTvvMaLelgqtV1KcPVBRWBVsqDLmIOsXJNu/lE9ymiKC+TRpr6KKPATapUFW+UWvttGRliIkCIiAiIgIiICIiAiIgIiICIiAiIgIiICIiAiIgIiICIiAiIgIiICIiAiIgIiICIiAiIgIiICIiAiIgIiICIiAiIgIiICIiAiIgIiICIiAiIgIiICIiAiIgIiICIiAiIgIiICIiAiIgIiICIiAiIgIiICIiB//Z;" parent="rIZx2r6VnLa3uUgruej9-1" vertex="1">
                    <mxGeometry x="140" y="9" width="225" height="225" as="geometry"/>
                </mxCell>
                <mxCell id="-LCjP4ljv7rW6iZ6rMR7-4" value="MAP (KEY / VALUE)" style="shape=image;verticalLabelPosition=bottom;labelBackgroundColor=#ffffff;verticalAlign=top;aspect=fixed;imageAspect=0;image=data:image/jpeg,/9j/4AAQSkZJRgABAQAAAQABAAD/2wCEAAoHCBUVFRgSFRQYGBQZGBgaGRoaFRgYGRkcHBgZGhoYGhwcIS4nHB4rHxgYJjgmKy8xNTU1HCQ7QDszPy40NTEBDAwMEA8QHxISHzYrJCE2ODc0NjQxNDQ0NDQ9MTQ0NDQ2NDQ6NDQ9NDQ0NDQ0NDQ0NDY0NDQ0NDY0NDQ0NDQ0NP/AABEIAOEA4QMBIgACEQEDEQH/xAAbAAEAAgMBAQAAAAAAAAAAAAAABQYBAwQCB//EAEEQAAIBAgQCBwUECQIHAQAAAAABAgMRBBIhMQVBBiJRYXGBkRMyobHBUoKS0RQjM0JicrLC4VPwBxY0Q6LS4hX/xAAaAQEAAwEBAQAAAAAAAAAAAAAAAQMEAgUG/8QAKREBAAICAQMCBwADAQAAAAAAAAECAxEEEiExBUETFCJRYZGhIzLBFf/aAAwDAQACEQMRAD8A+zAAAAAAAAAAAAAAAAAAAAAAAAAAAAAAAAAAAAAAAAAAAAAAAAAAAAAAAAAAAAAAAAAAAAAAAAAAAAAAAAAAAAAAAAAAAAAAAAAAAAAAAAAAAAAAAAAAAAAAAAAAAAAAAAAAAAAAAAAAAAAAAAAAAAAAAAAAAAAAAAAADkxuJyRclFydtEna7ukl5tr49hExwuMneTqxi3qopSUV3Xvd/LuJHHe9FfxQ+U/yO2GyA4OHYib6lRddc+22jv37ardNPS9jvqTUVdnDXVppre7+MY/+q9Dbj9Vbul8Uo/3ARk8XiajcqUFGH7uZrNJdtrdVPz8jr4djZyvCrHLNOz+a9UnZ87PRWsd9CNkc+KisylztH4S0+EpepA6Zytr/ALbeiRE15V6sn7KUYwWibzNy/iWVqy9foSGId4rz+EZP6GzDRtFLuXyAj8HWqxl7OtZ81JbNXSuvNpNPXVau+kpJpK72Wpy41bPmlL6P5pehsq6x8Wl6ySAj8ZjqjlkoQzte83JQUX9m7jK77VbTt5GcHj55slaGSVtHut0rp7SV2r6K11o1qurhi6ifbr6u7+ZjiUE4p81nt505r6kodxx43HwpWzPV7LVt+Cim35I2Oo1ByW6i352OXA4WN5TavK7Sb1eWLcYr0V/MJZwnE4VHZPXwa30V1JKS8Wrd5InDjcPF5Z5VmUoq6WtpSUZLws36I34aeaMW97K/oBslNLd/77u08U60ZaJ69jTT9GRdTDvEScZt+yS91aKWbVZu1KLjp2t+WHwuFBZqKyJO8oLSMlzduUktU99Oy6CE2aq1aMVeTSXeKM7q/PVPxTsyKrYX9IlaetOOuXk76rN29XLp2thLvw+Ppz0jNN9mz+O51lexvR+lBOrRh7OpBZll6qll1yStunt3XutSYwlRyim91dPvs7X89wOgELxGU60vYU5OEV781u1taPnmX3ThqcCq0V7WhWm5x1cJO8Zpata8+zl3MJ0tIObB188VPtX+U/Bpp+Z0hAAAMHPjJuMJSW6jJrxSdjoObHfs5/yy+TIlNfMKH/8AsV3ZyqO+j2itrpbL+J+psXGq6X7WXw/IjaeyPbkZeqfu+l+Dj1/rH6h6xXHa6u/ayutb2jfa3YWChxepOEXLLdxWtu3K/oUzGbS8GWLAe5D+WPyRnz5LV1qVeXBj1H0x+k1Hi9RaXXoeavFpvfLy5djv9DjRqqspnNeI8yzxgxzPiE9gcW6kIylbW+iWm7j8jsjVa0TIzg37GP3vmyQZjjPl95n9sGSsRaYiPd5qVm9+/wCJilinJOL5SXwtI11DXhv3v5vojrDyMs31uf2ozRFa7h2UKuWKitUlb0PGIr5lZra/xjKP1PNjVUN057xHlk67E+KxV6bTvlWq2s7r6M90eKxS1jLd9nNt9pB1pfrJ/wAsP7vzMuWh7PHpF8UWt5l51+XkraYifH4TNXjdNpJqS1i9lykn29xrw/HsOkoOeWWW6TT1tppbyK/iGQmIn+vj3QfxkvyNMcesuMfPy2yRWdaX7CcWoRunUjy7eUUuzuPeJ41h3Fx9tC7VtXbfxKHJnHiHzEcas+8t88i0e0Po1DjmHSs60LtuyUrvm9lr5mcNxOhHeolpHt+yl2Hy/Bf9RT+/8Ik7i3pzItx4idbbcH+Su5XavxvD5Zfr6d8rteSXLvPXDsfSk3GNWEpXfVjKLej3smfKMVI38Ab/AEiGv2v6WRPHiKzO2mvHi062+qYFLNJ+P9c3/cdsno/Aq05NK93t2s5p4ma2nL1Zn6FkcKbeJWjhytG38q9IRX0OwqXCsZP2kVmbTbur6PRlriczGmfNhnFbUvRkwZIUsGjEwzRlFbuLS800bzDCYnUvltWE6fVlCcX3o5ZYtbZJ/gl8z61KFzz7NdhT8KHox6jb7Q+RV80k0oS1T/dZOYXExjGMZSSaik09GmlqvE+g5F2HmVCL3in4pMqycat9d/BPqFrRqYhRnxSitHUiYljqb2nH1Lt+hw/04/hX5HpYOH2I/hRX8nH3/jn53XsrfC+KUoU1GU7NX5Ptet+aOp8aoL99ej/In40ktkvQz7Ndi9Cn/wA2vtMsts27TOvKuS4vRf8A3I+p7wmNptN546yfNFg9nHsXoaquEhL3oQl4xT+ZNfTq1nqiZV5LTaNI14qH24/iRqnVi9pJ+Z3y4Nh3vQp/gj+R5fAsP/oU/wAKLflJn3/jPNJVuck6k/uf0/5PcmTdXo9hpaezy2+xKUP6Wc0+idB86i8Ksj1MN4pSK/ZgycG9rTaJjuga7ILEft/uf3F4fRKlyqVfxp/NGiv0OptLLVqRlr1uq2720ei00+JornrCvH6fkrfqmYVaHgceJfItdToXN7YuS+4n/cc//I9TniU/Gn+UiyORRrnBZVOHa4mH8s/kiwY3a1vj4nZR6CuMs/6RaS0TjC1k973lryPdbobVeixfrT/+iu+etrbhv4/0VitlOxR09G43xEfCT+H+Sel0Fq88RB+MGvlI3YHopWoT9opRm0mlFXjvzu/AWzVmsw3Y8td+XdU5nHUOmpQxH+g34Sg/7jnlh6z3oTXkn8mZuqG6l6R7x+2/gy/Wx8/kXCJWOC4WaqZpQlFWe8WuaLRFHNp3Lz+beLX7T7PRkA5YgwZMMDBgo3SXpDOU3h6SlGzeZptO0Xq3a7S8DHBeM4tNKopOndXco9az0vF2Tlq1ye5X1xvTX8neKdczEe+vwvdgR/D68pZm75FbLmcXLvvl28HdnXiK6hFzeyVzqZiI2y6nemyxoli4KUYX60r20dtN9dioV+kWIqVctOCjSitXUUoqfcuq/wDbJngsoTcpunarpdt5rLVJRv7sdHoiquatrahfbj3pXqslvayu0racrX3Wjvfby5M9LERzZG7SabSfNLdrtsacbLKk4pZtbO9rbX8u4hOJUKlSSyyjljJS1zKSfNp2tsZs/Nrht0zG5V1xzaNrQCOwWIl7smn2O+vmdeJoqccr2unu1t3o04c1cteqHNq6nUtwKzXxNaCcKPWTvbPPNl7ErLM16nRwTilSSy1oOM1brWeV3dtGxHIrM6V9Ub0njDMkPxfj1HDp5pJy5RT1b+iNERM+EWvWsbtOkuhYgsJxinXpe0hebtbLF6tvR2V7b829CR4ZSnGCU7J3bypuSiuUbve3aJiY8lb1vG6zt2WMWPTZyrFxkm4OMknZvNona71V76PkQ6dGUxlIqlxqDjOesoQaWeMXaTd7qN31ktNdiQwuKhUjmhK6vZ7pp8009YvuYS2uJjKbGYsExLXlM5TM5JK7OWlis03DLZpZlrfS9tbaJvXt2IT3l1pHpAEoZAAQHmR6MMD5X0jwbp4icVpd5k1ZSafW97fnbyIlcryk8rulKcml3pN6MuvTfhsnbERV4qKjPtVm7S8NWu7Qpbg/IzXrqX0XHyVyY4mfMRqX1TglWM6cHFWi4p2WyfNetz3x12oS78q+KI3ohRlGjBP+J+Ccm0iS4zQlOjJRV5KzS7bO9vGxZkiZxzrzp4v01z+e0T/1TMqJno/K0pJaaL4P/JCrue3w7muRL9HoNzk1qkrX5XbTt5JfE8vjVn4sPU5V4+FKw8Q2Xj+RxqaO/G0XKPV95arv7iFWJjrm0a3TT0Kufx7zlm0RMxOnlUtHTp30H1lbv+n5ko3oRPDk5PNZqPK6s3zbs9ltYlZxumu1NHo8PHamHU+VV7blAyseqK60V3/LX6HicbOz0fYzZw7rS6usY6X5XfJdtktfEy4KTOSI+zJFe6bjt5HzziWWrOTlGEk2/egnpfa+5f8AEtqErb5Xbxsz585an0HGiO7B6peYisQ2YG8HFU4RhLNCMXBW3klqufPV3PoUXoUbhMM1anH+Jz8oqy/8pIvJHI1uIhb6Z1Tjm1veVF6f8WrQlGhCWSMoptqLbldyTWngim8LqTptyhOeqeZRUYwaat1ot676t3uWj/iA74iP8MI/GUysRlbVeD/I1YaV+HHZZktbrnu+wYGanSg7JJwi7JWSuk9F2HzjjHSKUpuFJShDTrwUm73us1mnLd7aK/MvPRmrmw9N9kIr8PV+h8x4jhnGrUhyjOS9JNL5GfDjibzE+z08EdUbW7ol0irTqKjVlmTzJN7tpXTTsnbf3lcvLkfIeCVFCtTktLTjfwbSfwbPquLjeEo83F/I4z0ituzu9I6o/KCx/SJRrZUs0F1dHu3rJ+CSXx7USXBq8J5pxvmk1KTe9topdySsVRU9W0kn3JfMleB1stRK++j8eXy+JV067t2bi0rj+nzH9W0GDJy8oAAAAAeJRT0ep8jxWFdKq42Syzmvuqc0mvDqo+vFP4ngqc8RKnKLc5qWV22aUZpLSzck6i8iJh1Fpjw7eiGIcqSi0+q3FO2jS1TXdrbyLGV/onWg6bhByvCUk1K19ZNp+H5Mn27ahD51xuvPJP2dlPPmTUU3rNZt090XLgslKCklo7va37z1KtwuMZyo6++6j/Dft25al6pxskRWCZez51xGM3iFGGZwz1IzUVfMpPLG/Yk9fC59GKb0VSqVZ1Lfafvfam3svAlC2YeNom4GutPKm+xN+iJFJ4xinCVWU5WzzkoK9uraMYqPbqpS+8W3hlLLSpq1rQj8kQuCwkamKlOWZun7l31XlSg3a290/h2FmIglho+bcaxXs69SnFLKpWik+bjF21TvrI+kydtWUSjwGVfFupLNGEHCbdlacpSVRw37JJN+B1W01nsryYaZI1aNrFwThKpXnKTlUkldvZJfuxXJJ+pMsxGNlY9CZmZ3KaUrSOmsahUemvBnUiq8GlKCyyT0Uo3bVnyabfqU+hwubmoXgpStlvNWe2tlq1tyR9I6Szthp+MF6ziVDA4CVWtTe0oXbdnopKLX+PFFlc96x0w4thradyunC8GqVOFNO+WKV+23Pz1ZQOl2AlDETnbqzeaL5Xe68b3PpkY2ViK6T4RVMLWhbXJJrucVmv8AAUyTW3U0Y7dE9nz3gmDc60IrXrJvwTTd/JW8z6pFaI+Xf8Pak3iVFtOMYyVurdKy1tvu479/Yz6rYZMnXO3Vr9SlYuk4zlHsbt4cvge8FBucUt80X6NNv4Ez0lwt6M6kdJwjmT7lq136XKjwDGzWIhmlfrZNrXjJWv5aPyOOptnmVnHrXd9JiejCMnLzgAAAAAOSeCg5xqtdeOzu7LRq9r2vZtXOsARmB4RGlOdSMpdd3ytrLHVu0exaki1fQ9ACDp9HqcXSySlFUpSklpJyzcm3ro0vQmoqysegAI3hnB6WHc3Si4qdrrM2la+19t2SQAGurTUk4vZ+RsAHDg8BGnKUlJvNydurzdtNm9TuAA5eIKTpzUFeTi0le26scHR7CyhGpmjkzVJOMddI6Rjv3Rv5kyAAAAgemUmsLPT96F+5Z1qa8NNQxsoWfXpRl6JR+jLCecq3tqB6saq1PNGUXtJNeqsbgBQ+gMIxq145UpNU3dcrKzXhf5MvSInhPBY4eVScW3nk5aq2VNt5dN9W9SXQGurTUouL2kmn4NWZQOjclDEQhN9aMqkNt2rxs+xXt6H0Qqs+i8v0l4iNVKDqxqZMjbvdOavm5taO2l2BaUZMIyAAAAAAAAAAAAAAAAAAAAAAAAAAAAAAAAAAAAAAAAAAAAAAAAAAAAAAAAAAAAAAAAAAAAAAAAAAAAAAAAAAAAAAAAAAAAAAAAAAAAAAAAAAAAAAAAAAAAAAAAAAAAAAAAAAAAAAAAAAAAAAAAAAAAAAAAAAAAAAAAAAAH//2Q==;" parent="rIZx2r6VnLa3uUgruej9-1" vertex="1">
                    <mxGeometry x="425" y="-30" width="280" height="280" as="geometry"/>
                </mxCell>
                <mxCell id="-LCjP4ljv7rW6iZ6rMR7-11" value="" style="shape=image;verticalLabelPosition=bottom;labelBackgroundColor=#ffffff;verticalAlign=top;aspect=fixed;imageAspect=0;image=https://miro.medium.com/max/1200/0*dJax5JsUTTdwHiVe.png;" parent="rIZx2r6VnLa3uUgruej9-1" vertex="1">
                    <mxGeometry x="-420" y="660" width="520" height="252" as="geometry"/>
                </mxCell>
                <mxCell id="-LCjP4ljv7rW6iZ6rMR7-12" value="" style="shape=image;verticalLabelPosition=bottom;labelBackgroundColor=#ffffff;verticalAlign=top;aspect=fixed;imageAspect=0;image=https://simplesnippets.tech/wp-content/uploads/2018/05/wrapper-classes-in-java-featured-image-1280x720.jpg;" parent="rIZx2r6VnLa3uUgruej9-1" vertex="1">
                    <mxGeometry x="230" y="320" width="520" height="293" as="geometry"/>
                </mxCell>
                <mxCell id="-LCjP4ljv7rW6iZ6rMR7-13" value="UTILITIES" style="shape=image;verticalLabelPosition=bottom;labelBackgroundColor=#ffffff;verticalAlign=top;aspect=fixed;imageAspect=0;image=data:image/jpeg,/9j/4AAQSkZJRgABAQAAAQABAAD/2wCEAAoGBxQUExYUFBQWGBYYGiIaGRoaGhwaHBoaHRoaHR8cICIfHysiGhwoHxocIzQjKCwuMTExHyE3PDcwOyswMS4BCwsLDw4PHBERHS4oISkuMDIxMDAwMDAyMDAuMTIwOTEwMDAwMDAwMDAwMDAwMDAwMDAwMDAyMDAwMDAwLjAwMP/AABEIAMQBAQMBIgACEQEDEQH/xAAcAAABBQEBAQAAAAAAAAAAAAAFAAMEBgcCAQj/xABREAABAwIDAwgFBwYMBQQDAAABAgMRACEEEjEFQVEGBxMiYXGBkTKhscHwFCNCUnKS0SQzYqLC4RVDU1RjgoOjssPS8TREc5PjF7PT4iWU8v/EABoBAQEAAwEBAAAAAAAAAAAAAAABAgMEBQb/xAAtEQACAgEDAwMEAQQDAAAAAAAAAQIRAwQSMSFBUQVhcROBobEikcHR8CMzov/aAAwDAQACEQMRAD8A2alSpUAH5Q8pcPg05n3AmdEgSpXcBeqTjeevDpJDWHdWOJITPtNZhyy285i8U46tRjMQgH6KAYAHlS5NYVtaVreAIBAEzHE2HhWzFi+pJRtL5MJz2R3VfwaMnnvTvwh/7o/00Ya5y3CjP/BmLyxMgA+owT5Vke0sK0080toWDgJTJKZSoHfut5VqidpIFipfflVHsivM9W1OTRTUYxUr7nXo8K1EXLqvYZXz2YcEg4XEAixBKAQeB61jTS+e9ndhXPFaB7jVM5a4M4rGpaZSFOZOsoGAU2hSj2SR4gcBQbbnJHEYVIW8EFJMZkKKgDrBkAjThFq6dPkeXHGbVWuDXlhsk4+DSXOfBH0cGontdA9iDS2Xzr4rEudGxg2piSVOqhI4khHsFUNnkBiVMh0BuFAEIKiFwdLZcoPeqrFzW4XKl2UwoLUk2gjKlux7iTW81ls2ry9xuHTnXhGXEgSejdWCI1MKb07poYnnyb34WO97/wAVFca3dE/W/CsSCLC1RA11vnoQdMMP+8baf0XxFOjniRH/AAqp/wCoeHHo+6sZVhgd0Hst7KUODeD9qx8xSi2a4vnnM/8ACADcS4T6sgppvnnWT+Yb0k9Y+I1v7eyssQyT6XkJj8akqwxTqIpQv2NKTz0L/kEfePb293r4Xfb55FTfCAjsc7fsm/ZWUuM/GlRjmHb3n9xpQv2NjXzzAf8AKif+sr/4b0y7z3oTrhRPAPaebVY+Wir0iT2CwrpOHSNwpQs1r/12R/Mz/wB7/wAVIc+yP5mf+7/46zlrYR+bzKCQ6Oocs9aJCTpBIkjuIqLtLZC2T10iDooCx/A9lCGqDnxb/mv96f8A4qcRz2tb8MR3OT/lisbLI4VwWfiTSim1/wDrax/NnPvj/TTWJ58Gsp6PCuKXuzLSlPiQCfVWM9F30uj7TVohe9rc6u0XpCXEMpO5tN/vKk+ygLnK/HEz8qen7Z/2oF0ffXmWKA0vkRzrvtuJbxaukaJgrIGZHbb0hpatracCkhSTIIkEbwbg18ltq3GvojmgxqndmM5jJQVInsSox5AgeFGC4UqVKoBUqVKgFSpUqA+Wdv4Us4jEMKH5t1afJRAPiIPjUrk0ytSSlv0lLSANx1onzvIT/CmJKRF0T2q6JufaKE7D2mrDqQtKUqyqzQqbwCIsdL1lFtdURq+jJO0UqLoQv0krEgaAgx6pNTcPt59vMEOEJmwIBjukWoO/jy46peilEqtumTY+NMydZ9dcmo0/1+suvz1OrDnWNUkW7m9Jcxj7qiSejAJPatv/AE1YOcRM4Up+spI83EJ/arONm7Vea6TolqQVQFFOpi4g6p13QbVIf5TYlQCHXC6kKSQFAWKVpXqACZKALmt2OGyKRqyT3ybNdcRDY7h7qAcgxKsWeOKe8pa/Gqwjl/ipGYNKSDcZSJA3Tmse2gR2s6c2VakJLinISojrLiZjX0QL8N0ms6NZsuMRdHefdWKYMpSUlaM6d6Zyk247qkYfbGIbUFoecChpKioeIVIPiK52S224UhxwNJIIzFJXBA4C9yKoPNoPNKI6FpSLXBWVSeM0T2CnZ5R+UuPpcvOVIya9WDqTGs1C2ph221hKHEugpBzJBA1NoOhtPiKKbJ5JYl9lLzTWZCpIyqTMBRBkTIuD6qj4AL2g2yHl/J1FbUjIpQhRECZHfNNvLUoyoydKdQ2Jn4ipD2FAbbUNVBRPgspFXgA8IqP0fx50QKKjhNvjjVIRSik6mAT2VOw+AcdUlLaFKJMCBqR26Vatk7EbSFfN5nGhKiQTcTdNvRkG4B8agOHMJ0zKERAUEnNoUAZSFD9Iajd4VNXs7pE5FDMCINt/HsNTdlSpaOkRkQoRl1VmUQJ8Ad1iZtpUHlXtA4dle5wno09itCRGkAE94FSimfONwSAZvE8aaKa7pVkQbKa4Ip4im3KFOQmZgaCT2Dj6xXrzKkgFSSAoSCREiAbcbEeYpNR1pIHUMSkqvFgI0VwJsKexDoLbYhMiZjNIi15t1tbcKwbdopCTqK3zmLdB2blGqHnAe85V+xYrA94ra+YHEDoMQ3vDiVkfaRkn+6rJko06lSpVAKlSpUAqVKlQHzdzgvh3G4pXB1YH9RZb/ZFBQbCp22nc77qtQtSl9+ZRX7TR3kDgkKWlSkhUNuq6wB0EDWr2K+Sqsjr+FdLcE2Pnb20QwOCTmUobgSBwvUF1mxkW91c8tRtlRvhg3Rs82ZhHHHFJaQtZ1ypSVEdpjSvcdh1tqyOIWhQvCklJ8jBirFyO2qrDdRCUy4pIKolQ+iAZIlFyY3SY1p/bHKBTzzTpbQVtGUqIgHW2UE7yCDNiBbWt6lZokqdFXxSFoGZSFDtKSB6x6qe2Lsl5+UstqcIN8sW7SdB8dtXLaHKt1bWVaUrC0GQoCLqWm8RPozu99S+a7AZC8sTBypk/o5j+0KpCnbQ5OYhgZnWFoH1iAR5iQNa82Bspx5KUttqWYJIA0Em54CtO5cYdTuGcQBMpmOKUkFQ8qoGznFskKaVlOlwFDyUCCfCiZAXtLAltwpWCgxoRHHzEg3qTg9nrKElId60kZc4CoMEiNdItwpjbC3FvKUtalqtJUZOmnYL6UV2Ni8QhptKX3AkHMEHKpAN9ygY1OnE0KQl4coUQpJSQNCIItwN6sW39ntpw7BAhQska5gcxVJ3XAPbehW0H1OOLcXGZQkxYWEWHcKsnKtn5jDAamIHf0lYy5QXDKd0fZTmwcUll9txaQpAJCgRPVVKSY3kAz2xFTHsIUmFCDrGtQ2mjHifbWZBcpsI5hsQoZiYhbSpsWyZTHAai1rHdR3EbVRhtpZswOGfyKXeQkKTkKtYEEZiOwHdVJdRBI7TPfP7qZO+oUv7reEU8pa8ZnAJyp6QAJnt38O7vNVnlltIP4ghKgptsZUEEKBkAlU75MDuAoOK7YbkE0A2U14RT+SuCiqQZNNPU+pNMLF/GoUn7TCiEArwyoMDolNySqdcsWGXU6SONDViLG1TMYhlKAEKWVkyZKckXtEZswsJkg9kwO8E241keBQlCzkzKyOASTJKLkRlJmJtata6IoMQLgVqnMJioxGIb3raCu/o1jw/jjWavwXzdCgAIKE5UmEWtAvuM75q38z2J6PabI/lAts9koWv/ABIT6qyu0mEfQFKlSqkFSpUqAVMY13I2tX1Uk+QJp+g/LJ7JgcUoahhyO8oUB6zQHzoR1o1MAcZhMVcOQyMqCrhh1n7xX7hVSX+cVxzH21Ydj7aQhtSUpIBaDdzci06pibq0n3Uq0ZNpSImAT1XD+gfaKHupkHu99EmlpAWlMnq+8W7R2wKgq/D215ea1ka+D0cNPGn8krZSPnmvtp9RFMsiY7ql7ITDqOyT5JJ91R2EQB3e6vTgqPOk76kjEp/Nj+jHrU4ffRrk/t91sIZQkXMZ9fSVvB7Tunw3i8UnrJ+wj1oB99SNjo+ea+2PUf3Vl2MAxtXlS8lZQEJUcoIJEAZgReDxB4zQNgZf4sL7CsoHiQknyIp3aSfylf8A00e1yncOyN60JjcpUT58KUCs7UWemXCckmQkKKwkECACQCrvIqy7OxqFIQr5K2QEpH51YJATBkZSLkTQTbjiel6qkqsPRMwQVCDG+wPcoUV2E4hTKE9IiQDIhZKfnFABUJIBIAN4saFOdoBJW4UjKkpJCZnKL2nfFWHlYoI+S5iEgGZNh6S95oHjmoKwCFdQ3EwdeI7a553Ej5Rh0gDN0Ek5iLdK7A1gXJPGsZcoqCWMxTCoDbjSpCgDnKlkiFQk6HUk3m4oPhkzPefbVOxCbJhQJEm30TO/iYAPlVq5NrWWgVzN4kRI3HiZ1mrGNEk7BruznCtcJtmNzA1O7sovj+QeIQ0pzOyQE5uqVnMnWQSkbpPhU5YqxcndotqZU08tKcgI6xCZbPCdSLiBuiqyFM2ZyKcdbS4Hm05gDCgbZv327TGmoE7R2cphbjSjOVQBO42Bnu6w9daRySRLCREkI9ilDwiqtzg4aMQ7A1CVW3wlI/ZoCqKOtckwB504ppUeiR5fjXKkGwg8NLbtKoOVj40+L006jsp7z03gj3Vw9Ea0B50Y+qPu0igRoPLvr3pU8fjyr1sZyAkFSjMAAkmBJi24CahRtpAKxpMHh9VVGOROI6PH4ZXB1seCnEpJ8lHwmg7boC0mRAUJ7pv6qdw7hbcChqiTx6yRI9Yoyx5PqilXDawQCNCJHjXdQgqVKlQHlVznIfybPePHIn77iE++rHVM54H8uAy/XcSO/KlTn+XQq5MQbv8AHfXr6E3zz1UhKYg6QIOnEkniTXrLZNuJgeJq4YvkOnIvI85nccATmCSEgSoyABmtWnLnx45JT8WbIYpTVx9vyAdjpIw2bKAFqXlO8iWh7W1euuHkQQPs/wCGaJbUY+TpawwGfI3KleiCVOOHSZGtRXglSpAgCIjfAyiZNrDjXnR3TluSdN8+3Y9KowhW5WlxY9s4deeCVnybWabQmpGzWpLhH0WnCewBtQ99NoGtevFHkMkYxHzhHAJHk2ge6pmxEfPt98+STTONT8659ojyt7ql7EH5Q0O1X/trPuq9idxnaDcYl0cEpFvtOV0hMV49JxDxJk2/a/GnUjuqoAvaOxC65nLgFgPRnj2ipmz8D0SAic0GeFzfj8TUvLSigI5bOc5dctjuF9aa52sxcZkKMNJSVQClwpW4ZgTFlAkA2lM0B21iVfKSFKJbBTKQEqtCb5VEBVzoTeueVm0GlNIQ2rMQu3zDbScgF/RWT6SvRgXCjwnGrZkA3rRIA70wO+1zofKrxsxACBlMpCQAeIGh99VFtDK3mw8spRkk+kDJJIGhsQRcQNd96uWCylPVIIkgEGQUzYzv76yMTtymF0+5TTgFAWvkKmWk9uYf3zo91COcXDZcQkxq2Par8aN8hBDaDuBXp/1Vn9qo/Og0PmV/bHh1fwPlQFCKKbcRUhQppVAR1JGlRsV6J7j7KmKFRsRoe6gIacKkslYC8w1OdvLqPo+mLHxPjT/JpcYho3tm0Am6F6Trrxp3Z7CnMO4EpzEEhMJBM/NkgdQkmJ+lx0AvF2CqHkXHpHWYuCLxeL7orRJ3GS+TLwQca3Dix2qHkY8KnA5lIVNlwo3j0vS7ryKZ2sgjEOg69Iv/ABGlhXepG9CpH2VX8AD7TWyPWKC6M+luSGK6XBYVw6rYbUe8oTProrVe5unJ2fh/0UlH3FqR+zVhqkao9pUqVAeCs/57nYwrKf6UmP7JxP7daAKzHnwcM4dE2yOE+K2APYrzoVcmdbCYzPsj+kSfAKBPqFamFwlCdxUpXilISP8AEazrkU1mxCT9UKV+qU+1QrQnf4scG1HxU5+CK8T1GV5H7R/Lf+D0tJH+C93+ii8qnJxLn6OVP6iZ9ZNQWxUja0qefcGgdKPElceps0y2K9TTR24or2X6OLM7ySfuwjsjGBrpcwJzsrbEAWUqIJki1v8AemWUib6U2inQnT2V0mgmY95K3VrQkoSpRUEkgkSZvHx315hsSWlpcSjOUk9XMEzmSpMydIzT4UygU63QHrT6luuuKQWwpVhmCrAcR7xUlsU0nWn0igPVCkNKR0tSTVBX+VqSS2BJMnt3poDj8IStIANgokR4gd5NvOjPKtR6ZtM2yT4yfPQVEQ5EXPx41CkTaWEWtwKCDAbbSMosIabzC3BRUKP8mCQ1lNsqiI03JPvqMr0T6jHfbu/dxrzku8St9JNgUqA7SDPsHlQBtZpknsp5VNqFCB/Ze1fk2FS6PSLi0JTlCs3oqJEkZYnUmL91N8pdp/KsKl2TmQ5lKSkJKZE7iQQToZvG4g0NbxTZZLLpKcqy4hYSVAFSUhSFAXg5AQQCZm0GajO4pAaU2gqVnUkqJSUCEZsoAV1tVquQNfGgBpplZqQr2004KAjOUb5CssOvKYfbSpLieqTZQImQki4JBm31aBuAVYebjABzEKcVfokgj7SpAPkFedcPqM1DTyk3VLt57G7ArmkR+UvN+vDqU4yXHGRMhEF1EeWdI4i/Zqaq+CWhDiXAVhpKyQrKCo5QFJBGYAE2mDxjSt0Jqp4FrCq2q8jokZ+jSQctukBKlKjTMQtF9eqeJrxND6vOcJxnG6V2vHudWTTJNNOirbO5GPYt0vrlppaiqVphagfqozGO8ntvQDarDbWKcbaJLaSWpJkkgQTYD6YNbgs1jPLXZXQYxaR6KiHEdyiSR4KCh3RXT6X6jLU5pRk6VdEv95MM+GMIdPPVm2c0i52a0J0W54S6pUfrVbaoXMk8Tg3Un6L1u4stH25qvte8cj5Z7SpUqEPKyLnrfnEIRuDSb8CpT3+gfE1rtYnzsv5se4nhkR5NoV/mnXw30KgfyL2rh8OXFPekcoT1cxjrFWgsPQ74HCr5isU2ppLjZCk5AQocLmPAk276o3I/kh8saW4FKSoOkWykQAmBB+L1aeUGCTg8K42mcqEqAKjJKlXkkWlSlT414nqGDfLdFO20n06UelpJpJKTVLjr1KrgW8+DxLp1LzR8Ydn/ANyoLCSSEgSSYAFySd1H9k4f/wDEYlR3upjuCmR7zUfkTh82JQTogKX91Jj9YivWyTWLE5eF+jz6c5JeRjG4BxlWVxOUxIEgyPAxUjD7OUptToKMibKOcDKYmDNk23HiKncrcT0qMO7AGZK+3RVr+FO4Exsx471Oj2oH41wx1mWWCE6SbdPxybXiSm49qsF4LCLdUUtoKyBMJE2491x51NTsPE/yDv3D7hU/m5WOncBIno4A49ZM+yr4kV6pzGWqQUkpUCFCxB1ETuPCukn209trEZ8S6ofyigIvZJyz6qewmyHlpzJQYOkkJnunWsJ5YQVyaS92VRb4IwPx8b65+LU6+wptWVaSlXA0xNZRkpK07RKorvK85XWlQo9UgQN88dBrxqDjHOiLaVIXLqQtMFPoqkXjQiO2j218A4+W2mk51qUITIEwqTckCwHGnuV/JZ5leFcW0QlLIQogpMKyuDLY3MqT2XqlBmz21OLQggALzQcxMZS4k2j9CbHQjhXXJppRW66U5UrCQmDwBJ8LiuNm4k/KWk9GsR0hgiDdSxYcR1hftqbsRQ6NKQfRCUmxHW6NskidRJsaAmqHlXEUJxW2XAtQATCSQJBOljvpo7cc+qjyI99CBRSdaZXQ87bWR6CfM/jRDNNxwoBYnDlMTHWQFjuJA8DNqiuGjWPYJawigPzjCk+KXHf3UFWqpZSO7Vw5r21fPq+icon9IZifUoedU9Yq/wDNv/wy93zhjtsn48K8j1uTWlkvLX7s6dKv5ljNZJhtsRjxiJsXSSf0FEp9SSPKtM5R4rosM8sahBj7RED1kVjjrdtLG3q/A+uvM9C06ljySlw+h0arJTVfJuWITeRoQFDxv+6sz52Wj07C4sUlM9oUDHkfbV45LY/p8I04TKgnKrvFj6wqgHOeyFYZJOqXEkHhIUPfXLoX9HXpV3a/qbMq3Yn8BTmHflGJRuBbXPaoup8fzY8xWn1knMOuHXx9ZA/UWo/5ta3X2Z5bPaVKlQh5WCcvXs2PeVM/OLjsyfN+IlvdvnhW9186coXc2IeX9Zbih4urX7++iKuGaTzO4eMIkx6SyfJUfs1H523fmSJup0COITH4CrBzbYcJwbP2c33ut+1VS52lSpocFKV97/8An10kRDDGJaTsYoLiA4oyEZhmJGIToNdBNReRgyoxTv1GoH9Y/wD0oftvY2GlHRLdzgonSArMEq3XkK9QonsVOXZ2KVpnWlHq/wDvXHrf+lry0v6s24ukk/BztxMYXBj+jPuNTXmSnZaTuU5mPdmA94qNylADGCB06EKMawQn3Gi+2gkbNbTC8vVKfRKrgEZrxwmO2vP3NY8a8zb/APRvrq/j+xXeTb5RiGlDXOB4KsfUTWibfxfR4ZxSfSymOy1Z7yXZz4hofpT5Aq9wq+8q2pwi7fRVPkK904ij8nMIHH2mzcFXW7QJV5mPXXO1HencK3Bnv1QbhCdwSNBAi9TOSI+fzfUQtXkk0NQdK5UlPPK+yVffk2XUV7hdtRcwq8xKi0pOUkkkJVbKSbkWm/uoYpVE9lD8mxXc2f1lUMBqaRbZ5IrhPp90mWfVJ+w9sM/ljAzZb6xcWV/tVu5wUlXyfMqEhQUZEjq9aTa0ZdaouGx7bGIbdczBCFCcok3OW3iRVg5ecqMM8w0pBUQsFHWEWVmsRO8NrHiK6+5in0M+RjPyzDuaZiFEHd0rriwO/wCcTUjYyi24Wb5QVIuZukkDXQZUjs7ouH2ihWdZT9CACdxQEhJ8wKsmIAViUPJ9B1tLoHe2RHeNT9qqYALFq669fSJ8yTTazaZo69sVsqzZliSSYI394rgbEb3lZ8R+FCgMG2o+PCjrB6ifsj2Cm3Njt7iqZ4jSe7hNd2TAGggeAoQtODbScPs3PHXzpHaFNPK8OtlHiKq+1MKWnVo+qbfZNx6iK0HYGy28ThcGoKWOgCdBErbSptaTIumZuOAvVS5dpCcWtIEQlIPeU5vYoVEUr7hrSeRKR8iaiN89+YzWauCrpza4tSkOsnRBzA/am3mD5143ruNy01rs0zq0kkpUEOWyczCGv5RxKfBIUv8AYqoYnBZg8nL6SEqT9oZh4WSPOjHOpicqGEjXMpf3Mse2jzLCXkIcKAlSkCbXTmAJRe8A7uIqeiw26RPy2/yNVL/kK/zU4yW3mT9EhY7iPxSfOiXLtP5G92AHyUmqxzfPlraBbV1cwWgjTrJMxfsCrVZucB3JhHZE5ilHdmWkT6683WYdnqEGu7TOnFK8L+GC+ZFyMcobi06PHOwRPglXrraawjmgxOXaLQv85mT/AHTq+/6Hxat3r6s81ntKlSoQaxDmVKlH6IJ8hNfNmKUQbiCQme/KkGQfH4ivoPla/kwWJX9VlwjvyKivnPGLlwgaBUDfYE+ruqovY3PkdtvCpw7aBiGZQ2AQVpBEADeeyqFzi7QS483kWlaQi5SQoTfeLTVK6UzrTLyqNELp8hhaV5wZWN4+sFfs1JYVGyz+k97Mn4Vn5HEVNb2q8GgyHD0YJVkgRJ36TXPqMMsiST4dv4Rnjmo38Mu3LEwcOj6jKB6gP2aMcqrYJhP2P8J/Csxx+1Xn19I64pSoCdAIA0skAU3iMa4qynXCBoCpRA7pNc0dFKsab6ptv3bdmbyq3Xf/AAaHyCbBxEz6KFechPnrV15RicI73H/CawQkkXmO2vErINpHca9E0GkcmDBxC49Fhzzy0M0qmoxahIDiwDaAo6Hdremgsnj4mtcIbZyl5r8GTdpI0vZLyRh8VKhZCTreyjoNTQwK1qjE/u7KuzFwntj3Uhj2zlLzX4DdpIGcovQJ4ZfU4n8aEYt/O5hGtQFlR+zKfZlc+DRflCmWnO4H9dBoM3h1JdaWQR8y+RIjRpxQPdKwJ7K2mIX+QpVh5SAVKaCj2uZioeakHzrjDvfNYVUzlUpHgoqA8k9F50O2RtE3ZJIC0JQCNRqCR2jMqO0AV7iipK8qUw2h1RAGiZWkJH3UJjuNAWUiuSa7pomqBty81GX3VIXXezcAX3kNJ+lqdYTqT4CsJzjCLlLhFSt0i27H2+MPs9p5CApIcS0sHqwS5kWqeN819fGh/OwhAxSAmM/RjPH2lZZ7Y9QFNcu8C2xhmMMlSjAVKZACgokqUqB6RJAG6xqS/wAmWsRhUvYdTilhEpC1BRVGqTAHWmfGuN+oYkoyd7W6TrobPpS6ruUZdEeTW3ThXFKy5kLACwNYvcdtzah6h4UwqunLihmg4SVpmEJuLtBHllt/5UsKCClKEEAG5M3JMWG4b9KtO1NsdBjcClTxSiFJxCUlQTnU2kJzJH5wBRMRpHhQvm82AjEOLddSFNt2ANwVm/6oj7wobyx2mhWPU4EJUhpYSQRIcyqJWT2lRUAewVx4cuPHJ6fEn/Ffb4+TZJSkt8nyMbW2oGtpOYhtMpS6VAaZk3BPZmBJ8ancteWzWIw/RNIXKiFKKgBlyqCo1MmQOzWinLvYTTuHTjMMlIhIUvLopsgdbvT7J4Vmzqd1Y446fWSjnp7ouq8Nef2ZOc8acezLZzavBO0MOTuc7vSzNgdv52voWvmfkniMuKYVOjra9PqutqPqTPge4/TFeiaX2FSpUqEK3zk4oN7OxB3lISO0qUE++sCwuHW44EpBUsmwFyTw9datz47VhprDA+mc6x+inQed/CqNyAZz41u0xmP6ivfFVAh4jk/ikSVYXEDd+aWb+AoQ4nrQZnhpG49ovNfRmPVDQt9OfJP7qwraa8z6zEX9t/fTuAPm3Dyrv2+WtW3EbNQnDhyBmKEEdUTcovMcK8wRZ6NouNJX0bjjipSCVJCEdW+ovvtasJzlFXFWVJN9WVJGuvx8RXijc6VYsFhk9IkZE3WBAFrqjyqzc4GHbC2QG0aKNkj9DsrRk1SjmhirrK/tSM447i5eDOlrtJOukxTYWCbEeBFahzcABx7qiSlN4F4J89aLc4KEfJ8pQkyQLpB+kPcK6zVZjSjun1ivSKvuGwjfyF4dGiFOoBGUQYGbT10Kb2ayP4lv7ifwrVjyb3JVw6+TKSqisIQVA5ATlBJgFUC/WMCye01dW7WuI/2qdycbSkYlISkSwqYAE3TQ/NemPJunKFcV+Q1STG1tBa8ikyCCCDvkptUDaOy04aRlyocS4k9YqUlZacMgEk9cCCJBlKKINLIdGvfr9WnemaeYLEBLi0plYOc9InKUqzEAqhQ7NDW4xKUrZ7iFiFZSF5UOEKy5p9FQAKkk+kJB1M6GJ+MYX0mHSvL0q1FSwnQDNljsICCT3mou0k4rDL6F3pElIslDnUy/okGUJP1ZHhRzAbJ6FRLkF0gA5fRSLwlPYAAPDhUBPPx8fGpppSopxRppXZVB4tVvi1XHm72YEoXiFDWyZ4A+9X+Gs+2piVIKCnW9o+zUlXLzFhjoE9EhuMspQcxERqVa63jfXFrcWTLDZDu+pnjkou2SuU+0vlGIW59GcqfsgwPO58aK83u2ejdLCj1XDKZ3LjTxA8x21Q145zj6hXKca4CFBRBBkG1iDY6caZtHGen+j7dPau5lHI1PcXnnB2N0L3TJHzbpk8A59IePpfeqpOGvcbyjxLycjz61p1y2iRvsBQ9OIUFBQUQQQR2EGQay0uPLjxKE2m10tfgk2nK0a20P4O2ZJgOBHm6v2gKPkmsodMzrNSdo7fxL6Ql59biQZAOUAG4mw4Gh8mtej0ksO6U2nKTttFySUqS4RoPNdtkKSvCOQYBUgHeg+knwJnuV2VTeV+xThcQtq+X0mzxQZjxF0nuNRcHiVtLDjasq0+ioRItG+2hi9O7V2u/iCkvuFwpBCSQkQDBI6qRIsONTHpZY9RLJBra+V7+UWWRSiovlA5l0oIWnVOm7iK+qMFiUuNocT6K0hQ8RPnXyunh8aVt/MptzpsJ0Kj12DlH2Tp4bu+a7majQaVKlUBgnOntDpdou3s3DY/qi/tpvm1B+U9JlWUoSZyIUsjMQBZIJiM27dQ3l0lScdiQdelV7fwpnYO1HmFhxlZQr9U9ih9IfAiskQ1rae1/m9HTZxQHROzJnKIyWtWSqnOqZmYIIIMi1wbzatU5z9qO4VhoMulK3FEKJAJCQm5TuBkjUHurKRJJUSSSSSSZJJuSTvPbSuoCj20lrQEEJhKQnfMCPXYV2wfmvFY8+hT+1Q5BqcjaKg10Y0KlHRO8I36/QNtL+QDuyTLzXa4k/rij/ADgOS60OCCfMj8KrWEdCVoVwUFeRBolym2ih54rQSUhISCQRxO+++vPy4ZS1mOddEn1N0ZJY5L4C3N658+scUexQ31P5xsR1W0780xG4JO/vIoVyDxSEYghWbMtMJgf1jN7WFSecHGoU6hAzZkCTIgQoCL7zau36kN2y1u5rvXk1bXV9gfn/ACLvfjyaNQErrjOSkdY5ZPVzWmBeJsdL9leoPfWOHG4br7tsspXQY2Aq73awv9mhmavcO6QbEjqnQwSMpkHiO+mQaQxuOSUvNfgOVxSPW1wtPZf2edQlLWnGJSAVwvcoGd+pgaDw03VKSqV8NfcKr+0MVLhVun1bvUBW5mJJ22XX3nnCgpyAQJBjS03HHjpR554FSiDIMQezrR6qpoeSqygd4tuA7d1WLZ2Lzp16wAnge340vRBk7N+61cLIrzOPwrkmqAZtv6Pj7qETVgxWHQ4U5ioAGSUxMHUXBovyq5CtMModZddUkkBWfIQARIIypTv4zqK58mohjmoy5fBnGDabXYpIFeGp6tmj66vV7wa5OBH11/3f+jtrcYkIA14df31eubfk0w+t1b6OkSgAJCjaesT6MTbLrURvDYX+FFNKZQWCstBJnKCAADr9cRbjXE9bBTlBJvarf76GxQdJ+SoxSAq1843J5vDvIUynI04mwEkBST1tZ1BSfOqopH6R9X4VvwZo5oKceGYyi4umKTXMV4pPafV+FaBsDkzhU7LViX2gtwoUsKzLFusUwEqA0Cd2+sc+ohhSbTduugjFydIzkC9Xbmf2oWdoIQT1XhkP2gCUnw63nVJUuCDRjkgojGYc/wBIK6DE+mqVKlWIMl57uTgSU41Asoht0cDByL8Yy95TxrNMO5Chwke2vpzH4JDzamnUhSFgpUk6EGsx2zzLSonDYnKk/RcTJH9ZMZh2FM9tWwCud/bjbuIZbbWlwIbJlBzCVq0lMiYQnz7apacUPgVcH+ZraA9F3DK71uJ/yz7ajq5o9pDcyfsuRw4pHb6taWSitfLB2+VdDHDt9X40eXzU7RH8SVf2rXvpo82G0BM4Zw9zrMa/bn1edLLQIG0EjcfV+NdjaSe31fjRD/01xw/5Z3zbMajc53Hutrpyvm7xmvyd7xQFaj9FW4zPeI0mll2nWxuUow684aCyNJUURIjdM67xXe2uUwxK85aDat8LKptbWI8qjL5B4n+bP6/yKuG+D36G9tLmvTyHfv8Ak2IH9g4Yv6zFu/fAvp+hj+p9Wv5ebfHijPdLbt7fY4bx6e2nE49Mf7dlcHkQ9ecPiLf0Dl7kW6vC08bm1JPIt7+Qf1A/MPDf2osDpN4iTa1b7Ne0e+XJ7fLfXn8IIG8nuFMDki7b5h3xadTN9esjqz2+jEnUQ2nku7aWVXjVp7U/1OroTfSIOopY2nrm1UCfrGYFp8hvoXiFdVKo6pVlvYkQSTvgDunsqarYT6bIaXBAk9C9wJmA3paw7u+vMVs/EKKEJacORKlEBp1EAgwDKLqOVUcTbWliqIrGFUpsOJTKTNp6whREg2nThXuBxaUKCgrLuIUI33HZRLZ2Df6FMIdFjqw4QDP2OtB1jWbaGmMdsnEdIZQROpCHdAYvDZk92oE0stEpO0mz9Kuzi0n6Q/H/AGoaeTy4koT3FDpMzBFm93HTfeknk6bWFyB6DoF9T6GkDztvFLJtCCnxu99HHuVk4P5MtCisQkKIMZAQQeOYRHkeyqn/AAGN4/Vdt+rfj5ixF/BsMfUGkkZFqvwHV60eE7ritObBDLt3Lh2vlGcW43Q85jEj6Q8x7zTC8ej6yfvJ9xJrr+A1TAbV3htwjQXkJvc+ME2iuVbDd3NOa/yTp9iePqg9lbbMdoZ5MctvkiXUgBSViR6VlwAJtdNhPdVfe2gCorz9YnNMKnNMz6Os0+vYT4NmXjbcy6bzp6HxreYpJ5O4g6YbEH+wd96fCtMcGOMpSS6y5Mm5NJE/lJyyVi22kLCU9GJUZ9JRETeIHZfWgXygHeO6xognkrij/wAriv8A9d3/AE/FqcHIjGkf8LiD3sKHfr8e2ssWOOKO2KpEk3J2wStwUYe5WPKwacHYITAzA3KB6KYi0QL7wPP1vkBjjpg8QP7MJ/aHrqVhubnaE3wTp4SttI7P4wGk8cJ1uV07XyE2uCritP5oeQ61uN411OVpPWaBiXDuV2IGo4mN1NcmOaHEKWDigltv6Qz9I4RoUpy9VMj6UkjhvrZGWkoSEJASlICUgCAABAA4ACthiPUqVKoBUqVKgFSpUqAVKlSoBUqVKgFSpUqAVKlSoBUqVKgFQjbGAJUlxDzjSyQ2ooyHMmTEhaFCUkkgxvOoJFKlQE7A4ZLaEoTMJECTJMHUk3JOpJ1NSaVKgFSpUqAVKlSoBUqVKgFSpUqAVKlSoBUqVKgFSpUqAVKlSoD/2Q==;" parent="rIZx2r6VnLa3uUgruej9-1" vertex="1">
                    <mxGeometry x="-380" y="354" width="257" height="196" as="geometry"/>
                </mxCell>
                <mxCell id="-LCjP4ljv7rW6iZ6rMR7-14" value="ITERATOR" style="shape=image;verticalLabelPosition=bottom;labelBackgroundColor=#ffffff;verticalAlign=top;aspect=fixed;imageAspect=0;image=data:image/jpeg,/9j/4AAQSkZJRgABAQAAAQABAAD/2wCEAAoGCBUVExcTFRUYGBcZGRoYGhkZFxwbHRogGhgYGxwcGBkhICsjGh8oIxgaJDUkKC0uMjIyGiM3PDcwOysxMi4BCwsLDw4PHBERHTEfIR8xOTExLjE2LjExMjExMjIxMS40MjExMTQuMTExMTEzMTExMTExLjExMS4uMTsxMTEuMf/AABEIAMUA/wMBIgACEQEDEQH/xAAcAAABBQEBAQAAAAAAAAAAAAAAAwQFBgcBAgj/xABMEAACAQIDAwkEBgcGBAUFAAABAgMAEQQSIQUxQQYHEyJRYXGBkTJyobEjQlKCssEUM2KSosLRQ1ODw+HwCCRz0hU0RJPxFhdjo/L/xAAZAQEBAQEBAQAAAAAAAAAAAAAAAQIDBAX/xAAkEQEBAAICAgICAgMAAAAAAAAAAQIRAyExQRJRBGETFCIyof/aAAwDAQACEQMRAD8A2aiiigKKKKAooooCikMVOqKWY6D1PcKjZtvRgC5CE6DOQL+AvrQTNeGcDeQKgsRjZGQtGekPBVOQHxe1gPWqdtCLbEkmhw8Ee+0coaRu4u408QFNQaY0qgXLADtuLetZty9xO0ZpmTCsiwJZQEnEbucoJLW1trYC9rC/Gq9j+SWOlzmVAzAjIVmkkuOIcuT8KitvcjJpJTI8GJDFIwTGsTLdI0Q2zSKd6mqpz/4btZNRHOe+PEA/J66MZtaPemPH+I7j0zEVBDk1Mn9pjI/GA/yTNXMmMj9jHzL78eLX/LaiJ/8A+sNpx73xK+9AD80NKQ85mNX2pQffgA+SioJdr7RTQbTS/Y8pX4SIKWi5S7UOgmw0njJhm+Ga9BY4+djEjecMfFHH+YKf4fnYk+tFC3uyFfneqk23NpfXwOHkHdh1f8BNIy7bf+12LH/7MiflQaDDzqA+1hf3Zr/AoKexc5+H+tBMPDIf5hWSvt/AXtJsvIf2JnX4EV0bV2Sd+Hxae5Mp+dBssXORgjvEy+MYP4WNOoeXuAb+2K+9HJ/22rFFxOyjuxGNj8VV/ka9qmBb2NpyL3SYc/MUG5xcr8C27FRj3jl/EBTuDbmFf2cTC1+yVD8L1ggwUZ9jaeFPvoy/lXsbFlb2MTgpPCW3zoPooGu1TearOuHkidw4STKpBuosoVlXuzKx+9VyoCiiigKKKKAooooCiiigKKKKAqNxm0gOqup4ngPDtpptraepiQ7tGI/CPz9KiJsWFF/QdpoPW08Xc9Zt2pJO7j5ACsO2tO+09onKbKxyoSL5I0ucxHhdrdptVw5zdtGPDdCp+kmuD2hPrnzuF8C3ZUfzbbIKQtiCvWk6qa2IRTqRf7TD0UdtdOLD55yMZ5fHHZvJzfZesMVa24mK1uzUPXU2Bj0F4toELu/Wzob66AAHsNXIxtoArDUm+ZD3gG+tuHz7afdBdbX1ta57bbyAR6V9LL8Tjeac+UUiHDbcUfR4nprG361JNewmUfOpiLHbWS/6xtBbNDA2vWvfoWDWNltqdW7Bc2FlZADnUDQEnNvJIGgJ/Z9D5AkDhndgUjzPcXzAAHhlBzWNrDt764Zfi4erW5zZIKXlXtKMMTFntuU4TFqW36Bg5QcDvPnUfJzqTJ+twNvFyv4ozVqkxXRqueMRLKTYrIcyixkdnHVyBVUs1ibWIFyQCtHjCMmf9JjWTqo7tHY3Be+TMzJZQScy9UA3ta1c7+L9Vucv6VWDnTwrD6XBsO0KI3HrZKVTl1siTSTDFffhBH8MjfKrfFiMO/RrJEr9IQEZ4GKvnN1s5jyG4N9+653CqtzqQYGHAlo8LCssrBI3WNAftOylewC1+1hXHLhuPlvHk3dEv/E+Tz70iW/ZFKv+WRTmHC7EbVMQsfu4wx/AstcwPNfgjh42leTMI880kcyWUhczWUoRYbvAE+MPyf5sUxGGjxBeZOmZmjXLGxEdz0ZfUXJUZjbTUVybWeHk/hJNYsdOR+xiulHp0hrzPyEzD/zbt/1YIX+cRqlYHm0aV8T0eJBjglEKv0LEyOAucBQxy5WYLvNzSL83+LjxT4aKeMskQmZ1d0VQWKhTZb5zYkAX0FBbJeb5tyy4VvfwiD4pktTKbm1fflwbeBmT/Ot8KrHKHD7UwCRyPjJMkhYJ0eJkN8u/qEgga8RSvI/lTtCbFQwfpLsrOM+ZUbqL1n1K3HVBF70EnjObqUf+njI7Y8U3DuMb2qHx3I4xrmaGcDTVXWS1+J+jU2G8nhWrYvEWRmv3Dz/0B9akNkbP6WFemW4BvlubGxuA4GjAaaG4NuNBG82zSYfApGqghjJIJGuC2eRipCdmWxuTxqSmxbk3Z2J8bW8OAqXnjBFR2HQMc3Dh399RTjATSaEu1uAJv633VY6rc+KVNW9Kn4JQyhhuIBHnRCtFFFUFFFFAUUUUBUTyk2l0Meh67aL3dreXzIqWqk8oIelncmZVy9QKUfqgd4BvfU376CMSbvpGae/WJsoB1O4DeSfS/lTibZrCw6SLW+8uN1tNU7/nUftbZJlieEyRgOMpKTRBrcbZjx3HTcTUVmOJdto4+y3CMcq/sRpck9xtdvea1aMJQllTqooCqoIsAosBbKToB46DTWoJObaRTnhmlVhuZFDkduqMK9PyX2nH7ONl/wAQSgfHNXq/H5sePe5vblyYXP2suDxDG97tYX0A4kAAcDc5rEEg24cXyyNfqhWGluvbTtOh438h5VR0g2unszwt3ZU+N4xXFxu1U/8ASwPuF1yi9rEexIvYOHCvR/cwvquH8FaFh5DYlkKWve5B0Ave4PypljMR0wQR3HXR8pAIksGKqxRzYApmKm3sgHfY05OUmMSPon2a2S4/V9Ku4hvaGbiBxtw3V5flvHc9PhMQlwQ/XVs17Akl4gVNgoupB6q9lX+xh9k4sosy4cD6SIQqrtHnjjV4Y2VVMhDSiIrmYkMc39mLCwYkrYqM3LFVyMY0aLpEZlQqxk1nZAvSZejstuqjG17Za5Fy6wLe0J1PFmijYMCwJD5JFZtAV4dVmG41I4blfgC2b9LKltMzRTKyhnu4DLe4KhE6xIHRqddbv58ftv4VZ9npI0vSdGWWNVMaSTIZFZ1YSOCGZQMrKoF9bub7gaXt/GYfHbZSHFSRphsMjKwkkCKzgAsme4+uVU2O6M1LvypwkMDTriIZHiRmiiRibysCoZVMasi9YjKcwAO/SoLm6TZrYUvi5sMcTJKWbp0Viq3ta76C/WfTeSK8vPnLdR0wx13S/KTkxs1lhiw3QdLiJkjRop2cxoGJkkYGV0IygWsB7XpL8puSUGDws08OIx0IiW0YTEdVnIARQLXILMoup7eyovC7A2di8XiXjGH6KFI40RZCqzPZnkkjVZFPFVGuXf413aPIeA42HBQF06j4ibop2ICjKseUuCFcyZtTewF64OiV2PyRxkEaxJtKeFggllBjSSNWe7MbFgfaDdY/ZJqP5HYPaLpJjEx0AfFHrCeIXkVAyIWIHUBXUKOBFeOV+xp8Ph1Ax2NHTMsYjlmzqwYN0hPskKqKxJIF9O2oaDaGMhiypilyRpYK8EDgLGlgCdWOigeXGsZZ442S+3fi/H5OTG54zcx8+kFzl7UxUuKMWKeJ3gHR3hBCcCbXAJO4HQezUrzRYHrS4gjcBEvibM/oAv7xqi4mZpHaRjdnYsx7SxuT6mth5E7OMeGhhtZmAZvek1N/AED7tacFkggzFL7hr5m2vkuW3e3dVjhlFgOAqvmUZjbcOqPLf8b/AApzBPcgDjpSh5tjFaBB9bf4f6/1ppLiwi/79P8Ae75sTiOkkZhu3C/ADiezQFj4mmWIlLtYbhu/17z/AL3VFOIy0jXNWjBYtMOsUbtrK+WNd5JOpsOCjidwuOJF4rZaJGjTSHKiKWY9gHdxPdxqr4Har4naMMzXAMiKifYQNovjxJ4kngAAGt0UUVUFFFFAUUUUBVXxiRviZMrDMMoYd+UbuHYPG9WDHYgRxs53KpPj2Dz3VncEzZy5PWJJJ7STc1YO852zC+AlKnK0YEikMBYpv1B4qWHnWD/psn9458Wb+tarzs7bZcKIAdZWsfdXU+pt6GsjUa0oex4qS1859f605wvKTFJ7OIlX3ZGX5EV3CKmQXUsCyjKN7X0A9TWoYvkHgM5iGHmuoQF0lHWLZRpnNr3OvCiWyKBh+XuPXT9JkPvnP+K9PoecbFfWEUnvQxD4hAfjU/Jzd4IpnEmMjXLmuyRvpkD3sgueqQT2X1tTOPm/wtyE2gh13SRPH5Xub1FJ4bnFv7eHg/8A2Kf4ZAPhTk84UO44Y/cmI/ErVEf/AG2xDE9HicFILn2Z9fMFRRNza44OAIgyhbl1dGBPYADf4UEs3LbAP+sw0vn0Uv4gleU2psaTfGU97CIPjHIxqqzcksYojDYeVS5e942GUL9o200176jcTs90zmx6sgj3fW7PGgvIwGxZD1ZYlPf+lJ80yj1rjckNnOfo8XF4Li4R8JLGqHNhHUkEaquY6br14VH6untbvKg0B+bRXH0UzH3ejm/AwpB+bfEx9ZJWU9pjkj+IJqhC+ptu409we2po/YlkT3XYfIigtGI5NbSupbECQpfLmldsuYWNg62FxpTXF7D2kVZDGCp0OVotdb7wQeFNo+WmOTdipvBpGYejEinMPOBjRvdH9+GE/HJepcZe63jyZYy442yXyabG5KYhp0WSFljDAuWtbKDci99SbW07a1rCyZMz8Qpt3FuqPn8az6HnHl+vBA33GX8LipPZnLhJ2EZgCcT0bsCbcOuGFtb+QqsLUj2pykvUc92QeL3/AJQ/nao2GZGGhkXxRW+IZflUkkN1iRTfNmbNa2pbJqLncEv5mmgmxyxgcX/CD+ZH8I7a9bNgzNSOJkDuSN25R2AaL8AKf/pIw8DzkAlRZAfrO2ig919T3Amgi+Xe0rkYRD1Us0v7T6FV8FFmPeRxWorkmv8AzmH/AOqv51GAkkliSxJZid7FiSWPeSSfOpnkOmbHwDsLN6I5H4TUVsdFFFVBRRRQFFFFBX+WM30axj6xzHwXcPUg/dqsLFU1tts8zHgOoPu7/jeoXbmKEGHlnP1EJHjuX4kVUZFzjbQ6XFuoPViHRjy9r43quxwswYqCcoubAmw7Tbd516ncsSx3kknzq7cyc7Li5lU2LYd7HsKvGQe/jUVDc3kBmx+GhtcdKrnwivIfgprdp8L0hF0zXdjcMugLkA2N82i33VFQYvEdXM4L9W5MDsBdyMwK5dMpU243OulOV2pOLfRxyyaXRM6Mt0LXytmNgbqSQNSNNarH+xzDgwoHVkW2n6tCNcu8KigjuPAdug6sCM3WETFiNHgIOtha4cgelrgmmi8qXAvJhZlAH1etfuFwL17i5dYU+30idzxnTT9ktU7bkpntvAYZFF8NEXdSY8ryKN4sXWwyjXtvcW7SHWw+TEKopIN7XuCwGuugB0qP2riYMSWdcVGGIUIGRowqgmwNxfidfgKmcXi2KKmFljvpqHjY6DQWN99uzjWbtXjE4UxnOk8iKDlIaSRkAJ35Q6kWJGt916Yco8FM/wBE2IiuBmyv1e1QxupJGY/a36V75W4iVF6LKhRowWc5gWbNZlQDy3/b40lyh2e0uIgWwDlYrvlIsyHOesBv1t5eVdMJbUruMwKBD0uFgfMAjMqRsWA3Z2Dxk6Ds39lR0mz8E7I74TKUFlKtIB1wRYKokBvbTwNt1Tj7OcfZte4yuSQBny3zqBdbr2e0+4kV4nw8hYsQQRlsQFcrmHWICXIytuvfebAAACaSqpi+SOAMfQ/TRa3zs0VyczHUyZCeHDdl43rzszm+2eY79NLI41z+ylyMyggKw3Wv1ifDdVuTGzsSgYqxtbpFKjXrWAYEtYKV+8NTwf4fBSSLq2Q3JJjy29m28p1t51sDurFyxhJky/lDzcSNl/RniO/MGkynuAuo799NIuarGFFbpIlYgEoS5Km2ozIrKfEGtcXYrqpCyAmwsWTsjEYBsQCNA1gAM2vZTbEbPyhC11yOp6p0K9XMpPtHRWbhqxrXVTdjG5+b3Fgmz4dyCQQJ1BuOBD5TenPJ3kricPiEknjyxaqXDK41Gg6pPEVTsRjHaR5MxDOzMbEjViSfnVz5uRI4lkd2YAqi5mJsdWawJ0+rSNL70abgw9G/pUrhlC4dm4rmUf4gUeWgkqFhmIqSml/5de12Z/IdRfiJK1UNcKt2FMOWuMvImHHsxDM3vuNL+6hGv/5GHCpXAOsatK/sopdvBRfTvqlzTM7M7+0zF28WJJt3XOndastR1Ks3NhFmxxb7EbH4KP8ANPpVaiNXTmahv0spG9Vt/iM728rLUGkUUUVUFFFFAUjipMqM3EDTx4D1pamW0tQF7Tc+A/1IPlQQRhtWfc9GP6OCLDg6ytmb3U7fEkelac8dYPzr43pcfIL9WICIfd1b+In0qormytkTYkssEZcoAzBSLgE2vYm58qt/NXsnEw7Rj6TDyorLIhZ42CjqFh1iLalQN/GoPkhizhMVHMGBUHJKO1G0cW4kbwO1RWp4uGRGkySuQTmTVnsHVrWXK2ZQwuN263EU0mVTS4LMI1ZYmORfbS5uEYA3K/aQcb6cNKXXBMBYR6cOjldAPCz+HDh5VALi5gOrJ1rmxmSNAvWtZrKjeySbgH2P2rL7g2rjiD1MPLbcYpSt+OhZj8KlMcU9FE4sB0yXO8MHAzaXOZSLC9/LsFRnKnFOkax5yTKpN2RM0YGW9iBvOa3drrXgcpcXGLyYGUADUo6SCw1ubAfOmM+048Wxdo8RYpYfRgqoIvdcr3Out7Hu0tUbWLYeDjyLlQAFRTPaGBiXNJlZbWz5OqWAudeDW1tmB7ONM8Njozh/0eOVldRkLGOVCcozcACBrqQeB17G20No2SPDJiB0rMQ7OAwZGDqBmc+1ew63EHsscyX0EuUWz8KuXNiXTOjOrZY9VKx3IKqp1AW1+N+01KyyyxgkTq5vax6VSPpMp9pnBAJtuO7iaY4zAyyYKOMgs6GRSAyt1GItuNjppa/CpH/wgBeq6+yunR2IsL+0Gv3EeljrXbX+MQ3j23OgBkU2y31AJ0K3OXKl/aGgJ3NrYGzp8dKt+kwx13kId97fU6TW3HypKXCOHW7DtsHJOiqAbOAt731PAgcKbxrMoAUSWygFh17HozuyNc6tYXtfKhPbWLqeWe/SVwO2A1wI3AGW46w9s2AAbK17rawFtRvvUlh9tRnTdpe2u7XXd3H0PYaisHg5HBSSQv7NiLpYqb5jre56txu03C9qcxbCCm4kfcmhyEdR2db3W9gzHcRwFc5cbWrMolY9pRNuYa94/I1Cc4U4jwc0oa1oZWHi0bRKf3pV+FNdobHIhaOQhlClgVGUAqHIuCWzXzEE6aKunGoLnf2mEwbpYEsYYxcX0JMpv3fRD4VuSTuM731WH1rnILAZMFHcWL5pD949U/uhazKOQSEIIlzsQq5SV1Y2Gg36mt1wuEEaLGu5FVB4KAo+VajRi0VPtrJZhH/dqqeajrfxZvWnOBgBkW+4HMfBesfgDTRmLuSd5JJ8TVRF8p8RkgWIb5WufdjIb8WTyBqtCn/KXEZ8QwG6MCMeVy38RI8qZRrWK1CePYiIgb3IjFu1yFv5XJ8q1fmvw2TDM1vbkNvBVVR8c1ZPL1p4k4KGlP4F/Ex8q2/knh+jwkKfsBj4vdz+Kgl6K5XaIKKKKoKaTLdieyw9Nfz+FOiaSiXqjtOp89T86BhiFsCdNBx0HmeysXn5uscZ+lbopVLl2Mcup1LbnC7zp51ofPDtlsLgcyG0jyxqn3W6Rr9xEZH3qgcXiHJ6aOZhHJEsiAGOy3A6wL6Aezcft34VWbdE4ObqIKpJkDi1yRcX339e+pzD7MEMEcbNmES9Hm1v0e4A2P1bLr2L3mmGB21iLFklWRFDtYxl2IBBXKyOEvYsDoesnYwp1NynlS4kwrSJcqHi+kVt+66roey/bTa63D3BYXS13QjSwcW0A3DsvprwXvN0YTFI+RZ0Zt2VkRid24n2tBwvxpJOWmD0EivETwZCCPHLmt201iwezZSnRYlky7oxMMraWF0Y5gRv6ttdaySaLcqMEI8K9silii9UZQwJUMthob2J8L0jyPxgZSjCxj6pBFrAjT5H0qT2zs3pIIkEnSZGzFmU3fKCBmsRqQdSAbnXSmOxuTs8UkjmzqQFUKcxKi5s97br2sCbdp4ZrTxiJYZAxRony6guosO5lYbjpUDtXExNCmIjw0RAYo4VsjRSL1lsykXFxcEfaXjVoxuzUySL0JIlXK6rYXXrbt2vWJGvDhVI2bPFG0kUhKxSjonGXIYnjYFGI4DXs3OOw1cL32H0skbxgosi3XOt2LnLoNzhraEnfplPdf0HlTQS6kgG5Ka9VTYDJpf048TUtyewsJhCLkfozYPlQt1iSLkC9x1h4Xr3jdnIq6C7DLYESW0zbhmtxO8cfIdLqMmUWJkIDJigwNiLxsPt8Tn1OU/u+qmF2jKAWMkZN1tkJfRrAsbKuml+yw36UnidnoWDO9gTcWZWvdrkP1AWvm3BrdXSn+w9nRM1lZLWu2QKtzx6oJPDXTh3WrjlyT12sx+3jA8qJBpdNQulwCSWK263ZoSexgad/wD1dIqZ2izAFgQou3VcxsbXXQMLHxqbTCLbQLbuppitjqLsiBWBv1ere199t+86HSpOTG9WJZkfPMs+E6UaZ4mI7rqR+fbWWc9WKv0cJ/vZDfujSNB/E8laLsJx+iSxsNEaRSN1lubfwj41lvOzkfGFGZh0a20Fxd3eTt32ZfICumM9J5qA5vsCJMfAu8K/SH/DUuL/AHlUedbfkrOOZrZy9PNMrFgkapqtrGRr/KP41p5WtRoiBlSR/wBnKPFjb8OaogydGjyn6qlvG24eZqX2ppEq/acnyUWH4m9KrHKzEZIFjG+RtfBdfmR6VUVUEkknUk3Pid9OY1pvCKNp4jo4Xfjaw7ydBasNFOTUPSzSOPryLGvgnVv+8zVvOHItYbhoPLdWTc3mAydGD9QXPex3n1JNargzpQOr10UCu0QUUUVQliN1u0gep1+F6VpB9XUdgLfyj8TelL0GJf8AERtHNPh8MD7CNIw75DlXzAjb96qrgdsN+jRRlVbIGUFr6LnNlFiOAGvYAOFHOLtgvtTFyjUBmhAO7KiiM27sylh41D7Jb6O3YSPz/OqJfZ8yLKsgvGb626y+OVrn4nyrR8Fi82UMpubEMkrKra6EAsVOhB3cCeysqNS+wdtGL6OS7RHhxQ9qfmu7wN71GpOjkdbpCLbpI0kGi3IvZdT4/VG4m1VrlRhYlmjiMUSkWd3jiyZgbhVGpseqbkd2tS+xtulQpLCSM+y4J8NdL3FiLbxx3VA7ex6TzyvfMqERdU6qLGx7TqWNvG26sXppYcDyfhCExgod91JUnjvBFJQiaMqqzmxOVWlLM2YtoGc3A7B1ezXt5sWWWTCKInyy5QM2moXcVzKw1AGpBte9IbXEwwpLorszFHuGXqm6hhlFyc1tANb1iWj0mLx8eIzdIsi/WjEt/qkaK2QA5xfuF99tZLG7dGgnwwIP248191/qle/2uFVTaRM+GTEj9dExhdgW3rZ43PcLEm4tmzcbVKnBuyK3VZGVHAzxlSCpNspKkg3bs9kDvHazclRKbM2rgVzFIkivowjCqTlJGqISbdmnGnsk2Ekv9IyE6WJGnk1yPTjVcxED5gTHffqytkzftX0IuRftCtvJBqO2ltiCOymJOkb2UhYozG6gC6MOxtSB7Km3WFpcd+U3Z4W7FbFSRerOCdCuYAAFSrA6kcVHxqAXkPiFUC8chVmsyyOCVYAi+YBcwbXfw41BYzbyxoBGyK4+qCz2u2YhpBox3jfx4G1pTYO25JIg+cXDKGysGIDPY5lOq2XcOJU6m4FZmEnhMp8vKzcnJMSlkxKsrZLXLK2YplsSVJGaxt35BxGthXUeP+tVzZ+0pzIVds0eXMut3VgEJDXNhoWOg3CpTD7RDWGRhe1rp2qW118r7rqe0Vw5MdVvHwZvL0bYgaEMpa3jFuP7lvOoDb/JSHETyymQqzNru32A+ACjyqS25iVzuRe/RyLYW6xADAW3A2zgedVfbu0WTETgMR9K/HwH5V6MPG3OeVn5F7BXCRSKrZ88ma9raBQoHqG9amiKQ2KpGHize0UVj4sMx+dOlW5AHHT10rTRltX2lX7Kj+LrfzfCs95c7ViSb6QyWBaJQiq1sgRmJBZeMlvu1oWKkGeSU+yuZvJbn5CsP5d4ku0d97dJKfvvl/y6lVKYbb2D/vZV96EfyytXMVjMNJJHbFR5FbMQyTAkj2RYREb7cao1ANQbhyb2vhY/axMQ8WK/iAq9bL5SYJhZcXAT3TJ/WvmvB4nMNd43/wBaXz0H1NBjYn9mRG911PyNOAa+USFO8A+QpzDi5F9mR1912HyNB9TUV8zYfb+KT2cViB/jSEeha1aDzO7dxWIxciSzySRrCzZXN+t0kYBva+7Nx40GnwG7uewqvoM3zcjyrxtnGiDDyztujjeQ/dUt+VR+xtqxZGDSIrCSW4Zgp/Wvbfv0tUJzx7TEey5QrAmVkiFje+Y5mGn7CtQfPcrk3ZjdiSWPaTqT5mnmz1CrbibMe7Nu87AHwYU0iS7dYdUanv7B5kgefdTrCuSSTvOpqh7GoJtcDvO7zPDxoxELIcrgg/PvB3Ed4pG9O8NjQF6OQZovjH3r3do/+DULbG2q8DadaNj1kJ0PeD9Vu/u1vVkxGEjxMZlicqSMpYb+3JKl9bf6g2OtSxmHyHfdTuPbXdm46SF88ZsdxB1DDsYcR8RwtQXnk3teRAIMQArrZUKjRxrqG4k+APV11JqwbQDSROVkygqRdWBFjvurLZQO4g/Cs52xtkSICl1PFSd3gfrD/elL8n9oYoAlJ2F/tAOPTSueWH0qQTbjwPnABEiWlW2hZb3YW4gl/wB4jwu/J3HCaDMdLMVZSbgXAItxt1vnWfY3Cu7GR3UnfYKbfu33f69tRWOmkVWieRlR7ExJ1S1r2DE3KrY8dTpoRu6Y6+P7RZeVnK0MxiwmQmM9ae1kQm2gI9s6WsL3tpe1UtptWIZmZvbkc9d+0fsL+yPMnS3hmuALAKPZUCwHgO3tJ1PEmuVNApbCYho3DqbEaHvB3g9oNI0VRsPJ2XpcPBP2SFHHg7xH538qjZkmjOXpLhcyndc2vlJJ37x6V45s8RnwU8JvmjlDra/1ljcH98PVX5zWaLGiaNmUSor5kYrdgAN4P2DF61y+Py6+ll1VmlxdljDgCRnACgiwuGUnfus3DtqpbTl6XGMqm/SShfN2APoSR5VDx8pcQCD0maxv9IiSfFlJ9DUnyBdsRtOJjb22lawsOqjMDb3gvrW5NTSa7tbQFAFhuGgr1GbdbsBPoCR8bUNQw6jd+VfU3/kNaFf5Wy9FgXP1pWWMefWb4CsW5Yn6SL/pf5sp/OtU518V14MOP7NDI3vObD4L8ayblc158vBY4wPvRq5+LmpVRApzg4A2YsSAACbAE6kCwBI7fhTYGn2z8QFDDMVJtZlFzpe43i17j0rF3rp14ZjcpMvD2uFs5s9gArEkcGy6WF/tCnIgOawZbZQ2bUAKbanS43jhxpKLFKWka6qWtYsCwsDxFjroN4pTDYhTI5uuoVQG0U2y3J3fZ3abx2VneT1fxcN8a7v/ADv9umFswUWYkXFjoRrrc27K8yhlNmFj2f78KWicNI+UZrRhQqnfooYLv09o8dBTXaMgDBQCAqqLHeLjOQe8FjVxtt05cvFhMLZ96n0UD1p3/D6Lz4puyKMfvO5/lrJhJWv/APDkmmMk7TCvoJSfxCtvKac4OJkwuPlVbZJMsoBH2xZreLq586r+O2/njyZMpzLYg3G+2o3G9yLW41q/LjkrFjsjM7RyICFYAMCDrZlNri+osRvNZ1tbm/xEd8ksUg78yH0sR/FTYrzdE36yMDhmi6hH3R1PhXE2PExvFiRf+7lXKf3x1T6Clcbs2WM9ZPNSG+WtMiKuw4xGxcQguY2I+0lnHqt6j20Njoeyn2ExssZvHIy+B/KpZOUzMMs8Uco/aUX9bVekQGHk6pjO4ar4byPLePOkg1Tu0Tg5FDxAwyrrla5R+64vl8dB29yWwuTxnzHpUjF7KCQzN4qCLDvoIe9OsNtKSMWV9P2lV/TMDapfE8jMQvsmNx3MQfQi3xqMxGw8SntQv92zfhJpodk2zOwt0lvcVEP7yqD8aYX/AK1ySNl9pWX3gR864DQKxIWIUC5Ogqakggw6AyDpZSLhL2Ud57R47+yoXCzZTcV5kkLMWY3JoHGKxjyb7AcEQBVHgBv8703vXL12gtvNhtHo8Q6f3kQtv3xub8bezJx/+ZDnHgz4eOQKpMZtqitoHMTkXBtvw504VTNiYjo8RBJcgLJlawvcONRbj7Pxq67b2oj4aVzu6XKEbqFlkQIVW/1rB5Ae1RppWNatPbOnVN5iTyMg/nsPSrvzMYJDipZVDDJFl1YMPpHFrdUEaRtxNUphu9a1HmYw1sPPLbV5VS/aI0DfOU1pV3ffS+HjzFF7WJ8gAB82pBqNqYnoMNLPxjiOX3nuV+LiiMo5YY/psZPLe65yq+6nUFv3b+dUTlV/5h+5Yx6RIPyqxDdV+hweFkVc8cEhsNWSNjuA3kXvUVhVFbw/JHAuOthY/u5k/CRTeXm72e26N092Vv5s1Bh9FbHLzV4Q+zLOviyN/IKj5+aQfUxh8Gh/MSflQZaDXQ1aFieafEj9XPC3vZ0PwVh8aYYnmy2go6qxydyygfjy0FND1un/AA5J/wAniG7ZwP3Y0/7qy2bkJtFd+Fc+6yN8FY1snMNs6SDAOssbxu07tldCrW6OJRoRe3VNBdJ46h9pYXNpVjdaQkgoM9x+wL1AY/k2eytZkwg7KaS7OB4VF2xbE7AZd16j5tnOOFbXiNjqeFRmK5OqeFVGOvCw3ikytadjOS/dURi+S57KbFSw20Jo/Ykde4Mbem6nsfKTEDeyt7yj5i1O8RycYcDTGXY8g7auwq/KB29qNfIkfA3pliMUj/Ut5A1x9nyDhSD4dhwq7NPDop3aHwOv9CP97tU/0cncyeZP9KUK24H0oBFBwYV/tRfv2rowj9sX/uivakV7AohNsIxUrmjW/EPcjwFuy438aFwjhchxHVuDlOci4BANtRfU+tL2ryRQINgrf2qnwRvztWicgNvwwYVYXNmDuScra5jfcobcLDXsqgE0nfU/74CoNrw238PIQFlXXTVgP4SQx9KZc7G1Y1w6YZGBeRlkZQdQi+yT4sFt25T2Vj5kYbnceDsPzpXBMWY3JLNvJJJJ0GpOpPjQSOChztl4cavOWKwGYL4sU+PGoXk7s43GnjWk7GwtlAIvUVWMNhYz7JS/7LIfiVqQTCsNzOPP8lYfKrS2zom9qJD4qDXgbBg4RKvu9X5VUV5UkH1z+6fzzV7Ekg+sp8bfKwqeOwo+BkHhK/yJtXg7E7JZB5Ifmt6CHWaT7IPh/wD0a9jEtxT5/wDbUi2xpOEiH3or/JhSZ2TKP7o+BZP60DRcUPst8P63qd2KboeGv9KjRgJRvQfdkv8AMCpnZsJVLHfQOq5au0VFeSteSlKUUCDRV4bD06rlAwfCjspF8CDwqVtXCtBBSbKU8KaTbBQ8KsxSuGOgps/JhDwphiOSQ7Kv5irhhFBmE/I7uphPyOb7Na4cOK8nCjsoMXm5Ht9mmknJRh9U1uBwY7KTbZ69lBhcnJuQfa9TTeXYEna4863d9mJ9kUk+x0P1RQYOmxpF3s58bfkK9jZLHga26TYEZ+qKTHJyP7NBjsPJxm4t6Cp7YXJLIQxuT38PAVpkGw0HCn0Wz1HCgrux9k5baVZMNDYU4jgApVVojwiUqBRau0UVy1dooOWrlq9UUHm1drtFAUUUUBRRRQFFFFAUUUUBRRRQFFFFAVyiigKKKKDzauWoooAii1FFAAV6oooO0Ciig7RRRQFFFFAUUUUBRRRQf//Z;" parent="rIZx2r6VnLa3uUgruej9-1" vertex="1">
                    <mxGeometry x="-342.11" y="80" width="181.22" height="140" as="geometry"/>
                </mxCell>
                <mxCell id="FCyOTNfMnsdIQXkVRfAB-1" value="" style="shape=image;verticalLabelPosition=bottom;labelBackgroundColor=#ffffff;verticalAlign=top;aspect=fixed;imageAspect=0;image=https://media.geeksforgeeks.org/wp-content/cdn-uploads/20211209124013/Collections-in-Java.png;" parent="rIZx2r6VnLa3uUgruej9-1" vertex="1">
                    <mxGeometry x="120" y="650" width="812.5" height="350" as="geometry"/>
                </mxCell>
                <mxCell id="NPqjgVoWjYc2hlhzptdy-0" value="LIFO (LAST IN FIRST OUT)" style="shape=image;verticalLabelPosition=bottom;labelBackgroundColor=#ffffff;verticalAlign=top;aspect=fixed;imageAspect=0;image=data:image/jpeg,/9j/4AAQSkZJRgABAQAAAQABAAD/2wCEAAoHCBYVFRgVFRYZGBgaGBgYHBwaGhoaHBgaGBgaGRgYGBgcIS4lHB4rIRgYJjgmKy8xNTU1GiQ7QDs0Py40NTEBDAwMEA8QHhISHzQrJCs0NDQ0NDQ0NDQ0NDQ0NDQ0NDQ0NDQ0NDQ0NDQ1NDQ0NDQxNDQ0NDQ0NDQ0NDQ0MTQ0NP/AABEIALcBEwMBIgACEQEDEQH/xAAbAAACAgMBAAAAAAAAAAAAAAAEBQMGAAECB//EADwQAAIBAgQDBgQFAwMEAwEAAAECAAMRBAUhMRJBUQYiYXGBkRMyofBCUrHB0RRi4RWC8SMzcpJDY6IW/8QAGAEAAwEBAAAAAAAAAAAAAAAAAQIDAAT/xAAjEQACAgIDAQADAQEBAAAAAAAAAQIREiEDMVFBEzJhIsFC/9oADAMBAAIRAxEAPwD0TC55SfmIQy031uJSUy6hSHde58STAcTm7p8lyI1r0bFnoDYVDzmHCoec8xftTVB+U+8NwPalWIVyVPj/ADCpf0GLPQ0wY5GSrRYbGV/D1nYXRyRDcNmLKbNrM2wUMK1Z15Qb/UWHKFJjFaar0FYbTKSMRpmR5iSpmi89IhxoZNtolr5jbSPSYD0OjilbYiTOgYTyts8dNVMsvZ7tYtTuPo36xHGugjHNstqWLU3senKVF8/rUXKVNx9fET0xHDCVrtR2fFZeJdGGxmUvQCjCdrV/HpHeEzqnU2YSj4Dsy5ez7XlrTIKSKCAARzheIR2aStqJHTwtjuYvw+KKC17wpcZfeK2GhqiCTFARF2GxN4dxQANf0ydJgw69JyagHORviR1mtmCRQXpMOHU8oJ/VTa42a2YkfAqYM+BK6iEpjBOjil6w2zAycY5SRlY8p02LWcNjVEzZgarhmPKBVcvfpGRzFfCD180AGkDYVYEuWP4TT5S/hCKeeDmIYmcId4uSDTET5XV6Qavgaq/gJ8pcKWORuYhGhEILZ558N/yN7TJemVOk3MazxDBZwHUXOsINe/OefJUdDoSIww2csNGknF/Cyl6W9WB5CbxOEVkJtFWWY9X5x9WX/pmZIzaOuzOeNSPAxuvjLrRqJWtY2M8kLkG46y1dn8WdNdROmO1RFov65a66qbwxKhUWbedYGuxQeUX5rXIN5NmCnUNcSp53lZUlgNJYcHiQ0MxFMOtiI0ZUZnldWkSbTlsE6d9eWuks+PyU8V1hWGwR4OFxKqmBhXY/tIHARzZh9ZdiQwnjuPwDUn40vvfSW/s32iLgI+jDrziSiYf4mkAbiKsSxJtGOKqlhdQTeLThqzH5Qo8SP2iBQI6WkiNDBlROrvbwA/ed/wBHTGhLQZRXbDTYpbMCjaSb/WGtC62SUG1Jf/2gVXs8hPcqMvS9mEb8kTYs2ubE6GD4nFuBcSPE9msRbuOj+6n94LSoYhO7UpNbqBxA+0ZSiwYsHfP6iaEaTdPtCTuYNjQL7aRPXRfKGkYsT5y/IyJs8f8ANK8KttIO9QgwWGixvnFQjRpwM5cjVoooVLzdZSNRAYYHNal95HWzipaCYbXeE16AIvNVhB17QOp1htLtJ1iDFYfpAi1pNxQyZecP2lW+8tuR9oEcheKeMh4ThsUyMCpItAlRpbPf+6Zk81wnbBwigm+kyUonR5LjKihjaBvUEjZTOeGTsegjD4so11l+yXMVrUyvO086CRjkuLNJweRgYUWGulmI8Y37NC7gRbi6yP3geUiyrOFp1BbrHjNAlFnu+WJ3B5CdYvAhxF3ZvNkqUwbjaMKubU104h7xpLZMSVsqdDxJt0h2FqMwsykGZV7QJy1nWFz2mxsRY+MXJDYsyrQbkITh8MGGotCHxK2uIvrZkdVRdeszmkrMot6I8TliX11kVHK0DX4R+8kTiAJZtdybfQDnJVexuSTElySloZRSGFGkOQtIcThuI3UkGE0DcXE3VS+0DWjJi1UddG95w9Pi5w500Pjy6eUCekTzA6axGh0zujwgWLTr+oUbWghwLk3095sZcx/FaDfgdejCjiVO0KDROuXqPmc+kY4SwFgSfPWNFv6LJL4c4rB06gIdFI8pUc37EqwLYd/9pN/Yy8Eg7QdqQve2sa2uhVR5FUyZ0Yq1wRuDNHLGnquIy5HN2UHT71i/EdnEIujEHodRFymPUTzkZc42m2wTyx43DPSbhcW6HkfKRK8C5WNghDSwLgwk4KpbaPabiHU6yeEpHkEcCkVcE/NYoxmCcalTPUGKHpFWPRDfQQuYFE821EkQyzVsAhPKL8RgkXnBkhsWLxUMyMFVOsybMGJS2pzg0oeaU0UkFMriA/Cm/hws05hpw5AxBCD1Mmy9Bxi8widIvMQqQtFxw2ZPTXhRrCLsVmDg8XGb+cStVe284R2OhMpGTegSjQ2o9p3XQ6w6j2tJI0lc+ADJKeGBIAjYoS2etYDPwKPExheHzPiNkHLc85UMmokIOLWxsB4nQfSWKjTCWuCSx5Akn9lAnLKbcqR0KKS/o9w2Jv8AMbe5/WFlBfiHMb8vK0UKdOUzDYtwdb2jKXomJasMbrpoZKlTWx0MW4DFD3+kZVEB/mWTJNUzdRdImxncOx09o2pVbd1pvEUQwgkrDF0xEmYi3j0P8yB8eSeknxOXlSSu0AxKMnKQk5LstFRfQSagKnjOh0IuRv8ApCcPiOGwQ7W3vtz9Ym4zpf6yZMQRzgUwuBa0ZX12I95MVErOHx58o5o1yw+ZfeXjNMjKDQbYTAJAKf8Ad7TtUHWOKQZrlyV6ZRtyND0PIieNZxiMRg6ppVlO54W/C6/mU/dp7ZUpc1YqR6j1EWZ7lFPFUvh1VF91bex6gyclY8ZUeQjtPpIqnaRz8oMet2UVWKkag29oTS7OIOU53yI6MWVinnVdjoDJnxNduRlwoZQg/CIWuWr0m/IbA89c1uhkLYWo+956WuUr0kyZOnSHJgpHmi5O/Uzc9Q/0pekybKQMYnivDMKx2uBBmHLPCaw0V9xaR3JlhOUk8pG2TnpMpI2LK+1ObVI+GTGSrkpjZIGLK+FnQpyw/wChnpGuT9jHrEfhXr/E0ZW9AlGlbKSaB5Rnk2WM5LFrW2XmT5S/ZxlVHAIoSn8Sq1rFtQovqxivE5wyU6h4UvwaBFsbuQthfnYmVeSXYixb6B8uccSIhLcCl2Y7JxnQ+LEXt0HnLCmK4QAT/JiHJ6lqfxHspc3NhYE6KN//ABAHgBAqGP8Aj1mIVlSm3Dcnh11vp4m05b8L0XNnBsdfQ/rO0rcPjt96aRbTxNgF58h+s6SrGUhcRvg8xVhcMCAbc9CDqJYstxoYWJlFw5Ve6mguSfM7w3D4hlN7+H30MeM6FlCy91KV5yjEb+hGsUYHNjoDHKVQwnQpKXRztNdnLoDAq2D6RgTbnMBHWZpMybRWcbgCNr+cXcQXcNfxl24QdiCPeC1ctRuUlLiv9SseT0qXH525TaVXGoaWFshQ87e/8zlcjQfik/xSH/JERpjKhNgTC8Ork99z1EZUsIh0RluDboR5iRYnDlL3QkdV19xGUGttgck9JDPDYjSxPrJaovsdQL2POLcM4dbI2oPynf6/4hL2BuzEC1gOQJP18pS7ROti/NKYLBvzDXzEFRI1oZX3OEtdhex1sRfu7+Fh6QV8OVNiLGc84NOy8JqqBxTEmSlOgklSKkM2aRJMqTFkiiOkIzOCZOrTUcB50uX+EmGF8I5FATf9PIFtChMKOkIXAjpDvgTpEtECADADpJP6EdIxSHYLCh28I8YuTpCykoq2KcDlXGwuNJccLSWmhNgABf0E3SwwUWAnOO0pPf8AI+n+06Tu4+NRRxTm5M8wxiriXFQOrtxsXAqE8K3uAD5WlT7T0qSVTTSq3C4G5vwOrAgacjrHXZzF1GDu3BTTYJTG1tDc84p7XYZKnCy2DdQANeh6+cipU2mXq1oHzvEoCtMMQtJFYgHVmUHgA9SCT5TrJKxpItMi9Wor1u9sp/BxX5m0X5fRV3XjPfBTi6MEI/b6iEZ5XFR+Fl4HNVVY66U/w2OxJIv7RGl+o9/S54ZbKt9TYa+POdVnsptvY2g9WjcpZ2UrrYbMBa/FNYZi7sW0Kuy2BuLAmxPidDOdvRWjrL6JTiJOpPLqdSTJ3xSU7l2txHmdyBynQAG331gOY5elfh4rjhYMLH3B8DDdAoY5djHfiYkcJPcI5qOZPO/lDUzB1FwxHrEWKzFKBRGuOMlVsNrWH7xguukOTSBihqc4q8nuLbSWlnBLDjNx+kUKuvpIkqKxIUg20NuRmXJL0zhEdLmT0Klw/EhN97gjoRyMsVDN0cXRhfpzHnKGy9JyFIJ1OvpaNHlab8FlxJno/wDWDw/gzYrAi4POUKhWcgqHIJU2Pjbx5yfJMydH+FUcOWF72IJtzNtBLLmt7JvhHWapwvxrpxC+85XOQtlY77HpN5shemHB+UXvfdTuPQ295UcUfiIpR/ke5sb6H7+sSc2noaEU1stuJxZtxgAuuvELd5dOIG2+mvpC8NjhVRuE8LgcxcXtcffhKlhsxVOEVLjiPBoCRY2GttuUmw2KWm5HHa4te1ze+hG3hAuX6F8ZaBmFRXpjgL8YIIUiy97fX1jyoFqCx0MUfERSv9pC90cW/MW1AhGFrBwfzKSD/MtGavGX0jKLq18Mr4Yp5dZEFjOhUv3Wg1ajwm3LlNPjraGhO9MGAnQMkKTXDJ0PZnFMmW8JkxhKKXSdASYJOgJPEawcrec/DtCTT6SKoYriMpEJEs2W4bgQdZW8Ob1FHjf2lvQWA8p18EajZzc0rdGqjhRcxBmGPBBJ2F/bxhmcYm1l9TKP2nx/DTKg6tpLSdKyUI2zz/MsXVUulLhSgXbvC9+vfO/pNDDKigs/HxAHibQegO01RqC7I4uG5dbfv/EUZvUd2uT3QbKBtY6DUbt4eE50sjo/XZNVplW4lN/4jM40MvDUTjXQhiCRpsDbWRYhkRQjHWwA8esFam6G4F03t97SaH6LIO0NIcLNqdu6CxU+AEKwlWnxF1a5Y8VhobnQkr19JURQSp8tg35Tv6SKojUfmJty3MDgvnY6l6XN3deAUteOoWYOdQvPhjAEVA6DiW104tiDbdTKbhc9ZFUleMA3F/mAO5H8Rzg8zpVFsCBfW1yGJvrodZNwkFSQ2p4ReFFe1QodGcAkHr5zp6lzdW0A1W2tzsT08oDXCr3w7DvcZAJN+7awA9Ity7HUwzKA/wA3ES97KTpqW2Ou0GLYbRYMNjGbdGC2uGtuD4biZg8NToghQRckm+puddzA6mNW1r87acvPw8YJhsUeJuN1LXNlU3AUbX8Yo1Dx6wvpBsXmAQW3I4dzYAFrE38IH/VX0EDq5ghOrAWIAvbU313G330mSCyxAHQg+P8AFpKHsQx36+cT0c2pm4Di/S409oJju09Knpqx8Abf+38Rkm3SEdLsumEzTgXhe7La1r6EG9wQYhx2IRCzoRTQ7g2PPW3npKlWz+u4LLwonUC5A8z/ABIMNhaldgSQ5OxJvfyI28o7i6/18FVJ6HdXPSzBUvwX+YjVvDwEf5TmIcdwBTezFluRwnvEb3BB89JUcRSSmtuFmfY2HdQ35tsT4a+ksGXgUkREsHZeZ2OliTFSS2Nd6RfsqdUUDQW0HieZP63jilSHEClvE+EW5RQ7o4tQBYX18zeMlK8dltex0l4LKmznm6uiZ0sdIRWTiW/MSJ3+UEHzhl51tWqOa6Yn4pgM6qLqR4mR8M5GjqTO+KZObTIAi5Ko5zu8FInHGVk7oaglntBq9cTh8TFmPxVgYbs1UG5bX/6voZdGxS8HF4es8hyvNuHEWJ8fbf78Jf6eJuNDvqJ18X60c3Kv9WQZvjOM3tYDSeddrcQTax0H8y75m+hlAzYcTMDGntUCGmIcwpk95TtqJrCYy63AB11U8mEylXFyjHUaKfDoYHiKTI/Gov1HXxnPHxl36jWYUWdzUFzrqu5UabeGsYZlmPCAiW4jYWte3O1usEDOQHXn92P+ZGmMUuHdO8CSSpG5FrkEeEfsToYPl6sque61hcjQg2mw7AEOePQgNbvC3MgfMLznF1fioVpHvEjmNVG4B6+G8XLWYOiDisF4dep1OvtAlY1kq0ySWuGXYlDxC+w7u48Zy1IE9eYguYKabllut9QRcbjUX5xjhMbUUD4gDAjW4AYeRE0o6tBUt0ySlXqWChrAbaD+ILWx1VS3ECNiTe58DbYekYYfH0mJGq62swFxpsCN4TWy9Ki24ied7i+/OSSp7Q7lfQlGDap3gzHxJN/TXadUKNRL8FhffS5PnzjTEYIhAoYqRcAqOV+Y9pxgMAtNW4mJJJNzoNDYnWG21/wHTsHpNW2+IRfcKFH7XkaYUMShbiPNb3I/iG/1NIG/xVB0vqPbQzip8MMGR04m0ZuIfLvoL7zJMLkmRYbDcNwt7A6j/neT1sCvErPxCw08fC3OdYKm68Qp9+7Ei4Nlva92I11vtDqWQVHYNUbiBNrchfXQbc5qd2DLVG0eloEBYm3dGpI62Gw9o2wWT1WHG5dKY/AhANhfcry1kmGwApPwqLAi6kbHqCfIyKtiMSz2ps1LhYbkFWFxfTc+UVqgptlry/A4Y0/hqqG/4H/FbUkX1uJzh8vSi54eFlO6EcRXp3uQiLE4+k9dEQEVAwbiT8DAWuCdBfUcOu+ohmd5oMOtqRD1nBAUbL/e3Q67c4rZkqG2Z5/Tw6qgsalhwqOh2JP5Y7ymkzKtRnAYgEm17X5DoJRuy+UkH4tUF6jG/e3YnW+uwno+WtYL3SCdCN7e0twxblb6J8rSVLsnqUmDBi1xysIRhtbkzKw4iAJqu4Rbcz+s626ObvQBVbvHzM4DzkzV5xts6kiXimSG81BYaE/xJyzQBcTbQ8veSfH06/fMSFlaOcSdJWc2xRUHXSPsTUuJVc7bQx4iyK+cUQ4cHUG4noPZ3OldANx05qen8TzNzJ8qzI0agbXhOjW6dfMbzohKmRkrPYMahKk3uAbe4vKVmdKzSyYLMg6BbixsQRsdND9YBmtC8s9k0qKNmOB1uPSAJiytlYafT0PL9JaqiA6GL8TlgINjfwOn1knEdSFqVVuSnmynTi/z4zpcClTvIfArswPQiQ1sC6aAXHQ6H0M0azqRbvW5HusPI84q0MyShlzo/ECVHPx8xJlKqSp4lPJ/mF+rLvOlxrvYKy6bhxqOu1jJeNmGqqfJtP0gcvTJEowiv+JX8bKT/jnIK+AABQsxG+p5nb/iDV2Un/tt5rbT1uJwqsBvUbmOIKdvG81mo1Syo3HCSt+h2H8w8ZS1vmIPhb9hADjKi6KXXqeFW3357TsZw4NuNb/3qyfXURuwdE1fBOg+d9tbE301kVDL1rDjZmZbblje43uL6ToZs+5VH8nv7AiRUs4K8RZBc9BsOnjzm38Nr6T0ctocKOFJDmw3084zFClRF+EKLgfLz9Ijp58BoiNe+gHU8gNYxpNjGHFwqgt+M6+ZAEzv6ZV8HGMriknHa4FrW1JvGAzFODjZuEFQSL7GwOv8naKMLldWp/3MQo8EQtr/ALjb6RrT7JUlZWc1K7bjiI4R5KAAIjkhkgCnnThSmGpGpc3B3Vdt2tY89vedrlGPrW+IwQMbEKeFjptxEk8tgZb8LiKVMAIAuwKga9beG/OJc37SCo3waCjjJsxue707yn5gb6DXraJl4OkBLgMPhbDjd6lvkThblfvHYD667QzJcnLuKj/O17Kb6DW2v5ZLkWQKW7wFRwRcg8KoeZY8zptqZdqOV2NwzA6babcrdPCNDiyd/BJ8mOgnBZcirxkAm1r89OQ6CELU4RYCwkgU2A6TtUG50UbkzsSSWjmbb7CaTgIG8LmJnxHG5N9NgINmucBu5TOm15Bg36zn5eRXii3Fx/8ApjSczSmb4ZMoczJuZMYpptfcH9YPXrgbXB6yT4ZsbnXy39ROHQXF/S/6TmSOm0DVcQdjfz/xEOasSDp7Sw1FB8Irx+E4gf2lIMlIpFVt9DIHEZ4/BFDfl1gnDLpkmgzJ85eh3T3k6c18V/iXXB5ilVbowcdDuPDqPvSedOk4p1HQ8SMVYcx96ykZCNHomLwasCVuG3tfceEVhLbmB5b2oUgJXFj+cbeo3B8Y8+ElUBkcG/MH9xGsFAgAtBsRg0cWZRC6uAddtR7/AKQY8QPe268pqAKsXlLXuj36BuXkw1i9Uqofl2N9DofXn6y1AzRQGBxRrZWFxzgG6ka3BK3H/wCYX/X02AswvpcE8PmReNnwiHW1j1Gh+kDrZQjcg3/lv7ixiOA+RDUxKA8yPzDvDy0M6qYMMt7Bl9/eRHJVH/xj0c/oROaeVlDxLxqfC30sdfWK4eBUvTWHy9Q2i2jfDKgNuLW1zYXtp1GkArI7AguwB37lr+ZUQD/T+HRXYDoOPX0AitN9jJr4WV3CWPELG5F9NrdfOZWzShTTvMbncXW5621JttylexGE4wisxIQEDiVhva+p32EiXJ9eXvAor7ZsmOh2npA2Rbba99yfC1l/WD5l2kxFbuoSiaW5sfPkPID1kGGywXsforH9BHuX5DUc9xOEfmYXb0XYRkvEBuu2JsHgatSzVqzBTpd2Iv5a6+kufZXs0FbjV1dR8pW+nncaERplfZVFIapd2/uN/S3SWtAlNQO6ijyEePG27kJLk1/kEw+WhFCpoBDMOHBteB4jPqKfiLHoB+5lZzXtqBdUIB/Kurf7m5SrlGJNRlIueYZutFeTN46285Ucb2gesbcWnhsPLrKniMe9Y98kD8vL16w7AUiPvSc/Jyt9HRx8SW2WPBKd45w6xXgNhcW/T3jugv2JGOyrCEBnYPUTSTZlUiTZ3eZIeCZMYpdOp1nba/wf2kJ00t6H9j9+s5YEeI+o9ZAudVEFtPaBVYXv4/r6/foYNWHX3hQBLj8Ne8rWIpcJttLjXQ9bxPjsKCNZWLJyQgIkbpfaFVKJXykVo6YjQG9MzmhiXQ3RmQ+B38xzhhWRvSjKQtDPA9rKqWDqHHUaH+D9I8w3aTDVNHPAf7hb67SlNSkRSOpIVo9JVKTC6NfyIMlXBL+YTzFGKnusVPgSP0htHOK67VD62P6w2aj0VMuX8whCZQn5h+n6zz+n2nrjfhb0I/eF0u17j5k9m/xNZqLt/oyzQyQH7/mVRO2g5q49Qf3kw7aL/wDZ9P5ms1FuTIEI1Iv5zluzI5MfcSpN2zT+/wC/Wa//ALRejn2/ma14CmW9ezI5sfpJqXZxB8z+5AlEftp0Rz5sBBqna9zsg9WJ/aC/4HH+nqVLD4anuVv7yR87op8oLeQtPHa3aXENsVXyW5+pMBrY+s/zVHPrYewsJrZsUes5h20VLjiRPW7e28qWY9tC5PAGc9WNh7bn6SmIkIpU4spejxivBjWzStV0ZyB+Ve6PpqfUyTDUyLTnDYUmPcDgDISkVijvA076Sx4HDyLBYDwjnDULaW9JJuylUFYWj99YxpU7SCin39/fjCrEeP6/fvGihJMkV51xD72kauDJD9/f/MomTaNa/ZmTd/H6TUIKKQddvaQrUIOu0yZIHQSg8xv97fwZDVqXvblvMmQoAE4BOm8EqUx6/T/E3MjIVgGJw3OLK2FvciamR0KwJlsdZorNzIRTkrInoTJkICJqVpwKUyZGTAb4Jnw5kyMAw0pz8KZMgszN/DmvgzJk1mN/CtOvhzJkFhOlSSCjMmRWwomo4a5jfC5feamScmysUPMHgha9tI/wmFANpkySY43oURDqSTJkaIsicLJgbTJkZCHZ18f1nHBMmRgG7tMmTJgH/9k=;" parent="rIZx2r6VnLa3uUgruej9-1" vertex="1">
                    <mxGeometry x="-389" y="970" width="275" height="183" as="geometry"/>
                </mxCell>
                <mxCell id="NPqjgVoWjYc2hlhzptdy-1" value="" style="shape=image;verticalLabelPosition=bottom;labelBackgroundColor=#ffffff;verticalAlign=top;aspect=fixed;imageAspect=0;image=data:image/jpeg,/9j/4AAQSkZJRgABAQAAAQABAAD/2wCEAAkGBxEPERUSERMWFRUXFhcWFxYVFxUYFhgWFRUWFxgaFhUYHSgiGBolHhUXIjIhJSorLi46Gh8zODMtNygtLisBCgoKDg0OGxAQGzcmHyUvMDUvLTctLS0tNS81Ly0tLS0tLS0vLS0vLy0tLy0tLy0tLS0tLS0tLS0tLS0tLS0tLf/AABEIAQEAxAMBIgACEQEDEQH/xAAcAAEAAgIDAQAAAAAAAAAAAAAABgcBBQMECAL/xAA/EAACAQIDBgMECAQEBwAAAAABAgADEQQSIQUGMUFRYRMicQcygZEUI0JSYnKhsYKSwdEkM0NjNFNzwuHw8f/EABoBAQADAQEBAAAAAAAAAAAAAAADBAUCBgH/xAA0EQACAQIDBAkEAQQDAAAAAAAAAQIDEQQhMRJBUWEFE3GBkaGx0fAiMsHhQgYjUnIUFfH/2gAMAwEAAhEDEQA/ALxiIgCIiAIiIAiIgCIiAIiIAiIgCIiAIiIAiIgCIiAIiIAiIgCIiAIiIAiIgCIiAIiIAiIgCIiAIiIAiIgCIiAIiIAiIgCIiAIiIAiIgCIiAIiIAiIgCIiAIiIAiIgCIiAIiIAiIgCIiAIiIAifJi0A+onys48TXWkjO5CqoJJPICAc0Slt797sQcQmJp3QUq1WlTH4VWhfOOBLHPcdLDleWLufvOm0KWa2RwcrLfQkAG6HmLH4frI41Yylslupg6kKKrbnryd2vjJJERJCoIiIAiJgQDMREAREQBERAEREAREQBERAEREAwYmDF4Ppx1KgQFmIAAJJOgAHEkyBYnbR2jVYpf6PR93l4lX7LHqBqQPynnp0vabvKcxwdI+UAeKQeLHUJ6AWJ9R0nxg70NmkIQrKM9QEC58ZFYHtYWXvl5TH6TrSnSnSpuzt48V4XNWGG6ihGvP7pu0eS1v+FwvfW1q+2pjfGpYhRqyYhqq90YZHt6aGbXdDaDLhXKHI9OtSqDXgGR1/dVH8UiIDU6411LAXPAq54nsQZIt3af0fF1MHVIXxFejf7ObRqLehZKdvzTucW42+fLmrQcYJp6ZStyy2vK+XMundTeJcbT81lqr7ygjX8SjpJFPPVOpUoPmBKMp5XBBHcagyc7u+0FhZcQM6/fFg49Rwb9PjO6GPi1aplz3d5Wx3QM4tzw/1LhvXZua892ZZkTpbP2jSxC5qThh24j1HETuzRTTzR56UXF2asxMCZmBPp8MxEQBERAEREAREQBERAEREAREQBNLvVtlcDhnrnVgMqL96o3uj+p7AzdSl/aRtepisUaFstOixUD7xsMzH9AOg9TIa9Xq4XL/RuDeKrqD+1Zvs/ehHzepd28zvUJvfUk3JJHctf4es3W+uLfCB8MToQAe6ZQFsemg+U0QreF5vua/FfN+8+8fj1x2zQ7uPpGHtSfMdXo38jHqR17N1EzcPg5VqTrL+Ml6O/wCC/wD1VUtKjCO5uXol5GkxWBY0xVIuAQpPTMNPgTp/9ned2xdFain/ABFAAEji1FdVfuyHj21kq2JhqNTCrlOem6WcHje1iG6H/wAGR7E4Grs3EU6lM5gTem/HNc2KtyzWNiOd7jtHGq7uH8lu4rivmT1OsBVjVio5bSzX5XzdnrYk+8WBNRaeJC2FamtRwOVRlu/zvm+JnJuNu94tU1aovTQ6A8GfiAe3An4DrNvjMZRzeHZVohlwzgaLRqhFaiwHJDm8Mn8o5Ts4HarYMeE9IFEvqhs3W9jo1/hFSEKFdOr9r9f379p3HpCvUwro0vu0W57PLnay7Htb0abFYwNkxVINg6lQBhmIFJ75r5ai/wCW3lOjhQePUne7F33ZSKeLQg20qKBqOpC6MO6adpGclaijlScXhihQ3zGpQBQoPqiSqWB4gEHLxE5cG1Oo2bBqKlKo65sLUtYE0zUdw5N6WUWUOOJVuQAliMmvqpvXdufHLTndcd+6xVo0pwaqRvFaSvmuEbvOLSytO97apWLWwuJSqoemwZTzBuJziVe9dMIhxODxBABAejUsWDHihtcPbU+lyGMkuwN9KOIAWqRSfhcnyMT0J4eh+Zlqniot7M8n5PsZi1ujqkYupSvKO/KzXavyrolkREtGcIiIAiIgCIiAIiIAiIgCIiAcOKq5EZ/uqW+QvPPmKxlStVeo587OzHS2p46culpdm+eINPBVivEqE9BUYIT8mMo7GKyEhgQSAwuCCQwuDryIN7zK6RleUY956v8ApunaM5ve0ueWvrHyPha+HLCliGKrWJpo44U2OqO3VQQAezX5SLYum2GrtSxCEFbo4HXQ3HUcCJy724aohpF0ZUZCUYjysMxByngbZRp37zWDFrWUCs7BwAq1DdhlHBW56dZq4ROlhVD/ACz+eRjdMVuuxs5bo5Lu/dyUbAbFYaqHo3q0+PlBdGA4ZlHAyR7K2vTOBFSuBek+qNoS6HNTy3+HyPK8rvZ20q2EfLRxGTOCGKMctiDx04+ms+qaNUVCGJF7G9+ts1vSVa+DpyalfR5brf8ApRwv01PqeRJ8LjcQjNiXQmlWZlqBgfDqXJLL2IN7HiCDbmJZOzkNWiqqxdcgalUb3mpkAhKt/tgHjz7GVIu26/gLgWAyq+ZbA5iSTYA8xdieF5IMHvXjamTDbOoioaFMB3tcsRxtdgAua4HEm15zDCxrXp1PtNTH4hKEalO21d6cEsva3DsRMaQak+ZCUcdOI+HMTtnZmHxTB1b6JiAb+JTFqb34kpcAE68xfnfhNNsz2iYd6C1MSjJUV/CqKEzANYkEg6gMA2lrgqw9ZBsLevZuKbw6TIXsSENMqxsLnIGUZjYcB0lOHRVehJ7M048Gvb1VjiPSsnHa2Wnpdejvk1fVNMjW8VAZhTojLRp3AHNyeNRjzZj+gA5TT0qbrwvLPobybOI4r6GkQR8Cs+tp7f2ZRyirkOdc6/UM4K3K6FUIvcajiJDDDOtNqNRN8Lfs0cL/AFBHZVOFPa7JXfN6cc3zIru7vbWw1lYl6f3WPD8jcvTh2ljbG2/QxY+rbzc0bRx3tzHcaSJ4x9jVVRnZaHiKWRrPRDBWKk2YBdCOY6dROIbqNZa2ErLVT3kYEA6aXWopynX0lyMcXhleUdqPn3X/AGVsRUwGLk7f2581l329ciyIkN2XvFWpfV4tGNrDMB5x3YfaHcfrJXhsQlRcyMGHUS3RxNOsvoee9b12oya+HnRdpacVmn3nPERJyAREQBERAEREAREQDo7W2emKotSe+VrXtxurBh+oErneLcLG1qzVFeg4NratTsALAeHYgcOTa3OglqRIqlGFT7kW8Ljq2Gd6b45Wus7X8bIqDF7qbQqYX6HiMN41LMCjLUp56R45kJYG1+Xc8tJFdlexTHVa1qzLRpXuX8rNboqK3veun7T0TE6pw2FZN2OMTiHXntuKTetk1fnq/KxF9ibh7OwmHOHXDpUVwBUaqqu9QjgXYjlxAFgOQEqP2i7gVNkucVgwXwjG7JqTQJ5E8SnRuI4G+hPoScVWmrqVYBlIIIIBBBFiCDxE7K55bw+IFRbodf1U95w7k7xjZz1FqA5Wy3IFyCmYW/Uyx98PZE9NjX2Wb8ScOxsQONqVQ6Efgf58BKsxuAzOyVAaNZTZ0dSpv+JTqp4TjJJxejO9ly0+dxjG7SFepiqirZajeIB38UWJ72dvmZt9ujCYarhamAqF2Cq7WbMRUVgVJ+6x1uvK3ASPYrAtRSwu2YgsQDYBb2H63+U3Ww9l0qbCvVqgpT+sVQDd2Gqg9Be3W8llVWUtyO6TcI58yeYD6IzY01XAZaj+GM1iNWtlF/N5rC2vCR/bmMvQpG/uVGA/iCkj5qvznxu7sY49XqeMEcPqCuYHML30ItredXfoU6DUsNTbMaaM9RuF6lXLpblZUT5zMwtFuvGa3X/PuVOjqcoYiM7WST77k29pGHVKWzqQW7CjUQAe95RQv663M+9tVqj7L2ccG751coDTYq5IDJa4I4tk+c5cXtBMRtzAUjqtOhUb1arSqm3yRDI77PahGNyVHPhYJcTWtyGSyE/MIfhPT0pqNKO1/G8u37svQhmnKbtnfL0JNS3yOG/w2LDYo0yRUrXRWBDWYUlA1CkEZma7Wvpwkkw7EmlWwZz0XvmcEAryGdCfNY3FrG1uUjW08HRwuPpYmvTVqFZme5GZQ1RTmzqdCVL5u47iSnd/Y30NqzLUPgvULUaSm6BDYhv6aaWAvrw8rXpKrKVSo7SV/qWTWV08rXXLwPTYiOHpUIdTdXitXdSd7SVnpJa8Dc4TbiFsjkA3tcG4vYk3HFdBxOnebkG/CUZjMRVNUs9g6uyEa5b5tAutwOQ10tJzuZt5qivTIIamRoeatfj1N7689Lzmh0goQ/uu6/y90vweao4tVanVtWZO4nSw2PV/KfI/HK1r/C07s04TjNbUXdFqwiInYEREAREQBERAEREAREQBI9vVufg9ppbEU/OBZKqWWqno3MfhNx2khiAect7txMdsq9QXr4ca+LTBzIP91OK/mFx3HCRU45st/KRoTcd7f1HznrYyuN8/ZRhsYWq4QjDVzckAfUObg+en9k3A8y/EGROktUWOvbVpeJUOyt5Hwx8tNRccbWJAPUf1mxO18HXYtXwiOzG7MGZWPxHOaDb+wcTgKopYyiabX0b3kdFGvhuNDc3PUZhe01ihhaxsx1AvdcvEknlpIpUpfxdi1QrUY/fDwyLZ2RtDZjYiliMjU61MKquzPYhU8MBjmIIy6XafNHdithRjHosK3jqMhGjBC5q1QeRvlVRbjfgJW2BxF2UOSFIJJsQQi++bHtwPUiSXdLeiphPeR/BZiQDmIphj5QjNw+PGdKtWUHGbunl3Ero4Z1Yzw+qs7PRtPTt5eaN5tfe8YnBUMN4ZDoUzMSDfIhQFedyDc34ajXjJxg1qnA4MWYPkvcWGUWulweeXL+x0MjODwGzK9XxwSSTmNImyFuOqWv8AAG05N7N7qgc0aBy5AMzc8x0Kjppb5zMxVV7DjCSc5Ky5JZ3f44svzUajhRo03Gzcntbm7rwztlloja4/ZC4tyulHEHUrYmlXUfapXIIIHFeP7zR4Wridm4g00pqXP+lU0GKprwOGr/YqqT/lsNb8zYTU4HbVRrLUqtb3lJZiVYHiD25jnJXV2oMVSeliqYrhda9MWNRQB/xGGb7tjcqdNRawJA6wM6cHavFPKzyy7bP49Lp2M7F9BRhPraaW13rPlfjpyb5pG62VvJhdoCyG1Qe9SqDLWpsp1BU8wRxHSSDDY1qYsxzL34gevOV7iN1DiQtajXJqKAaGLXSqANMmLTi4FsviakcGBF51xtjGVagw1Sp9Ex9I+VKgBweMHIG48rNrYqcp5a6LP/1VSNbrsHVWw85J3ferartSlHezNc7fTNZr5n88C3qFZagupuP/AHjOaV1u5vSteqaDocJjENmw7nRiNfqmPvC2tj6i41k1wm0Vfyt5W4WPAnt37SzGvKFTqa62Z7s7xl/q/wAan1wyvHP1XabCIiWSMREQBERAEREAREQBMGCYAgACZiIB0dq7NoYukaOIprUptxVxcdiOhHUaiU1vj7IatG9XZxNVNSaDEeKoPHIx0qC3I692Jl5xPjVzqMnHQ8dthmpllKkEEB1YEMuU3KlTqt+hn2mIyeKQ2Zqvl4HRb3u1+mlvSem97NysHtIXrJlqgWWtTstUdAT9tfwtcekpLe/cTGbMu9RBXof8+kp0A1+tTU0/XUd+UjkmuZYpuE3wNbsTahRgbzGLx5d6l+LOWJ+J/vNOoHFTPtWN78esz3QipuSN1Yt3TfebpMRpc9LD9zJjg8cuEpUq1X6xly/R2U2L0nUHJU/CpYjtcjpIju8gNVXqgFRrkOoPYjpOzt/FBHWivupTAXrYlj/b5SjWgqlRUu99nBP197NW+tVZqL09eXHlzTe+zW+be7N5ciot7jwgyMjcAyODow6214Tc4Dby4t1we1KSV6dRfqa+XK3TzFeBuLEjgeNxrKyweKynUXHMSZ7m7UpKtYVQGFEHEUr8VZVAcA9CMmnaXsPX/wCHFqKy3f7bmnre9k+RU6TwNKdLrIKzWvZ3ko3tdsPRT6Ki4tqX1TVatqlalwKK+WxJN9GPTXXWRvZ/tBq5xSx9MAMPeysrWuVvbUMtwRcdD0kYpbwVEZnDEs3vHrmszX+JH8o6TQ4raL16hqVGzMSoBPJFXKqgcgBaa+K6MoQwstuKcnm5Z3vxTd7WelslwPPYSTnXSbyL1wHtLwigIzMwAAzENmIHdhZj3uJMtjbaoYxC9B8wBsdCCD0IM897IojErlXVug439Okt72ZbOFGjVIVlDOo8xBuVW9xYC3vj5DuTlYSrU2urk2+21/FW87vmbnSfR2Fo0HUpPPLflny9uDJxERNM86ImLxeAZiYvF4BmYvFpmAYAmYiAIiIAiIgCYImYgFab4eyfDYrNVwZGGqm5K2+pc91H+We66djKd2zsfE4Cr4WKpNTbXLfVHA5o40YftztPVs6O1dmUMXTNHEU1qoeKuLj1HQ9xqJHOmpFiliJQyeaPLVCuV5zg2piSzqx6W+RP95Zm93slrUL1dnk1qfE0HI8VR/tubBwOhsdOLGVniKZuUdSrA2ZWBVlI5FTqDKjpbErtGhCspq8H7nxSribTZbsy1gvOk4+Gjf8AbNAaDqdNRJPus4o5nPvWtbt0kWJtGDlHN7vEtRxMqkHTa1NDRr5cwYE+ny+U4mOl+82+29jVFa9GmWpPqhAvlPNWPK3Inl6TVVsIaRCsbk6m3Ca9fH069GKg9c7b1xuZWGwtSFRtrJZX7fnmWV7BMMj4us7aslLyj8zAMflp8ZeyIBwAHpPN/sarum1KIU6OtRW7r4bt+6g/CekpBSeTOcYvrTe9L8iIiSFQREQBERAEREAREQBERAEREAREQBERAEjO9m5WD2mv1yZaoFlrU7LUXpr9pezXEk0RY+ptZo8174bj4vZZzVB4tC+lemDYdPFXU0z8SO99JH6D66GesKiBgQQCCLEHUEHiCOkqzfL2To+ats61NuJw50pt/wBM/wCme3u/llepQT0LtLFbp+JBtl7TPg1aZN/KGB9DYj9ZFaxz1DNhTo1aFZ6VVGpuoIZXFiNDy/W/A8p0lFiTKEaSpTk1v9j0FFKdKL5vyJt7GdmVG2ktRfcpU3LnlYqUUepLX/hM9AymPYZXcYjEUwPqzSDMejq4CD4h3/llzzRofZcwOksq7juSVvX1bEREmKAiIgCIiAIiIAiIgCYmYgCIiAIiIAiIgCIiAIiIBTHtvokYvDPbQ0HXN1KuCR8M4/mlXk62/FPTO9m7dLaVHwqhKlWzI62urWI58QQSCP2NjK3HsarA3+k0/wCV/wC8qVaUnNtG9gcdRhQVObs03x07kaz2UYivT2hTSlqlRGFQHhkUFg3qGtb1I5y+ZWu7Xs3q4StTrHFKDTa4CIbkcCCS2gIJB05yypJh4yjG0kVOlatGrWU6TurK+TWfeluEREnMwREQBERAEREAREQBERAEREAREQBERAEREAREQBERAEREAREQBERAEREAREQBERAEREAREQBERAEREAREQBERAEREAREQBERAEREAREQBERAEREAREQBERAEREAREQBERAEREAREQBERAEREAREQBERAEREAREQBERAEREAREQBERAEREAREQBERAEREAREQD/9k=;" parent="rIZx2r6VnLa3uUgruej9-1" vertex="1">
                    <mxGeometry x="-50" y="950" width="196" height="257" as="geometry"/>
                </mxCell>
            </root>
        </mxGraphModel>
    </diagram>
</mxfile>